<svg width="10" height="11" viewBox="0 0 10 11" fill="none" xmlns="http://www.w3.org/2000/svg">
<path d="M0.0305096 4.22323C-0.141107 2.03649 2.00287 1.24237 2.89503 3.2462C3.65488 4.86753 4.11079 6.48886 4.26276 8.1102C4.27165 8.1734 4.2799 8.23582 4.28751 8.29747C4.55459 10.4593 2.41143 11.3263 1.41332 9.3902C0.653471 7.68354 0.197561 6.01953 0.0455911 4.3982C0.0400608 4.3392 0.0350337 4.28088 0.0305096 4.22323ZM6.49022 1.46731C7.33561 0.0372409 9.09954 0.826168 9.09538 2.48742C9.09469 2.76184 9.07951 3.05743 9.04982 3.3742C8.89784 4.99553 8.40394 6.65954 7.56811 8.3662C6.66387 10.2956 4.54829 9.48162 4.69656 7.35598C4.70272 7.26768 4.71009 7.17776 4.71867 7.0862C4.87064 5.46487 5.32655 3.84353 6.0864 2.2222C6.22304 1.9432 6.35764 1.69157 6.49022 1.46731Z" fill="white"/>
</svg>
