<svg width="50" height="50" viewBox="0 0 50 50" fill="none" xmlns="http://www.w3.org/2000/svg">
<path d="M9.33953 9.40673C9.65783 9.30062 9.99382 9.60125 10.3475 10.3086C10.7012 10.9806 10.9134 11.6526 10.9841 12.3245C11.0902 12.9965 11.0018 13.4563 10.7189 13.7039C10.4005 13.81 10.0469 13.527 9.65783 12.855C9.30416 12.1477 9.09196 11.458 9.02122 10.7861C8.95049 10.1141 9.05659 9.6543 9.33953 9.40673ZM12.894 9.03537C13.1769 9.24757 13.283 9.68966 13.2123 10.3616C13.1415 11.0336 12.9116 11.7233 12.5226 12.4306C12.1689 13.1026 11.8329 13.3856 11.5146 13.2795C11.2317 13.0319 11.1256 12.5721 11.1963 11.9001C11.2671 11.2281 11.4793 10.5562 11.8329 9.88418C12.222 9.17684 12.5756 8.8939 12.894 9.03537Z" fill="#3A3E45"/>
<path d="M9.33953 13.3033C9.65783 13.1972 9.99382 13.4979 10.3475 14.2052C10.7012 14.8772 10.9134 15.5492 10.9841 16.2211C11.0902 16.8931 11.0018 17.3529 10.7189 17.6005C10.4005 17.7066 10.0469 17.4236 9.65783 16.7517C9.30416 16.0443 9.09196 15.3546 9.02122 14.6827C8.95049 14.0107 9.05659 13.5509 9.33953 13.3033ZM12.894 12.932C13.1769 13.1442 13.283 13.5863 13.2123 14.2582C13.1415 14.9302 12.9116 15.6199 12.5226 16.3272C12.1689 16.9992 11.8329 17.2822 11.5146 17.1761C11.2317 16.9285 11.1256 16.4687 11.1963 15.7967C11.2671 15.1248 11.4793 14.4528 11.8329 13.7808C12.222 13.0734 12.5756 12.7905 12.894 12.932Z" fill="#3A3E45"/>
<path d="M9.33953 21.0965C9.65783 20.9904 9.99382 21.2911 10.3475 21.9984C10.7012 22.6704 10.9134 23.3424 10.9841 24.0144C11.0902 24.6863 11.0018 25.1461 10.7189 25.3937C10.4005 25.4998 10.0469 25.2168 9.65783 24.5449C9.30416 23.8375 9.09196 23.1479 9.02122 22.4759C8.95049 21.8039 9.05659 21.3441 9.33953 21.0965ZM12.894 20.7252C13.1769 20.9374 13.283 21.3795 13.2123 22.0515C13.1415 22.7234 12.9116 23.4131 12.5226 24.1205C12.1689 24.7924 11.8329 25.0754 11.5146 24.9693C11.2317 24.7217 11.1256 24.2619 11.1963 23.5899C11.2671 22.918 11.4793 22.246 11.8329 21.574C12.222 20.8667 12.5756 20.5837 12.894 20.7252Z" fill="#3A3E45"/>
<path d="M9.33953 24.9932C9.65783 24.8871 9.99382 25.1877 10.3475 25.895C10.7012 26.567 10.9134 27.239 10.9841 27.911C11.0902 28.5829 11.0018 29.0427 10.7189 29.2903C10.4005 29.3964 10.0469 29.1135 9.65783 28.4415C9.30416 27.7341 9.09196 27.0445 9.02122 26.3725C8.95049 25.7005 9.05659 25.2407 9.33953 24.9932ZM12.894 24.6218C13.1769 24.834 13.283 25.2761 13.2123 25.9481C13.1415 26.62 12.9116 27.3097 12.5226 28.0171C12.1689 28.689 11.8329 28.972 11.5146 28.8659C11.2317 28.6183 11.1256 28.1585 11.1963 27.4866C11.2671 26.8146 11.4793 26.1426 11.8329 25.4706C12.222 24.7633 12.5756 24.4803 12.894 24.6218Z" fill="#3A3E45"/>
<path d="M9.33953 32.7865C9.65783 32.6804 9.99382 32.981 10.3475 33.6884C10.7012 34.3603 10.9134 35.0323 10.9841 35.7043C11.0902 36.3763 11.0018 36.8361 10.7189 37.0836C10.4005 37.1897 10.0469 36.9068 9.65783 36.2348C9.30416 35.5275 9.09196 34.8378 9.02122 34.1658C8.95049 33.4938 9.05659 33.0341 9.33953 32.7865ZM12.894 32.4151C13.1769 32.6273 13.283 33.0694 13.2123 33.7414C13.1415 34.4134 12.9116 35.1031 12.5226 35.8104C12.1689 36.4824 11.8329 36.7653 11.5146 36.6592C11.2317 36.4116 11.1256 35.9519 11.1963 35.2799C11.2671 34.6079 11.4793 33.9359 11.8329 33.2639C12.222 32.5566 12.5756 32.2737 12.894 32.4151Z" fill="#3A3E45"/>
<path d="M9.33953 36.6831C9.65783 36.577 9.99382 36.8776 10.3475 37.585C10.7012 38.2569 10.9134 38.9289 10.9841 39.6009C11.0902 40.2729 11.0018 40.7327 10.7189 40.9802C10.4005 41.0863 10.0469 40.8034 9.65783 40.1314C9.30416 39.4241 9.09196 38.7344 9.02122 38.0624C8.95049 37.3904 9.05659 36.9307 9.33953 36.6831ZM12.894 36.3117C13.1769 36.5239 13.283 36.966 13.2123 37.638C13.1415 38.31 12.9116 38.9997 12.5226 39.707C12.1689 40.379 11.8329 40.6619 11.5146 40.5558C11.2317 40.3082 11.1256 39.8485 11.1963 39.1765C11.2671 38.5045 11.4793 37.8325 11.8329 37.1606C12.222 36.4532 12.5756 36.1703 12.894 36.3117Z" fill="#3A3E45"/>
<path d="M13.9875 9.40673C14.3058 9.30062 14.6418 9.60125 14.9954 10.3086C15.3491 10.9806 15.5613 11.6526 15.6321 12.3245C15.7382 12.9965 15.6497 13.4563 15.3668 13.7039C15.0485 13.81 14.6948 13.527 14.3058 12.855C13.9521 12.1477 13.7399 11.458 13.6692 10.7861C13.5984 10.1141 13.7045 9.6543 13.9875 9.40673ZM17.5419 9.03537C17.8248 9.24757 17.9309 9.68966 17.8602 10.3616C17.7895 11.0336 17.5596 11.7233 17.1705 12.4306C16.8169 13.1026 16.4809 13.3856 16.1626 13.2795C15.8796 13.0319 15.7735 12.5721 15.8443 11.9001C15.915 11.2281 16.1272 10.5562 16.4809 9.88418C16.8699 9.17684 17.2236 8.8939 17.5419 9.03537Z" fill="#3A3E45"/>
<path d="M13.9875 13.3033C14.3058 13.1972 14.6418 13.4979 14.9954 14.2052C15.3491 14.8772 15.5613 15.5492 15.6321 16.2211C15.7382 16.8931 15.6497 17.3529 15.3668 17.6005C15.0485 17.7066 14.6948 17.4236 14.3058 16.7517C13.9521 16.0443 13.7399 15.3546 13.6692 14.6827C13.5984 14.0107 13.7045 13.5509 13.9875 13.3033ZM17.5419 12.932C17.8248 13.1442 17.9309 13.5863 17.8602 14.2582C17.7895 14.9302 17.5596 15.6199 17.1705 16.3272C16.8169 16.9992 16.4809 17.2822 16.1626 17.1761C15.8796 16.9285 15.7735 16.4687 15.8443 15.7967C15.915 15.1248 16.1272 14.4528 16.4809 13.7808C16.8699 13.0734 17.2236 12.7905 17.5419 12.932Z" fill="#3A3E45"/>
<path d="M13.9875 21.0965C14.3058 20.9904 14.6418 21.2911 14.9954 21.9984C15.3491 22.6704 15.5613 23.3424 15.6321 24.0144C15.7382 24.6863 15.6497 25.1461 15.3668 25.3937C15.0485 25.4998 14.6948 25.2168 14.3058 24.5449C13.9521 23.8375 13.7399 23.1479 13.6692 22.4759C13.5984 21.8039 13.7045 21.3441 13.9875 21.0965ZM17.5419 20.7252C17.8248 20.9374 17.9309 21.3795 17.8602 22.0515C17.7895 22.7234 17.5596 23.4131 17.1705 24.1205C16.8169 24.7924 16.4809 25.0754 16.1626 24.9693C15.8796 24.7217 15.7735 24.2619 15.8443 23.5899C15.915 22.918 16.1272 22.246 16.4809 21.574C16.8699 20.8667 17.2236 20.5837 17.5419 20.7252Z" fill="#3A3E45"/>
<path d="M13.9875 24.9932C14.3058 24.8871 14.6418 25.1877 14.9954 25.895C15.3491 26.567 15.5613 27.239 15.6321 27.911C15.7382 28.5829 15.6497 29.0427 15.3668 29.2903C15.0485 29.3964 14.6948 29.1135 14.3058 28.4415C13.9521 27.7341 13.7399 27.0445 13.6692 26.3725C13.5984 25.7005 13.7045 25.2407 13.9875 24.9932ZM17.5419 24.6218C17.8248 24.834 17.9309 25.2761 17.8602 25.9481C17.7895 26.62 17.5596 27.3097 17.1705 28.0171C16.8169 28.689 16.4809 28.972 16.1626 28.8659C15.8796 28.6183 15.7735 28.1585 15.8443 27.4866C15.915 26.8146 16.1272 26.1426 16.4809 25.4706C16.8699 24.7633 17.2236 24.4803 17.5419 24.6218Z" fill="#3A3E45"/>
<path d="M13.9875 32.7865C14.3058 32.6804 14.6418 32.981 14.9954 33.6884C15.3491 34.3603 15.5613 35.0323 15.6321 35.7043C15.7382 36.3763 15.6497 36.8361 15.3668 37.0836C15.0485 37.1897 14.6948 36.9068 14.3058 36.2348C13.9521 35.5275 13.7399 34.8378 13.6692 34.1658C13.5984 33.4938 13.7045 33.0341 13.9875 32.7865ZM17.5419 32.4151C17.8248 32.6273 17.9309 33.0694 17.8602 33.7414C17.7895 34.4134 17.5596 35.1031 17.1705 35.8104C16.8169 36.4824 16.4809 36.7653 16.1626 36.6592C15.8796 36.4116 15.7735 35.9519 15.8443 35.2799C15.915 34.6079 16.1272 33.9359 16.4809 33.2639C16.8699 32.5566 17.2236 32.2737 17.5419 32.4151Z" fill="#3A3E45"/>
<path d="M13.9875 36.6831C14.3058 36.577 14.6418 36.8776 14.9954 37.585C15.3491 38.2569 15.5613 38.9289 15.6321 39.6009C15.7382 40.2729 15.6497 40.7327 15.3668 40.9802C15.0485 41.0863 14.6948 40.8034 14.3058 40.1314C13.9521 39.4241 13.7399 38.7344 13.6692 38.0624C13.5984 37.3904 13.7045 36.9307 13.9875 36.6831ZM17.5419 36.3117C17.8248 36.5239 17.9309 36.966 17.8602 37.638C17.7895 38.31 17.5596 38.9997 17.1705 39.707C16.8169 40.379 16.4809 40.6619 16.1626 40.5558C15.8796 40.3082 15.7735 39.8485 15.8443 39.1765C15.915 38.5045 16.1272 37.8325 16.4809 37.1606C16.8699 36.4532 17.2236 36.1703 17.5419 36.3117Z" fill="#3A3E45"/>
<path d="M18.6354 9.40673C18.9537 9.30062 19.2897 9.60125 19.6434 10.3086C19.9971 10.9806 20.2093 11.6526 20.28 12.3245C20.3861 12.9965 20.2977 13.4563 20.0148 13.7039C19.6964 13.81 19.3428 13.527 18.9537 12.855C18.6001 12.1477 18.3879 11.458 18.3171 10.7861C18.2464 10.1141 18.3525 9.6543 18.6354 9.40673ZM22.1898 9.03537C22.4728 9.24757 22.5789 9.68966 22.5082 10.3616C22.4374 11.0336 22.2075 11.7233 21.8185 12.4306C21.4648 13.1026 21.1288 13.3856 20.8105 13.2795C20.5276 13.0319 20.4215 12.5721 20.4922 11.9001C20.5629 11.2281 20.7752 10.5562 21.1288 9.88418C21.5179 9.17684 21.8715 8.8939 22.1898 9.03537Z" fill="#3A3E45"/>
<path d="M18.6354 13.3033C18.9537 13.1972 19.2897 13.4979 19.6434 14.2052C19.9971 14.8772 20.2093 15.5492 20.28 16.2211C20.3861 16.8931 20.2977 17.3529 20.0148 17.6005C19.6964 17.7066 19.3428 17.4236 18.9537 16.7517C18.6001 16.0443 18.3879 15.3546 18.3171 14.6827C18.2464 14.0107 18.3525 13.5509 18.6354 13.3033ZM22.1898 12.932C22.4728 13.1442 22.5789 13.5863 22.5082 14.2582C22.4374 14.9302 22.2075 15.6199 21.8185 16.3272C21.4648 16.9992 21.1288 17.2822 20.8105 17.1761C20.5276 16.9285 20.4215 16.4687 20.4922 15.7967C20.5629 15.1248 20.7752 14.4528 21.1288 13.7808C21.5179 13.0734 21.8715 12.7905 22.1898 12.932Z" fill="#3A3E45"/>
<path d="M18.6354 21.0965C18.9537 20.9904 19.2897 21.2911 19.6434 21.9984C19.9971 22.6704 20.2093 23.3424 20.28 24.0144C20.3861 24.6863 20.2977 25.1461 20.0148 25.3937C19.6964 25.4998 19.3428 25.2168 18.9537 24.5449C18.6001 23.8375 18.3879 23.1479 18.3171 22.4759C18.2464 21.8039 18.3525 21.3441 18.6354 21.0965ZM22.1898 20.7252C22.4728 20.9374 22.5789 21.3795 22.5082 22.0515C22.4374 22.7234 22.2075 23.4131 21.8185 24.1205C21.4648 24.7924 21.1288 25.0754 20.8105 24.9693C20.5276 24.7217 20.4215 24.2619 20.4922 23.5899C20.5629 22.918 20.7752 22.246 21.1288 21.574C21.5179 20.8667 21.8715 20.5837 22.1898 20.7252Z" fill="#3A3E45"/>
<path d="M18.6354 24.9932C18.9537 24.8871 19.2897 25.1877 19.6434 25.895C19.9971 26.567 20.2093 27.239 20.28 27.911C20.3861 28.5829 20.2977 29.0427 20.0148 29.2903C19.6964 29.3964 19.3428 29.1135 18.9537 28.4415C18.6001 27.7341 18.3879 27.0445 18.3171 26.3725C18.2464 25.7005 18.3525 25.2407 18.6354 24.9932ZM22.1898 24.6218C22.4728 24.834 22.5789 25.2761 22.5082 25.9481C22.4374 26.62 22.2075 27.3097 21.8185 28.0171C21.4648 28.689 21.1288 28.972 20.8105 28.8659C20.5276 28.6183 20.4215 28.1585 20.4922 27.4866C20.5629 26.8146 20.7752 26.1426 21.1288 25.4706C21.5179 24.7633 21.8715 24.4803 22.1898 24.6218Z" fill="#3A3E45"/>
<path d="M18.6354 32.7865C18.9537 32.6804 19.2897 32.981 19.6434 33.6884C19.9971 34.3603 20.2093 35.0323 20.28 35.7043C20.3861 36.3763 20.2977 36.8361 20.0148 37.0836C19.6964 37.1897 19.3428 36.9068 18.9537 36.2348C18.6001 35.5275 18.3879 34.8378 18.3171 34.1658C18.2464 33.4938 18.3525 33.0341 18.6354 32.7865ZM22.1898 32.4151C22.4728 32.6273 22.5789 33.0694 22.5082 33.7414C22.4374 34.4134 22.2075 35.1031 21.8185 35.8104C21.4648 36.4824 21.1288 36.7653 20.8105 36.6592C20.5276 36.4116 20.4215 35.9519 20.4922 35.2799C20.5629 34.6079 20.7752 33.9359 21.1288 33.2639C21.5179 32.5566 21.8715 32.2737 22.1898 32.4151Z" fill="#3A3E45"/>
<path d="M18.6354 36.6831C18.9537 36.577 19.2897 36.8776 19.6434 37.585C19.9971 38.2569 20.2093 38.9289 20.28 39.6009C20.3861 40.2729 20.2977 40.7327 20.0148 40.9802C19.6964 41.0863 19.3428 40.8034 18.9537 40.1314C18.6001 39.4241 18.3879 38.7344 18.3171 38.0624C18.2464 37.3904 18.3525 36.9307 18.6354 36.6831ZM22.1898 36.3117C22.4728 36.5239 22.5789 36.966 22.5082 37.638C22.4374 38.31 22.2075 38.9997 21.8185 39.707C21.4648 40.379 21.1288 40.6619 20.8105 40.5558C20.5276 40.3082 20.4215 39.8485 20.4922 39.1765C20.5629 38.5045 20.7752 37.8325 21.1288 37.1606C21.5179 36.4532 21.8715 36.1703 22.1898 36.3117Z" fill="#3A3E45"/>
<path d="M23.2834 9.40673C23.6017 9.30062 23.9377 9.60125 24.2913 10.3086C24.645 10.9806 24.8572 11.6526 24.928 12.3245C25.0341 12.9965 24.9456 13.4563 24.6627 13.7039C24.3444 13.81 23.9907 13.527 23.6017 12.855C23.248 12.1477 23.0358 11.458 22.9651 10.7861C22.8943 10.1141 23.0004 9.6543 23.2834 9.40673ZM26.8378 9.03537C27.1207 9.24757 27.2268 9.68966 27.1561 10.3616C27.0854 11.0336 26.8555 11.7233 26.4664 12.4306C26.1128 13.1026 25.7768 13.3856 25.4585 13.2795C25.1755 13.0319 25.0694 12.5721 25.1402 11.9001C25.2109 11.2281 25.4231 10.5562 25.7768 9.88418C26.1658 9.17684 26.5195 8.8939 26.8378 9.03537Z" fill="#3A3E45"/>
<path d="M23.2834 13.3033C23.6017 13.1972 23.9377 13.4979 24.2913 14.2052C24.645 14.8772 24.8572 15.5492 24.928 16.2211C25.0341 16.8931 24.9456 17.3529 24.6627 17.6005C24.3444 17.7066 23.9907 17.4236 23.6017 16.7517C23.248 16.0443 23.0358 15.3546 22.9651 14.6827C22.8943 14.0107 23.0004 13.5509 23.2834 13.3033ZM26.8378 12.932C27.1207 13.1442 27.2268 13.5863 27.1561 14.2582C27.0854 14.9302 26.8555 15.6199 26.4664 16.3272C26.1128 16.9992 25.7768 17.2822 25.4585 17.1761C25.1755 16.9285 25.0694 16.4687 25.1402 15.7967C25.2109 15.1248 25.4231 14.4528 25.7768 13.7808C26.1658 13.0734 26.5195 12.7905 26.8378 12.932Z" fill="#3A3E45"/>
<path d="M23.2834 21.0965C23.6017 20.9904 23.9377 21.2911 24.2913 21.9984C24.645 22.6704 24.8572 23.3424 24.928 24.0144C25.0341 24.6863 24.9456 25.1461 24.6627 25.3937C24.3444 25.4998 23.9907 25.2168 23.6017 24.5449C23.248 23.8375 23.0358 23.1479 22.9651 22.4759C22.8943 21.8039 23.0004 21.3441 23.2834 21.0965ZM26.8378 20.7252C27.1207 20.9374 27.2268 21.3795 27.1561 22.0515C27.0854 22.7234 26.8555 23.4131 26.4664 24.1205C26.1128 24.7924 25.7768 25.0754 25.4585 24.9693C25.1755 24.7217 25.0694 24.2619 25.1402 23.5899C25.2109 22.918 25.4231 22.246 25.7768 21.574C26.1658 20.8667 26.5195 20.5837 26.8378 20.7252Z" fill="#3A3E45"/>
<path d="M23.2834 24.9932C23.6017 24.8871 23.9377 25.1877 24.2913 25.895C24.645 26.567 24.8572 27.239 24.928 27.911C25.0341 28.5829 24.9456 29.0427 24.6627 29.2903C24.3444 29.3964 23.9907 29.1135 23.6017 28.4415C23.248 27.7341 23.0358 27.0445 22.9651 26.3725C22.8943 25.7005 23.0004 25.2407 23.2834 24.9932ZM26.8378 24.6218C27.1207 24.834 27.2268 25.2761 27.1561 25.9481C27.0854 26.62 26.8555 27.3097 26.4664 28.0171C26.1128 28.689 25.7768 28.972 25.4585 28.8659C25.1755 28.6183 25.0694 28.1585 25.1402 27.4866C25.2109 26.8146 25.4231 26.1426 25.7768 25.4706C26.1658 24.7633 26.5195 24.4803 26.8378 24.6218Z" fill="#3A3E45"/>
<path d="M23.2834 32.7865C23.6017 32.6804 23.9377 32.981 24.2913 33.6884C24.645 34.3603 24.8572 35.0323 24.928 35.7043C25.0341 36.3763 24.9456 36.8361 24.6627 37.0836C24.3444 37.1897 23.9907 36.9068 23.6017 36.2348C23.248 35.5275 23.0358 34.8378 22.9651 34.1658C22.8943 33.4938 23.0004 33.0341 23.2834 32.7865ZM26.8378 32.4151C27.1207 32.6273 27.2268 33.0694 27.1561 33.7414C27.0854 34.4134 26.8555 35.1031 26.4664 35.8104C26.1128 36.4824 25.7768 36.7653 25.4585 36.6592C25.1755 36.4116 25.0694 35.9519 25.1402 35.2799C25.2109 34.6079 25.4231 33.9359 25.7768 33.2639C26.1658 32.5566 26.5195 32.2737 26.8378 32.4151Z" fill="#3A3E45"/>
<path d="M23.2834 36.6831C23.6017 36.577 23.9377 36.8776 24.2913 37.585C24.645 38.2569 24.8572 38.9289 24.928 39.6009C25.0341 40.2729 24.9456 40.7327 24.6627 40.9802C24.3444 41.0863 23.9907 40.8034 23.6017 40.1314C23.248 39.4241 23.0358 38.7344 22.9651 38.0624C22.8943 37.3904 23.0004 36.9307 23.2834 36.6831ZM26.8378 36.3117C27.1207 36.5239 27.2268 36.966 27.1561 37.638C27.0854 38.31 26.8555 38.9997 26.4664 39.707C26.1128 40.379 25.7768 40.6619 25.4585 40.5558C25.1755 40.3082 25.0694 39.8485 25.1402 39.1765C25.2109 38.5045 25.4231 37.8325 25.7768 37.1606C26.1658 36.4532 26.5195 36.1703 26.8378 36.3117Z" fill="#3A3E45"/>
<path d="M27.9313 9.40673C28.2496 9.30062 28.5856 9.60125 28.9393 10.3086C29.293 10.9806 29.5052 11.6526 29.5759 12.3245C29.682 12.9965 29.5936 13.4563 29.3107 13.7039C28.9923 13.81 28.6387 13.527 28.2496 12.855C27.896 12.1477 27.6838 11.458 27.613 10.7861C27.5423 10.1141 27.6484 9.6543 27.9313 9.40673ZM31.4857 9.03537C31.7687 9.24757 31.8748 9.68966 31.8041 10.3616C31.7333 11.0336 31.5034 11.7233 31.1144 12.4306C30.7607 13.1026 30.4247 13.3856 30.1064 13.2795C29.8235 13.0319 29.7174 12.5721 29.7881 11.9001C29.8588 11.2281 30.0711 10.5562 30.4247 9.88418C30.8138 9.17684 31.1674 8.8939 31.4857 9.03537Z" fill="#3A3E45"/>
<path d="M27.9313 13.3033C28.2496 13.1972 28.5856 13.4979 28.9393 14.2052C29.293 14.8772 29.5052 15.5492 29.5759 16.2211C29.682 16.8931 29.5936 17.3529 29.3107 17.6005C28.9923 17.7066 28.6387 17.4236 28.2496 16.7517C27.896 16.0443 27.6838 15.3546 27.613 14.6827C27.5423 14.0107 27.6484 13.5509 27.9313 13.3033ZM31.4857 12.932C31.7687 13.1442 31.8748 13.5863 31.8041 14.2582C31.7333 14.9302 31.5034 15.6199 31.1144 16.3272C30.7607 16.9992 30.4247 17.2822 30.1064 17.1761C29.8235 16.9285 29.7174 16.4687 29.7881 15.7967C29.8588 15.1248 30.0711 14.4528 30.4247 13.7808C30.8138 13.0734 31.1674 12.7905 31.4857 12.932Z" fill="#3A3E45"/>
<path d="M27.9313 21.0965C28.2496 20.9904 28.5856 21.2911 28.9393 21.9984C29.293 22.6704 29.5052 23.3424 29.5759 24.0144C29.682 24.6863 29.5936 25.1461 29.3107 25.3937C28.9923 25.4998 28.6387 25.2168 28.2496 24.5449C27.896 23.8375 27.6838 23.1479 27.613 22.4759C27.5423 21.8039 27.6484 21.3441 27.9313 21.0965ZM31.4857 20.7252C31.7687 20.9374 31.8748 21.3795 31.8041 22.0515C31.7333 22.7234 31.5034 23.4131 31.1144 24.1205C30.7607 24.7924 30.4247 25.0754 30.1064 24.9693C29.8235 24.7217 29.7174 24.2619 29.7881 23.5899C29.8588 22.918 30.0711 22.246 30.4247 21.574C30.8138 20.8667 31.1674 20.5837 31.4857 20.7252Z" fill="#3A3E45"/>
<path d="M27.9313 24.9932C28.2496 24.8871 28.5856 25.1877 28.9393 25.895C29.293 26.567 29.5052 27.239 29.5759 27.911C29.682 28.5829 29.5936 29.0427 29.3107 29.2903C28.9923 29.3964 28.6387 29.1135 28.2496 28.4415C27.896 27.7341 27.6838 27.0445 27.613 26.3725C27.5423 25.7005 27.6484 25.2407 27.9313 24.9932ZM31.4857 24.6218C31.7687 24.834 31.8748 25.2761 31.8041 25.9481C31.7333 26.62 31.5034 27.3097 31.1144 28.0171C30.7607 28.689 30.4247 28.972 30.1064 28.8659C29.8235 28.6183 29.7174 28.1585 29.7881 27.4866C29.8588 26.8146 30.0711 26.1426 30.4247 25.4706C30.8138 24.7633 31.1674 24.4803 31.4857 24.6218Z" fill="#3A3E45"/>
<path d="M27.9313 32.7865C28.2496 32.6804 28.5856 32.981 28.9393 33.6884C29.293 34.3603 29.5052 35.0323 29.5759 35.7043C29.682 36.3763 29.5936 36.8361 29.3107 37.0836C28.9923 37.1897 28.6387 36.9068 28.2496 36.2348C27.896 35.5275 27.6838 34.8378 27.613 34.1658C27.5423 33.4938 27.6484 33.0341 27.9313 32.7865ZM31.4857 32.4151C31.7687 32.6273 31.8748 33.0694 31.8041 33.7414C31.7333 34.4134 31.5034 35.1031 31.1144 35.8104C30.7607 36.4824 30.4247 36.7653 30.1064 36.6592C29.8235 36.4116 29.7174 35.9519 29.7881 35.2799C29.8588 34.6079 30.0711 33.9359 30.4247 33.2639C30.8138 32.5566 31.1674 32.2737 31.4857 32.4151Z" fill="#3A3E45"/>
<path d="M27.9313 36.6831C28.2496 36.577 28.5856 36.8776 28.9393 37.585C29.293 38.2569 29.5052 38.9289 29.5759 39.6009C29.682 40.2729 29.5936 40.7327 29.3107 40.9802C28.9923 41.0863 28.6387 40.8034 28.2496 40.1314C27.896 39.4241 27.6838 38.7344 27.613 38.0624C27.5423 37.3904 27.6484 36.9307 27.9313 36.6831ZM31.4857 36.3117C31.7687 36.5239 31.8748 36.966 31.8041 37.638C31.7333 38.31 31.5034 38.9997 31.1144 39.707C30.7607 40.379 30.4247 40.6619 30.1064 40.5558C29.8235 40.3082 29.7174 39.8485 29.7881 39.1765C29.8588 38.5045 30.0711 37.8325 30.4247 37.1606C30.8138 36.4532 31.1674 36.1703 31.4857 36.3117Z" fill="#3A3E45"/>
<path d="M32.5793 9.40673C32.8976 9.30062 33.2336 9.60125 33.5872 10.3086C33.9409 10.9806 34.1531 11.6526 34.2239 12.3245C34.33 12.9965 34.2415 13.4563 33.9586 13.7039C33.6403 13.81 33.2866 13.527 32.8976 12.855C32.5439 12.1477 32.3317 11.458 32.261 10.7861C32.1902 10.1141 32.2963 9.6543 32.5793 9.40673ZM36.1337 9.03537C36.4166 9.24757 36.5227 9.68966 36.452 10.3616C36.3813 11.0336 36.1514 11.7233 35.7623 12.4306C35.4087 13.1026 35.0727 13.3856 34.7544 13.2795C34.4714 13.0319 34.3653 12.5721 34.4361 11.9001C34.5068 11.2281 34.719 10.5562 35.0727 9.88418C35.4617 9.17684 35.8154 8.8939 36.1337 9.03537Z" fill="#3A3E45"/>
<path d="M32.5793 13.3033C32.8976 13.1972 33.2336 13.4979 33.5872 14.2052C33.9409 14.8772 34.1531 15.5492 34.2239 16.2211C34.33 16.8931 34.2415 17.3529 33.9586 17.6005C33.6403 17.7066 33.2866 17.4236 32.8976 16.7517C32.5439 16.0443 32.3317 15.3546 32.261 14.6827C32.1902 14.0107 32.2963 13.5509 32.5793 13.3033ZM36.1337 12.932C36.4166 13.1442 36.5227 13.5863 36.452 14.2582C36.3813 14.9302 36.1514 15.6199 35.7623 16.3272C35.4087 16.9992 35.0727 17.2822 34.7544 17.1761C34.4714 16.9285 34.3653 16.4687 34.4361 15.7967C34.5068 15.1248 34.719 14.4528 35.0727 13.7808C35.4617 13.0734 35.8154 12.7905 36.1337 12.932Z" fill="#3A3E45"/>
<path d="M32.5793 21.0965C32.8976 20.9904 33.2336 21.2911 33.5872 21.9984C33.9409 22.6704 34.1531 23.3424 34.2239 24.0144C34.33 24.6863 34.2415 25.1461 33.9586 25.3937C33.6403 25.4998 33.2866 25.2168 32.8976 24.5449C32.5439 23.8375 32.3317 23.1479 32.261 22.4759C32.1902 21.8039 32.2963 21.3441 32.5793 21.0965ZM36.1337 20.7252C36.4166 20.9374 36.5227 21.3795 36.452 22.0515C36.3813 22.7234 36.1514 23.4131 35.7623 24.1205C35.4087 24.7924 35.0727 25.0754 34.7544 24.9693C34.4714 24.7217 34.3653 24.2619 34.4361 23.5899C34.5068 22.918 34.719 22.246 35.0727 21.574C35.4617 20.8667 35.8154 20.5837 36.1337 20.7252Z" fill="#3A3E45"/>
<path d="M32.5793 24.9932C32.8976 24.8871 33.2336 25.1877 33.5872 25.895C33.9409 26.567 34.1531 27.239 34.2239 27.911C34.33 28.5829 34.2415 29.0427 33.9586 29.2903C33.6403 29.3964 33.2866 29.1135 32.8976 28.4415C32.5439 27.7341 32.3317 27.0445 32.261 26.3725C32.1902 25.7005 32.2963 25.2407 32.5793 24.9932ZM36.1337 24.6218C36.4166 24.834 36.5227 25.2761 36.452 25.9481C36.3813 26.62 36.1514 27.3097 35.7623 28.0171C35.4087 28.689 35.0727 28.972 34.7544 28.8659C34.4714 28.6183 34.3653 28.1585 34.4361 27.4866C34.5068 26.8146 34.719 26.1426 35.0727 25.4706C35.4617 24.7633 35.8154 24.4803 36.1337 24.6218Z" fill="#3A3E45"/>
<path d="M32.5793 32.7865C32.8976 32.6804 33.2336 32.981 33.5872 33.6884C33.9409 34.3603 34.1531 35.0323 34.2239 35.7043C34.33 36.3763 34.2415 36.8361 33.9586 37.0836C33.6403 37.1897 33.2866 36.9068 32.8976 36.2348C32.5439 35.5275 32.3317 34.8378 32.261 34.1658C32.1902 33.4938 32.2963 33.0341 32.5793 32.7865ZM36.1337 32.4151C36.4166 32.6273 36.5227 33.0694 36.452 33.7414C36.3813 34.4134 36.1514 35.1031 35.7623 35.8104C35.4087 36.4824 35.0727 36.7653 34.7544 36.6592C34.4714 36.4116 34.3653 35.9519 34.4361 35.2799C34.5068 34.6079 34.719 33.9359 35.0727 33.2639C35.4617 32.5566 35.8154 32.2737 36.1337 32.4151Z" fill="#3A3E45"/>
<path d="M32.5793 36.6831C32.8976 36.577 33.2336 36.8776 33.5872 37.585C33.9409 38.2569 34.1531 38.9289 34.2239 39.6009C34.33 40.2729 34.2415 40.7327 33.9586 40.9802C33.6403 41.0863 33.2866 40.8034 32.8976 40.1314C32.5439 39.4241 32.3317 38.7344 32.261 38.0624C32.1902 37.3904 32.2963 36.9307 32.5793 36.6831ZM36.1337 36.3117C36.4166 36.5239 36.5227 36.966 36.452 37.638C36.3813 38.31 36.1514 38.9997 35.7623 39.707C35.4087 40.379 35.0727 40.6619 34.7544 40.5558C34.4714 40.3082 34.3653 39.8485 34.4361 39.1765C34.5068 38.5045 34.719 37.8325 35.0727 37.1606C35.4617 36.4532 35.8154 36.1703 36.1337 36.3117Z" fill="#3A3E45"/>
<path d="M37.2271 9.40673C37.5454 9.30062 37.8814 9.60125 38.2351 10.3086C38.5887 10.9806 38.8009 11.6526 38.8717 12.3245C38.9778 12.9965 38.8894 13.4563 38.6064 13.7039C38.2881 13.81 37.9344 13.527 37.5454 12.855C37.1917 12.1477 36.9795 11.458 36.9088 10.7861C36.8381 10.1141 36.9442 9.6543 37.2271 9.40673ZM40.7815 9.03537C41.0645 9.24757 41.1706 9.68966 41.0998 10.3616C41.0291 11.0336 40.7992 11.7233 40.4102 12.4306C40.0565 13.1026 39.7205 13.3856 39.4022 13.2795C39.1193 13.0319 39.0132 12.5721 39.0839 11.9001C39.1546 11.2281 39.3668 10.5562 39.7205 9.88418C40.1095 9.17684 40.4632 8.8939 40.7815 9.03537Z" fill="#3A3E45"/>
<path d="M37.2271 13.3033C37.5454 13.1972 37.8814 13.4979 38.2351 14.2052C38.5887 14.8772 38.8009 15.5492 38.8717 16.2211C38.9778 16.8931 38.8894 17.3529 38.6064 17.6005C38.2881 17.7066 37.9344 17.4236 37.5454 16.7517C37.1917 16.0443 36.9795 15.3546 36.9088 14.6827C36.8381 14.0107 36.9442 13.5509 37.2271 13.3033ZM40.7815 12.932C41.0645 13.1442 41.1706 13.5863 41.0998 14.2582C41.0291 14.9302 40.7992 15.6199 40.4102 16.3272C40.0565 16.9992 39.7205 17.2822 39.4022 17.1761C39.1193 16.9285 39.0132 16.4687 39.0839 15.7967C39.1546 15.1248 39.3668 14.4528 39.7205 13.7808C40.1095 13.0734 40.4632 12.7905 40.7815 12.932Z" fill="#3A3E45"/>
<path d="M37.2271 21.0965C37.5454 20.9904 37.8814 21.2911 38.2351 21.9984C38.5887 22.6704 38.8009 23.3424 38.8717 24.0144C38.9778 24.6863 38.8894 25.1461 38.6064 25.3937C38.2881 25.4998 37.9344 25.2168 37.5454 24.5449C37.1917 23.8375 36.9795 23.1479 36.9088 22.4759C36.8381 21.8039 36.9442 21.3441 37.2271 21.0965ZM40.7815 20.7252C41.0645 20.9374 41.1706 21.3795 41.0998 22.0515C41.0291 22.7234 40.7992 23.4131 40.4102 24.1205C40.0565 24.7924 39.7205 25.0754 39.4022 24.9693C39.1193 24.7217 39.0132 24.2619 39.0839 23.5899C39.1546 22.918 39.3668 22.246 39.7205 21.574C40.1095 20.8667 40.4632 20.5837 40.7815 20.7252Z" fill="#3A3E45"/>
<path d="M37.2271 24.9932C37.5454 24.8871 37.8814 25.1877 38.2351 25.895C38.5887 26.567 38.8009 27.239 38.8717 27.911C38.9778 28.5829 38.8894 29.0427 38.6064 29.2903C38.2881 29.3964 37.9344 29.1135 37.5454 28.4415C37.1917 27.7341 36.9795 27.0445 36.9088 26.3725C36.8381 25.7005 36.9442 25.2407 37.2271 24.9932ZM40.7815 24.6218C41.0645 24.834 41.1706 25.2761 41.0998 25.9481C41.0291 26.62 40.7992 27.3097 40.4102 28.0171C40.0565 28.689 39.7205 28.972 39.4022 28.8659C39.1193 28.6183 39.0132 28.1585 39.0839 27.4866C39.1546 26.8146 39.3668 26.1426 39.7205 25.4706C40.1095 24.7633 40.4632 24.4803 40.7815 24.6218Z" fill="#3A3E45"/>
<path d="M37.2271 32.7865C37.5454 32.6804 37.8814 32.981 38.2351 33.6884C38.5887 34.3603 38.8009 35.0323 38.8717 35.7043C38.9778 36.3763 38.8894 36.8361 38.6064 37.0836C38.2881 37.1897 37.9344 36.9068 37.5454 36.2348C37.1917 35.5275 36.9795 34.8378 36.9088 34.1658C36.8381 33.4938 36.9442 33.0341 37.2271 32.7865ZM40.7815 32.4151C41.0645 32.6273 41.1706 33.0694 41.0998 33.7414C41.0291 34.4134 40.7992 35.1031 40.4102 35.8104C40.0565 36.4824 39.7205 36.7653 39.4022 36.6592C39.1193 36.4116 39.0132 35.9519 39.0839 35.2799C39.1546 34.6079 39.3668 33.9359 39.7205 33.2639C40.1095 32.5566 40.4632 32.2737 40.7815 32.4151Z" fill="#3A3E45"/>
<path d="M37.2271 36.6831C37.5454 36.577 37.8814 36.8776 38.2351 37.585C38.5887 38.2569 38.8009 38.9289 38.8717 39.6009C38.9778 40.2729 38.8894 40.7327 38.6064 40.9802C38.2881 41.0863 37.9344 40.8034 37.5454 40.1314C37.1917 39.4241 36.9795 38.7344 36.9088 38.0624C36.8381 37.3904 36.9442 36.9307 37.2271 36.6831ZM40.7815 36.3117C41.0645 36.5239 41.1706 36.966 41.0998 37.638C41.0291 38.31 40.7992 38.9997 40.4102 39.707C40.0565 40.379 39.7205 40.6619 39.4022 40.5558C39.1193 40.3082 39.0132 39.8485 39.0839 39.1765C39.1546 38.5045 39.3668 37.8325 39.7205 37.1606C40.1095 36.4532 40.4632 36.1703 40.7815 36.3117Z" fill="#3A3E45"/>
</svg>
