<svg width="50" height="50" viewBox="0 0 50 50" fill="none" xmlns="http://www.w3.org/2000/svg">
<path d="M9.33953 8.40673C9.65783 8.30062 9.99382 8.60125 10.3475 9.30859C10.7012 9.98057 10.9134 10.6526 10.9841 11.3245C11.0902 11.9965 11.0018 12.4563 10.7189 12.7039C10.4005 12.81 10.0469 12.527 9.65783 11.855C9.30416 11.1477 9.09196 10.458 9.02122 9.78605C8.95049 9.11407 9.05659 8.6543 9.33953 8.40673ZM12.894 8.03537C13.1769 8.24757 13.283 8.68966 13.2123 9.36164C13.1415 10.0336 12.9116 10.7233 12.5226 11.4306C12.1689 12.1026 11.8329 12.3856 11.5146 12.2795C11.2317 12.0319 11.1256 11.5721 11.1963 10.9001C11.2671 10.2281 11.4793 9.55616 11.8329 8.88418C12.222 8.17684 12.5756 7.8939 12.894 8.03537Z" fill="#3A3E45"/>
<path d="M37.2272 8.40673C37.5455 8.30062 37.8815 8.60125 38.2352 9.30859C38.5889 9.98057 38.8011 10.6526 38.8718 11.3245C38.9779 11.9965 38.8895 12.4563 38.6066 12.7039C38.2882 12.81 37.9346 12.527 37.5455 11.855C37.1919 11.1477 36.9797 10.458 36.9089 9.78605C36.8382 9.11407 36.9443 8.6543 37.2272 8.40673ZM40.7816 8.03537C41.0646 8.24757 41.1707 8.68966 41.1 9.36164C41.0292 10.0336 40.7993 10.7233 40.4103 11.4306C40.0566 12.1026 39.7206 12.3856 39.4023 12.2795C39.1194 12.0319 39.0133 11.5721 39.084 10.9001C39.1547 10.2281 39.367 9.55616 39.7206 8.88418C40.1097 8.17684 40.4633 7.8939 40.7816 8.03537Z" fill="#3A3E45"/>
<path d="M9.33953 12.1323C9.65783 12.0262 9.99382 12.3268 10.3475 13.0342C10.7012 13.7062 10.9134 14.3781 10.9841 15.0501C11.0902 15.7221 11.0018 16.1819 10.7189 16.4294C10.4005 16.5356 10.0469 16.2526 9.65783 15.5806C9.30416 14.8733 9.09196 14.1836 9.02122 13.5116C8.95049 12.8397 9.05659 12.3799 9.33953 12.1323ZM12.894 11.761C13.1769 11.9732 13.283 12.4152 13.2123 13.0872C13.1415 13.7592 12.9116 14.4489 12.5226 15.1562C12.1689 15.8282 11.8329 16.1111 11.5146 16.005C11.2317 15.7575 11.1256 15.2977 11.1963 14.6257C11.2671 13.9537 11.4793 13.2818 11.8329 12.6098C12.222 11.9024 12.5756 11.6195 12.894 11.761Z" fill="#3A3E45"/>
<path d="M13.9875 12.1323C14.3058 12.0262 14.6418 12.3268 14.9954 13.0342C15.3491 13.7062 15.5613 14.3781 15.6321 15.0501C15.7382 15.7221 15.6497 16.1819 15.3668 16.4294C15.0485 16.5356 14.6948 16.2526 14.3058 15.5806C13.9521 14.8733 13.7399 14.1836 13.6692 13.5116C13.5984 12.8397 13.7045 12.3799 13.9875 12.1323ZM17.5419 11.761C17.8248 11.9732 17.9309 12.4152 17.8602 13.0872C17.7895 13.7592 17.5596 14.4489 17.1705 15.1562C16.8169 15.8282 16.4809 16.1111 16.1626 16.005C15.8796 15.7575 15.7735 15.2977 15.8443 14.6257C15.915 13.9537 16.1272 13.2818 16.4809 12.6098C16.8699 11.9024 17.2236 11.6195 17.5419 11.761Z" fill="#3A3E45"/>
<path d="M32.5793 12.1323C32.8976 12.0262 33.2336 12.3268 33.5872 13.0342C33.9409 13.7062 34.1531 14.3781 34.2239 15.0501C34.33 15.7221 34.2415 16.1819 33.9586 16.4294C33.6403 16.5356 33.2866 16.2526 32.8976 15.5806C32.5439 14.8733 32.3317 14.1836 32.261 13.5116C32.1902 12.8397 32.2963 12.3799 32.5793 12.1323ZM36.1337 11.761C36.4166 11.9732 36.5227 12.4152 36.452 13.0872C36.3813 13.7592 36.1514 14.4489 35.7623 15.1562C35.4087 15.8282 35.0727 16.1111 34.7544 16.005C34.4714 15.7575 34.3653 15.2977 34.4361 14.6257C34.5068 13.9537 34.719 13.2818 35.0727 12.6098C35.4617 11.9024 35.8154 11.6195 36.1337 11.761Z" fill="#3A3E45"/>
<path d="M37.2272 12.1323C37.5455 12.0262 37.8815 12.3268 38.2352 13.0342C38.5889 13.7062 38.8011 14.3781 38.8718 15.0501C38.9779 15.7221 38.8895 16.1819 38.6066 16.4294C38.2882 16.5356 37.9346 16.2526 37.5455 15.5806C37.1919 14.8733 36.9797 14.1836 36.9089 13.5116C36.8382 12.8397 36.9443 12.3799 37.2272 12.1323ZM40.7816 11.761C41.0646 11.9732 41.1707 12.4152 41.1 13.0872C41.0292 13.7592 40.7993 14.4489 40.4103 15.1562C40.0566 15.8282 39.7206 16.1111 39.4023 16.005C39.1194 15.7575 39.0133 15.2977 39.084 14.6257C39.1547 13.9537 39.367 13.2818 39.7206 12.6098C40.1097 11.9024 40.4633 11.6195 40.7816 11.761Z" fill="#3A3E45"/>
<path d="M9.33953 15.8579C9.65783 15.7518 9.99382 16.0524 10.3475 16.7598C10.7012 17.4317 10.9134 18.1037 10.9841 18.7757C11.0902 19.4477 11.0018 19.9075 10.7189 20.155C10.4005 20.2611 10.0469 19.9782 9.65783 19.3062C9.30416 18.5989 9.09196 17.9092 9.02122 17.2372C8.95049 16.5652 9.05659 16.1055 9.33953 15.8579ZM12.894 15.4865C13.1769 15.6987 13.283 16.1408 13.2123 16.8128C13.1415 17.4848 12.9116 18.1745 12.5226 18.8818C12.1689 19.5538 11.8329 19.8367 11.5146 19.7306C11.2317 19.4831 11.1256 19.0233 11.1963 18.3513C11.2671 17.6793 11.4793 17.0073 11.8329 16.3354C12.222 15.628 12.5756 15.3451 12.894 15.4865Z" fill="#3A3E45"/>
<path d="M13.9875 15.8579C14.3058 15.7518 14.6418 16.0524 14.9954 16.7598C15.3491 17.4317 15.5613 18.1037 15.6321 18.7757C15.7382 19.4477 15.6497 19.9075 15.3668 20.155C15.0485 20.2611 14.6948 19.9782 14.3058 19.3062C13.9521 18.5989 13.7399 17.9092 13.6692 17.2372C13.5984 16.5652 13.7045 16.1055 13.9875 15.8579ZM17.5419 15.4865C17.8248 15.6987 17.9309 16.1408 17.8602 16.8128C17.7895 17.4848 17.5596 18.1745 17.1705 18.8818C16.8169 19.5538 16.4809 19.8367 16.1626 19.7306C15.8796 19.4831 15.7735 19.0233 15.8443 18.3513C15.915 17.6793 16.1272 17.0073 16.4809 16.3354C16.8699 15.628 17.2236 15.3451 17.5419 15.4865Z" fill="#3A3E45"/>
<path d="M18.6354 15.8579C18.9537 15.7518 19.2897 16.0524 19.6434 16.7598C19.9971 17.4317 20.2093 18.1037 20.28 18.7757C20.3861 19.4477 20.2977 19.9075 20.0148 20.155C19.6964 20.2611 19.3428 19.9782 18.9537 19.3062C18.6001 18.5989 18.3879 17.9092 18.3171 17.2372C18.2464 16.5652 18.3525 16.1055 18.6354 15.8579ZM22.1898 15.4865C22.4728 15.6987 22.5789 16.1408 22.5082 16.8128C22.4374 17.4848 22.2075 18.1745 21.8185 18.8818C21.4648 19.5538 21.1288 19.8367 20.8105 19.7306C20.5276 19.4831 20.4215 19.0233 20.4922 18.3513C20.5629 17.6793 20.7752 17.0073 21.1288 16.3354C21.5179 15.628 21.8715 15.3451 22.1898 15.4865Z" fill="#3A3E45"/>
<path d="M27.9313 15.8579C28.2496 15.7518 28.5856 16.0524 28.9393 16.7598C29.293 17.4317 29.5052 18.1037 29.5759 18.7757C29.682 19.4477 29.5936 19.9075 29.3107 20.155C28.9923 20.2611 28.6387 19.9782 28.2496 19.3062C27.896 18.5989 27.6838 17.9092 27.613 17.2372C27.5423 16.5652 27.6484 16.1055 27.9313 15.8579ZM31.4857 15.4865C31.7687 15.6987 31.8748 16.1408 31.8041 16.8128C31.7333 17.4848 31.5034 18.1745 31.1144 18.8818C30.7607 19.5538 30.4247 19.8367 30.1064 19.7306C29.8235 19.4831 29.7174 19.0233 29.7881 18.3513C29.8588 17.6793 30.0711 17.0073 30.4247 16.3354C30.8138 15.628 31.1674 15.3451 31.4857 15.4865Z" fill="#3A3E45"/>
<path d="M32.5793 15.8579C32.8976 15.7518 33.2336 16.0524 33.5872 16.7598C33.9409 17.4317 34.1531 18.1037 34.2239 18.7757C34.33 19.4477 34.2415 19.9075 33.9586 20.155C33.6403 20.2611 33.2866 19.9782 32.8976 19.3062C32.5439 18.5989 32.3317 17.9092 32.261 17.2372C32.1902 16.5652 32.2963 16.1055 32.5793 15.8579ZM36.1337 15.4865C36.4166 15.6987 36.5227 16.1408 36.452 16.8128C36.3813 17.4848 36.1514 18.1745 35.7623 18.8818C35.4087 19.5538 35.0727 19.8367 34.7544 19.7306C34.4714 19.4831 34.3653 19.0233 34.4361 18.3513C34.5068 17.6793 34.719 17.0073 35.0727 16.3354C35.4617 15.628 35.8154 15.3451 36.1337 15.4865Z" fill="#3A3E45"/>
<path d="M37.2272 15.8579C37.5455 15.7518 37.8815 16.0524 38.2352 16.7598C38.5889 17.4317 38.8011 18.1037 38.8718 18.7757C38.9779 19.4477 38.8895 19.9075 38.6066 20.155C38.2882 20.2611 37.9346 19.9782 37.5455 19.3062C37.1919 18.5989 36.9797 17.9092 36.9089 17.2372C36.8382 16.5652 36.9443 16.1055 37.2272 15.8579ZM40.7816 15.4865C41.0646 15.6987 41.1707 16.1408 41.1 16.8128C41.0292 17.4848 40.7993 18.1745 40.4103 18.8818C40.0566 19.5538 39.7206 19.8367 39.4023 19.7306C39.1194 19.4831 39.0133 19.0233 39.084 18.3513C39.1547 17.6793 39.367 17.0073 39.7206 16.3354C40.1097 15.628 40.4633 15.3451 40.7816 15.4865Z" fill="#3A3E45"/>
<path d="M13.9875 19.5834C14.3058 19.4773 14.6418 19.7779 14.9954 20.4853C15.3491 21.1573 15.5613 21.8293 15.6321 22.5012C15.7382 23.1732 15.6497 23.633 15.3668 23.8806C15.0485 23.9867 14.6948 23.7037 14.3058 23.0317C13.9521 22.3244 13.7399 21.6347 13.6692 20.9628C13.5984 20.2908 13.7045 19.831 13.9875 19.5834ZM17.5419 19.2121C17.8248 19.4243 17.9309 19.8664 17.8602 20.5383C17.7895 21.2103 17.5596 21.9 17.1705 22.6073C16.8169 23.2793 16.4809 23.5623 16.1626 23.4562C15.8796 23.2086 15.7735 22.7488 15.8443 22.0768C15.915 21.4048 16.1272 20.7329 16.4809 20.0609C16.8699 19.3535 17.2236 19.0706 17.5419 19.2121Z" fill="#3A3E45"/>
<path d="M18.6354 19.5834C18.9537 19.4773 19.2897 19.7779 19.6434 20.4853C19.9971 21.1573 20.2093 21.8293 20.28 22.5012C20.3861 23.1732 20.2977 23.633 20.0148 23.8806C19.6964 23.9867 19.3428 23.7037 18.9537 23.0317C18.6001 22.3244 18.3879 21.6347 18.3171 20.9628C18.2464 20.2908 18.3525 19.831 18.6354 19.5834ZM22.1898 19.2121C22.4728 19.4243 22.5789 19.8664 22.5082 20.5383C22.4374 21.2103 22.2075 21.9 21.8185 22.6073C21.4648 23.2793 21.1288 23.5623 20.8105 23.4562C20.5276 23.2086 20.4215 22.7488 20.4922 22.0768C20.5629 21.4048 20.7752 20.7329 21.1288 20.0609C21.5179 19.3535 21.8715 19.0706 22.1898 19.2121Z" fill="#3A3E45"/>
<path d="M23.2834 19.5834C23.6017 19.4773 23.9377 19.7779 24.2913 20.4853C24.645 21.1573 24.8572 21.8293 24.928 22.5012C25.0341 23.1732 24.9456 23.633 24.6627 23.8806C24.3444 23.9867 23.9907 23.7037 23.6017 23.0317C23.248 22.3244 23.0358 21.6347 22.9651 20.9628C22.8943 20.2908 23.0004 19.831 23.2834 19.5834ZM26.8378 19.2121C27.1207 19.4243 27.2268 19.8664 27.1561 20.5383C27.0854 21.2103 26.8555 21.9 26.4664 22.6073C26.1128 23.2793 25.7768 23.5623 25.4585 23.4562C25.1755 23.2086 25.0694 22.7488 25.1402 22.0768C25.2109 21.4048 25.4231 20.7329 25.7768 20.0609C26.1658 19.3535 26.5195 19.0706 26.8378 19.2121Z" fill="#3A3E45"/>
<path d="M27.9313 19.5834C28.2496 19.4773 28.5856 19.7779 28.9393 20.4853C29.293 21.1573 29.5052 21.8293 29.5759 22.5012C29.682 23.1732 29.5936 23.633 29.3107 23.8806C28.9923 23.9867 28.6387 23.7037 28.2496 23.0317C27.896 22.3244 27.6838 21.6347 27.613 20.9628C27.5423 20.2908 27.6484 19.831 27.9313 19.5834ZM31.4857 19.2121C31.7687 19.4243 31.8748 19.8664 31.8041 20.5383C31.7333 21.2103 31.5034 21.9 31.1144 22.6073C30.7607 23.2793 30.4247 23.5623 30.1064 23.4562C29.8235 23.2086 29.7174 22.7488 29.7881 22.0768C29.8588 21.4048 30.0711 20.7329 30.4247 20.0609C30.8138 19.3535 31.1674 19.0706 31.4857 19.2121Z" fill="#3A3E45"/>
<path d="M32.5793 19.5834C32.8976 19.4773 33.2336 19.7779 33.5872 20.4853C33.9409 21.1573 34.1531 21.8293 34.2239 22.5012C34.33 23.1732 34.2415 23.633 33.9586 23.8806C33.6403 23.9867 33.2866 23.7037 32.8976 23.0317C32.5439 22.3244 32.3317 21.6347 32.261 20.9628C32.1902 20.2908 32.2963 19.831 32.5793 19.5834ZM36.1337 19.2121C36.4166 19.4243 36.5227 19.8664 36.452 20.5383C36.3813 21.2103 36.1514 21.9 35.7623 22.6073C35.4087 23.2793 35.0727 23.5623 34.7544 23.4562C34.4714 23.2086 34.3653 22.7488 34.4361 22.0768C34.5068 21.4048 34.719 20.7329 35.0727 20.0609C35.4617 19.3535 35.8154 19.0706 36.1337 19.2121Z" fill="#3A3E45"/>
<path d="M18.6354 23.309C18.9537 23.2029 19.2897 23.5035 19.6434 24.2109C19.9971 24.8829 20.2093 25.5548 20.28 26.2268C20.3861 26.8988 20.2977 27.3586 20.0148 27.6061C19.6964 27.7122 19.3428 27.4293 18.9537 26.7573C18.6001 26.05 18.3879 25.3603 18.3171 24.6883C18.2464 24.0164 18.3525 23.5566 18.6354 23.309ZM22.1898 22.9377C22.4728 23.1499 22.5789 23.5919 22.5082 24.2639C22.4374 24.9359 22.2075 25.6256 21.8185 26.3329C21.4648 27.0049 21.1288 27.2878 20.8105 27.1817C20.5276 26.9342 20.4215 26.4744 20.4922 25.8024C20.5629 25.1304 20.7752 24.4584 21.1288 23.7865C21.5179 23.0791 21.8715 22.7962 22.1898 22.9377Z" fill="#3A3E45"/>
<path d="M23.2834 23.309C23.6017 23.2029 23.9377 23.5035 24.2913 24.2109C24.645 24.8829 24.8572 25.5548 24.928 26.2268C25.0341 26.8988 24.9456 27.3586 24.6627 27.6061C24.3444 27.7122 23.9907 27.4293 23.6017 26.7573C23.248 26.05 23.0358 25.3603 22.9651 24.6883C22.8943 24.0164 23.0004 23.5566 23.2834 23.309ZM26.8378 22.9377C27.1207 23.1499 27.2268 23.5919 27.1561 24.2639C27.0854 24.9359 26.8555 25.6256 26.4664 26.3329C26.1128 27.0049 25.7768 27.2878 25.4585 27.1817C25.1755 26.9342 25.0694 26.4744 25.1402 25.8024C25.2109 25.1304 25.4231 24.4584 25.7768 23.7865C26.1658 23.0791 26.5195 22.7962 26.8378 22.9377Z" fill="#3A3E45"/>
<path d="M27.9313 23.309C28.2496 23.2029 28.5856 23.5035 28.9393 24.2109C29.293 24.8829 29.5052 25.5548 29.5759 26.2268C29.682 26.8988 29.5936 27.3586 29.3107 27.6061C28.9923 27.7122 28.6387 27.4293 28.2496 26.7573C27.896 26.05 27.6838 25.3603 27.613 24.6883C27.5423 24.0164 27.6484 23.5566 27.9313 23.309ZM31.4857 22.9377C31.7687 23.1499 31.8748 23.5919 31.8041 24.2639C31.7333 24.9359 31.5034 25.6256 31.1144 26.3329C30.7607 27.0049 30.4247 27.2878 30.1064 27.1817C29.8235 26.9342 29.7174 26.4744 29.7881 25.8024C29.8588 25.1304 30.0711 24.4584 30.4247 23.7865C30.8138 23.0791 31.1674 22.7962 31.4857 22.9377Z" fill="#3A3E45"/>
<path d="M13.9875 27.0345C14.3058 26.9284 14.6418 27.2291 14.9954 27.9364C15.3491 28.6084 15.5613 29.2804 15.6321 29.9523C15.7382 30.6243 15.6497 31.0841 15.3668 31.3317C15.0485 31.4378 14.6948 31.1548 14.3058 30.4829C13.9521 29.7755 13.7399 29.0858 13.6692 28.4139C13.5984 27.7419 13.7045 27.2821 13.9875 27.0345ZM17.5419 26.6632C17.8248 26.8754 17.9309 27.3175 17.8602 27.9895C17.7895 28.6614 17.5596 29.3511 17.1705 30.0584C16.8169 30.7304 16.4809 31.0134 16.1626 30.9073C15.8796 30.6597 15.7735 30.1999 15.8443 29.5279C15.915 28.856 16.1272 28.184 16.4809 27.512C16.8699 26.8046 17.2236 26.5217 17.5419 26.6632Z" fill="#3A3E45"/>
<path d="M18.6354 27.0345C18.9537 26.9284 19.2897 27.2291 19.6434 27.9364C19.9971 28.6084 20.2093 29.2804 20.28 29.9523C20.3861 30.6243 20.2977 31.0841 20.0148 31.3317C19.6964 31.4378 19.3428 31.1548 18.9537 30.4829C18.6001 29.7755 18.3879 29.0858 18.3171 28.4139C18.2464 27.7419 18.3525 27.2821 18.6354 27.0345ZM22.1898 26.6632C22.4728 26.8754 22.5789 27.3175 22.5082 27.9895C22.4374 28.6614 22.2075 29.3511 21.8185 30.0584C21.4648 30.7304 21.1288 31.0134 20.8105 30.9073C20.5276 30.6597 20.4215 30.1999 20.4922 29.5279C20.5629 28.856 20.7752 28.184 21.1288 27.512C21.5179 26.8046 21.8715 26.5217 22.1898 26.6632Z" fill="#3A3E45"/>
<path d="M23.2834 27.0345C23.6017 26.9284 23.9377 27.2291 24.2913 27.9364C24.645 28.6084 24.8572 29.2804 24.928 29.9523C25.0341 30.6243 24.9456 31.0841 24.6627 31.3317C24.3444 31.4378 23.9907 31.1548 23.6017 30.4829C23.248 29.7755 23.0358 29.0858 22.9651 28.4139C22.8943 27.7419 23.0004 27.2821 23.2834 27.0345ZM26.8378 26.6632C27.1207 26.8754 27.2268 27.3175 27.1561 27.9895C27.0854 28.6614 26.8555 29.3511 26.4664 30.0584C26.1128 30.7304 25.7768 31.0134 25.4585 30.9073C25.1755 30.6597 25.0694 30.1999 25.1402 29.5279C25.2109 28.856 25.4231 28.184 25.7768 27.512C26.1658 26.8046 26.5195 26.5217 26.8378 26.6632Z" fill="#3A3E45"/>
<path d="M27.9313 27.0345C28.2496 26.9284 28.5856 27.2291 28.9393 27.9364C29.293 28.6084 29.5052 29.2804 29.5759 29.9523C29.682 30.6243 29.5936 31.0841 29.3107 31.3317C28.9923 31.4378 28.6387 31.1548 28.2496 30.4829C27.896 29.7755 27.6838 29.0858 27.613 28.4139C27.5423 27.7419 27.6484 27.2821 27.9313 27.0345ZM31.4857 26.6632C31.7687 26.8754 31.8748 27.3175 31.8041 27.9895C31.7333 28.6614 31.5034 29.3511 31.1144 30.0584C30.7607 30.7304 30.4247 31.0134 30.1064 30.9073C29.8235 30.6597 29.7174 30.1999 29.7881 29.5279C29.8588 28.856 30.0711 28.184 30.4247 27.512C30.8138 26.8046 31.1674 26.5217 31.4857 26.6632Z" fill="#3A3E45"/>
<path d="M32.5793 27.0345C32.8976 26.9284 33.2336 27.2291 33.5872 27.9364C33.9409 28.6084 34.1531 29.2804 34.2239 29.9523C34.33 30.6243 34.2415 31.0841 33.9586 31.3317C33.6403 31.4378 33.2866 31.1548 32.8976 30.4829C32.5439 29.7755 32.3317 29.0858 32.261 28.4139C32.1902 27.7419 32.2963 27.2821 32.5793 27.0345ZM36.1337 26.6632C36.4166 26.8754 36.5227 27.3175 36.452 27.9895C36.3813 28.6614 36.1514 29.3511 35.7623 30.0584C35.4087 30.7304 35.0727 31.0134 34.7544 30.9073C34.4714 30.6597 34.3653 30.1999 34.4361 29.5279C34.5068 28.856 34.719 28.184 35.0727 27.512C35.4617 26.8046 35.8154 26.5217 36.1337 26.6632Z" fill="#3A3E45"/>
<path d="M9.33953 30.7601C9.65783 30.654 9.99382 30.9546 10.3475 31.662C10.7012 32.334 10.9134 33.0059 10.9841 33.6779C11.0902 34.3499 11.0018 34.8097 10.7189 35.0573C10.4005 35.1634 10.0469 34.8804 9.65783 34.2084C9.30416 33.5011 9.09196 32.8114 9.02122 32.1394C8.95049 31.4675 9.05659 31.0077 9.33953 30.7601ZM12.894 30.3888C13.1769 30.601 13.283 31.0431 13.2123 31.715C13.1415 32.387 12.9116 33.0767 12.5226 33.784C12.1689 34.456 11.8329 34.7389 11.5146 34.6328C11.2317 34.3853 11.1256 33.9255 11.1963 33.2535C11.2671 32.5815 11.4793 31.9096 11.8329 31.2376C12.222 30.5302 12.5756 30.2473 12.894 30.3888Z" fill="#3A3E45"/>
<path d="M13.9875 30.7601C14.3058 30.654 14.6418 30.9546 14.9954 31.662C15.3491 32.334 15.5613 33.0059 15.6321 33.6779C15.7382 34.3499 15.6497 34.8097 15.3668 35.0573C15.0485 35.1634 14.6948 34.8804 14.3058 34.2084C13.9521 33.5011 13.7399 32.8114 13.6692 32.1394C13.5984 31.4675 13.7045 31.0077 13.9875 30.7601ZM17.5419 30.3888C17.8248 30.601 17.9309 31.0431 17.8602 31.715C17.7895 32.387 17.5596 33.0767 17.1705 33.784C16.8169 34.456 16.4809 34.7389 16.1626 34.6328C15.8796 34.3853 15.7735 33.9255 15.8443 33.2535C15.915 32.5815 16.1272 31.9096 16.4809 31.2376C16.8699 30.5302 17.2236 30.2473 17.5419 30.3888Z" fill="#3A3E45"/>
<path d="M18.6354 30.7601C18.9537 30.654 19.2897 30.9546 19.6434 31.662C19.9971 32.334 20.2093 33.0059 20.28 33.6779C20.3861 34.3499 20.2977 34.8097 20.0148 35.0573C19.6964 35.1634 19.3428 34.8804 18.9537 34.2084C18.6001 33.5011 18.3879 32.8114 18.3171 32.1394C18.2464 31.4675 18.3525 31.0077 18.6354 30.7601ZM22.1898 30.3888C22.4728 30.601 22.5789 31.0431 22.5082 31.715C22.4374 32.387 22.2075 33.0767 21.8185 33.784C21.4648 34.456 21.1288 34.7389 20.8105 34.6328C20.5276 34.3853 20.4215 33.9255 20.4922 33.2535C20.5629 32.5815 20.7752 31.9096 21.1288 31.2376C21.5179 30.5302 21.8715 30.2473 22.1898 30.3888Z" fill="#3A3E45"/>
<path d="M27.9313 30.7601C28.2496 30.654 28.5856 30.9546 28.9393 31.662C29.293 32.334 29.5052 33.0059 29.5759 33.6779C29.682 34.3499 29.5936 34.8097 29.3107 35.0573C28.9923 35.1634 28.6387 34.8804 28.2496 34.2084C27.896 33.5011 27.6838 32.8114 27.613 32.1394C27.5423 31.4675 27.6484 31.0077 27.9313 30.7601ZM31.4857 30.3888C31.7687 30.601 31.8748 31.0431 31.8041 31.715C31.7333 32.387 31.5034 33.0767 31.1144 33.784C30.7607 34.456 30.4247 34.7389 30.1064 34.6328C29.8235 34.3853 29.7174 33.9255 29.7881 33.2535C29.8588 32.5815 30.0711 31.9096 30.4247 31.2376C30.8138 30.5302 31.1674 30.2473 31.4857 30.3888Z" fill="#3A3E45"/>
<path d="M32.5793 30.7601C32.8976 30.654 33.2336 30.9546 33.5872 31.662C33.9409 32.334 34.1531 33.0059 34.2239 33.6779C34.33 34.3499 34.2415 34.8097 33.9586 35.0573C33.6403 35.1634 33.2866 34.8804 32.8976 34.2084C32.5439 33.5011 32.3317 32.8114 32.261 32.1394C32.1902 31.4675 32.2963 31.0077 32.5793 30.7601ZM36.1337 30.3888C36.4166 30.601 36.5227 31.0431 36.452 31.715C36.3813 32.387 36.1514 33.0767 35.7623 33.784C35.4087 34.456 35.0727 34.7389 34.7544 34.6328C34.4714 34.3853 34.3653 33.9255 34.4361 33.2535C34.5068 32.5815 34.719 31.9096 35.0727 31.2376C35.4617 30.5302 35.8154 30.2473 36.1337 30.3888Z" fill="#3A3E45"/>
<path d="M37.2272 30.7601C37.5455 30.654 37.8815 30.9546 38.2352 31.662C38.5889 32.334 38.8011 33.0059 38.8718 33.6779C38.9779 34.3499 38.8895 34.8097 38.6066 35.0573C38.2882 35.1634 37.9346 34.8804 37.5455 34.2084C37.1919 33.5011 36.9797 32.8114 36.9089 32.1394C36.8382 31.4675 36.9443 31.0077 37.2272 30.7601ZM40.7816 30.3888C41.0646 30.601 41.1707 31.0431 41.1 31.715C41.0292 32.387 40.7993 33.0767 40.4103 33.784C40.0566 34.456 39.7206 34.7389 39.4023 34.6328C39.1194 34.3853 39.0133 33.9255 39.084 33.2535C39.1547 32.5815 39.367 31.9096 39.7206 31.2376C40.1097 30.5302 40.4633 30.2473 40.7816 30.3888Z" fill="#3A3E45"/>
<path d="M9.33953 34.4857C9.65783 34.3796 9.99382 34.6802 10.3475 35.3876C10.7012 36.0596 10.9134 36.7315 10.9841 37.4035C11.0902 38.0755 11.0018 38.5353 10.7189 38.7828C10.4005 38.8889 10.0469 38.606 9.65783 37.934C9.30416 37.2267 9.09196 36.537 9.02122 35.865C8.95049 35.1931 9.05659 34.7333 9.33953 34.4857ZM12.894 34.1143C13.1769 34.3266 13.283 34.7686 13.2123 35.4406C13.1415 36.1126 12.9116 36.8023 12.5226 37.5096C12.1689 38.1816 11.8329 38.4645 11.5146 38.3584C11.2317 38.1109 11.1256 37.6511 11.1963 36.9791C11.2671 36.3071 11.4793 35.6351 11.8329 34.9632C12.222 34.2558 12.5756 33.9729 12.894 34.1143Z" fill="#3A3E45"/>
<path d="M13.9875 34.4857C14.3058 34.3796 14.6418 34.6802 14.9954 35.3876C15.3491 36.0596 15.5613 36.7315 15.6321 37.4035C15.7382 38.0755 15.6497 38.5353 15.3668 38.7828C15.0485 38.8889 14.6948 38.606 14.3058 37.934C13.9521 37.2267 13.7399 36.537 13.6692 35.865C13.5984 35.1931 13.7045 34.7333 13.9875 34.4857ZM17.5419 34.1143C17.8248 34.3266 17.9309 34.7686 17.8602 35.4406C17.7895 36.1126 17.5596 36.8023 17.1705 37.5096C16.8169 38.1816 16.4809 38.4645 16.1626 38.3584C15.8796 38.1109 15.7735 37.6511 15.8443 36.9791C15.915 36.3071 16.1272 35.6351 16.4809 34.9632C16.8699 34.2558 17.2236 33.9729 17.5419 34.1143Z" fill="#3A3E45"/>
<path d="M32.5793 34.4857C32.8976 34.3796 33.2336 34.6802 33.5872 35.3876C33.9409 36.0596 34.1531 36.7315 34.2239 37.4035C34.33 38.0755 34.2415 38.5353 33.9586 38.7828C33.6403 38.8889 33.2866 38.606 32.8976 37.934C32.5439 37.2267 32.3317 36.537 32.261 35.865C32.1902 35.1931 32.2963 34.7333 32.5793 34.4857ZM36.1337 34.1143C36.4166 34.3266 36.5227 34.7686 36.452 35.4406C36.3813 36.1126 36.1514 36.8023 35.7623 37.5096C35.4087 38.1816 35.0727 38.4645 34.7544 38.3584C34.4714 38.1109 34.3653 37.6511 34.4361 36.9791C34.5068 36.3071 34.719 35.6351 35.0727 34.9632C35.4617 34.2558 35.8154 33.9729 36.1337 34.1143Z" fill="#3A3E45"/>
<path d="M37.2272 34.4857C37.5455 34.3796 37.8815 34.6802 38.2352 35.3876C38.5889 36.0596 38.8011 36.7315 38.8718 37.4035C38.9779 38.0755 38.8895 38.5353 38.6066 38.7828C38.2882 38.8889 37.9346 38.606 37.5455 37.934C37.1919 37.2267 36.9797 36.537 36.9089 35.865C36.8382 35.1931 36.9443 34.7333 37.2272 34.4857ZM40.7816 34.1143C41.0646 34.3266 41.1707 34.7686 41.1 35.4406C41.0292 36.1126 40.7993 36.8023 40.4103 37.5096C40.0566 38.1816 39.7206 38.4645 39.4023 38.3584C39.1194 38.1109 39.0133 37.6511 39.084 36.9791C39.1547 36.3071 39.367 35.6351 39.7206 34.9632C40.1097 34.2558 40.4633 33.9729 40.7816 34.1143Z" fill="#3A3E45"/>
<path d="M9.33953 38.2112C9.65783 38.1051 9.99382 38.4057 10.3475 39.1131C10.7012 39.7851 10.9134 40.4571 10.9841 41.129C11.0902 41.801 11.0018 42.2608 10.7189 42.5084C10.4005 42.6145 10.0469 42.3315 9.65783 41.6596C9.30416 40.9522 9.09196 40.2625 9.02122 39.5906C8.95049 38.9186 9.05659 38.4588 9.33953 38.2112ZM12.894 37.8399C13.1769 38.0521 13.283 38.4942 13.2123 39.1661C13.1415 39.8381 12.9116 40.5278 12.5226 41.2351C12.1689 41.9071 11.8329 42.1901 11.5146 42.084C11.2317 41.8364 11.1256 41.3766 11.1963 40.7046C11.2671 40.0327 11.4793 39.3607 11.8329 38.6887C12.222 37.9813 12.5756 37.6984 12.894 37.8399Z" fill="#3A3E45"/>
<path d="M37.2272 38.2112C37.5455 38.1051 37.8815 38.4057 38.2352 39.1131C38.5889 39.7851 38.8011 40.4571 38.8718 41.129C38.9779 41.801 38.8895 42.2608 38.6066 42.5084C38.2882 42.6145 37.9346 42.3315 37.5455 41.6596C37.1919 40.9522 36.9797 40.2625 36.9089 39.5906C36.8382 38.9186 36.9443 38.4588 37.2272 38.2112ZM40.7816 37.8399C41.0646 38.0521 41.1707 38.4942 41.1 39.1661C41.0292 39.8381 40.7993 40.5278 40.4103 41.2351C40.0566 41.9071 39.7206 42.1901 39.4023 42.084C39.1194 41.8364 39.0133 41.3766 39.084 40.7046C39.1547 40.0327 39.367 39.3607 39.7206 38.6887C40.1097 37.9813 40.4633 37.6984 40.7816 37.8399Z" fill="#3A3E45"/>
</svg>
