<svg width="33" height="31" viewBox="0 0 33 31" fill="none" xmlns="http://www.w3.org/2000/svg">
<path d="M0.819202 0.981337C1.5872 0.725337 2.39787 1.45067 3.2512 3.15733C4.10453 4.77867 4.61653 6.4 4.7872 8.02133C5.0432 9.64266 4.82987 10.752 4.1472 11.3493C3.3792 11.6053 2.52587 10.9227 1.5872 9.30134C0.733867 7.59467 0.221867 5.93067 0.0512001 4.30933C-0.119467 2.688 0.136534 1.57867 0.819202 0.981337ZM9.3952 0.0853336C10.0779 0.597334 10.3339 1.664 10.1632 3.28533C9.99253 4.90666 9.43787 6.57067 8.4992 8.27734C7.64587 9.89867 6.8352 10.5813 6.0672 10.3253C5.38453 9.728 5.12853 8.61867 5.2992 6.99734C5.46987 5.376 5.98187 3.75466 6.8352 2.13333C7.77387 0.426663 8.6272 -0.256 9.3952 0.0853336Z" fill="white"/>
<path d="M0.819202 10.3829C1.5872 10.1269 2.39787 10.8523 3.2512 12.5589C4.10453 14.1803 4.61653 15.8016 4.7872 17.4229C5.0432 19.0443 4.82987 20.1536 4.1472 20.7509C3.3792 21.0069 2.52587 20.3243 1.5872 18.7029C0.733867 16.9963 0.221867 15.3323 0.0512001 13.7109C-0.119467 12.0896 0.136534 10.9803 0.819202 10.3829ZM9.3952 9.48694C10.0779 9.99895 10.3339 11.0656 10.1632 12.6869C9.99253 14.3083 9.43787 15.9723 8.4992 17.6789C7.64587 19.3003 6.8352 19.9829 6.0672 19.7269C5.38453 19.1296 5.12853 18.0203 5.2992 16.3989C5.46987 14.7776 5.98187 13.1563 6.8352 11.5349C7.77387 9.82827 8.6272 9.14561 9.3952 9.48694Z" fill="#3A3E45"/>
<path d="M12.0336 10.3829C12.8016 10.1269 13.6122 10.8523 14.4656 12.5589C15.3189 14.1803 15.8309 15.8016 16.0016 17.4229C16.2576 19.0443 16.0442 20.1536 15.3616 20.7509C14.5936 21.0069 13.7402 20.3243 12.8016 18.7029C11.9482 16.9963 11.4362 15.3323 11.2656 13.7109C11.0949 12.0896 11.3509 10.9803 12.0336 10.3829ZM20.6096 9.48694C21.2922 9.99895 21.5482 11.0656 21.3776 12.6869C21.2069 14.3083 20.6522 15.9723 19.7136 17.6789C18.8602 19.3003 18.0496 19.9829 17.2816 19.7269C16.5989 19.1296 16.3429 18.0203 16.5136 16.3989C16.6842 14.7776 17.1962 13.1563 18.0496 11.5349C18.9882 9.82827 19.8416 9.14561 20.6096 9.48694Z" fill="white"/>
<path d="M12.0336 19.7846C12.8016 19.5286 13.6122 20.2539 14.4656 21.9606C15.3189 23.5819 15.8309 25.2032 16.0016 26.8246C16.2576 28.4459 16.0442 29.5552 15.3616 30.1526C14.5936 30.4086 13.7402 29.7259 12.8016 28.1046C11.9482 26.3979 11.4362 24.7339 11.2656 23.1126C11.0949 21.4912 11.3509 20.3819 12.0336 19.7846ZM20.6096 18.8886C21.2922 19.4006 21.5482 20.4672 21.3776 22.0886C21.2069 23.7099 20.6522 25.3739 19.7136 27.0806C18.8602 28.7019 18.0496 29.3846 17.2816 29.1286C16.5989 28.5312 16.3429 27.4219 16.5136 25.8006C16.6842 24.1792 17.1962 22.5579 18.0496 20.9366C18.9882 19.2299 19.8416 18.5472 20.6096 18.8886Z" fill="#3A3E45"/>
<path d="M23.248 0.981337C24.016 0.725337 24.8267 1.45067 25.68 3.15733C26.5334 4.77867 27.0454 6.4 27.216 8.02133C27.472 9.64266 27.2587 10.752 26.576 11.3493C25.808 11.6053 24.9547 10.9227 24.016 9.30134C23.1627 7.59467 22.6507 5.93067 22.48 4.30933C22.3094 2.688 22.5654 1.57867 23.248 0.981337ZM31.824 0.0853336C32.5067 0.597334 32.7627 1.664 32.592 3.28533C32.4214 4.90666 31.8667 6.57067 30.928 8.27734C30.0747 9.89867 29.264 10.5813 28.496 10.3253C27.8134 9.728 27.5574 8.61867 27.728 6.99734C27.8987 5.376 28.4107 3.75466 29.264 2.13333C30.2027 0.426663 31.056 -0.256 31.824 0.0853336Z" fill="white"/>
<path d="M23.248 10.3829C24.016 10.1269 24.8267 10.8523 25.68 12.5589C26.5334 14.1803 27.0454 15.8016 27.216 17.4229C27.472 19.0443 27.2587 20.1536 26.576 20.7509C25.808 21.0069 24.9547 20.3243 24.016 18.7029C23.1627 16.9963 22.6507 15.3323 22.48 13.7109C22.3094 12.0896 22.5654 10.9803 23.248 10.3829ZM31.824 9.48694C32.5067 9.99895 32.7627 11.0656 32.592 12.6869C32.4214 14.3083 31.8667 15.9723 30.928 17.6789C30.0747 19.3003 29.264 19.9829 28.496 19.7269C27.8134 19.1296 27.5574 18.0203 27.728 16.3989C27.8987 14.7776 28.4107 13.1563 29.264 11.5349C30.2027 9.82827 31.056 9.14561 31.824 9.48694Z" fill="#3A3E45"/>
</svg>
