<svg width="44" height="40" viewBox="0 0 44 40" fill="none" xmlns="http://www.w3.org/2000/svg">
<path d="M0.819202 0.981337C1.5872 0.725337 2.39787 1.45067 3.2512 3.15733C4.10453 4.77867 4.61653 6.4 4.7872 8.02133C5.0432 9.64266 4.82987 10.752 4.1472 11.3493C3.3792 11.6053 2.52587 10.9227 1.5872 9.30134C0.733867 7.59467 0.221867 5.93067 0.0512001 4.30933C-0.119467 2.688 0.136534 1.57867 0.819202 0.981337ZM9.3952 0.0853336C10.0779 0.597334 10.3339 1.664 10.1632 3.28533C9.99253 4.90666 9.43787 6.57067 8.4992 8.27734C7.64587 9.89867 6.8352 10.5813 6.0672 10.3253C5.38453 9.728 5.12853 8.61867 5.2992 6.99734C5.46987 5.376 5.98187 3.75466 6.8352 2.13333C7.77387 0.426663 8.6272 -0.256 9.3952 0.0853336Z" fill="#3A3E45"/>
<path d="M12.0337 0.981337C12.8017 0.725337 13.6123 1.45067 14.4657 3.15733C15.319 4.77867 15.831 6.4 16.0017 8.02133C16.2577 9.64266 16.0443 10.752 15.3617 11.3493C14.5937 11.6053 13.7403 10.9227 12.8017 9.30134C11.9483 7.59467 11.4363 5.93067 11.2657 4.30933C11.095 2.688 11.351 1.57867 12.0337 0.981337ZM20.6097 0.0853336C21.2923 0.597334 21.5483 1.664 21.3777 3.28533C21.207 4.90666 20.6523 6.57067 19.7137 8.27734C18.8603 9.89867 18.0497 10.5813 17.2817 10.3253C16.599 9.728 16.343 8.61867 16.5137 6.99734C16.6843 5.376 17.1963 3.75466 18.0497 2.13333C18.9883 0.426663 19.8417 -0.256 20.6097 0.0853336Z" fill="#3A3E45"/>
<path d="M12.0337 10.3829C12.8017 10.1269 13.6123 10.8523 14.4657 12.5589C15.319 14.1803 15.831 15.8016 16.0017 17.4229C16.2577 19.0443 16.0443 20.1536 15.3617 20.7509C14.5937 21.0069 13.7403 20.3243 12.8017 18.7029C11.9483 16.9963 11.4363 15.3323 11.2657 13.7109C11.095 12.0896 11.351 10.9803 12.0337 10.3829ZM20.6097 9.48694C21.2923 9.99895 21.5483 11.0656 21.3777 12.6869C21.207 14.3083 20.6523 15.9723 19.7137 17.6789C18.8603 19.3003 18.0497 19.9829 17.2817 19.7269C16.599 19.1296 16.343 18.0203 16.5137 16.3989C16.6843 14.7776 17.1963 13.1563 18.0497 11.5349C18.9883 9.82827 19.8417 9.14561 20.6097 9.48694Z" fill="#3A3E45"/>
<path d="M23.248 0.981337C24.016 0.725337 24.8267 1.45067 25.68 3.15733C26.5334 4.77867 27.0454 6.4 27.216 8.02133C27.472 9.64266 27.2587 10.752 26.576 11.3493C25.808 11.6053 24.9547 10.9227 24.016 9.30134C23.1627 7.59467 22.6507 5.93067 22.48 4.30933C22.3094 2.688 22.5654 1.57867 23.248 0.981337ZM31.824 0.0853336C32.5067 0.597334 32.7627 1.664 32.592 3.28533C32.4214 4.90666 31.8667 6.57067 30.928 8.27734C30.0747 9.89867 29.264 10.5813 28.496 10.3253C27.8134 9.728 27.5574 8.61867 27.728 6.99734C27.8987 5.376 28.4107 3.75466 29.264 2.13333C30.2027 0.426663 31.056 -0.256 31.824 0.0853336Z" fill="#3A3E45"/>
<path d="M23.248 10.3829C24.016 10.1269 24.8267 10.8523 25.68 12.5589C26.5334 14.1803 27.0454 15.8016 27.216 17.4229C27.472 19.0443 27.2587 20.1536 26.576 20.7509C25.808 21.0069 24.9547 20.3243 24.016 18.7029C23.1627 16.9963 22.6507 15.3323 22.48 13.7109C22.3094 12.0896 22.5654 10.9803 23.248 10.3829ZM31.824 9.48694C32.5067 9.99895 32.7627 11.0656 32.592 12.6869C32.4214 14.3083 31.8667 15.9723 30.928 17.6789C30.0747 19.3003 29.264 19.9829 28.496 19.7269C27.8134 19.1296 27.5574 18.0203 27.728 16.3989C27.8987 14.7776 28.4107 13.1563 29.264 11.5349C30.2027 9.82827 31.056 9.14561 31.824 9.48694Z" fill="#FFDB00"/>
<path d="M23.248 19.7848C24.016 19.5288 24.8267 20.2541 25.68 21.9608C26.5334 23.5821 27.0454 25.2035 27.216 26.8248C27.472 28.4461 27.2587 29.5555 26.576 30.1528C25.808 30.4088 24.9547 29.7261 24.016 28.1048C23.1627 26.3981 22.6507 24.7341 22.48 23.1128C22.3094 21.4915 22.5654 20.3821 23.248 19.7848ZM31.824 18.8888C32.5067 19.4008 32.7627 20.4675 32.592 22.0888C32.4214 23.7101 31.8667 25.3741 30.928 27.0808C30.0747 28.7021 29.264 29.3848 28.496 29.1288C27.8134 28.5315 27.5574 27.4221 27.728 25.8008C27.8987 24.1795 28.4107 22.5581 29.264 20.9368C30.2027 19.2301 31.056 18.5475 31.824 18.8888Z" fill="#3A3E45"/>
<path d="M34.4625 0.981337C35.2305 0.725337 36.0412 1.45067 36.8945 3.15733C37.7478 4.77867 38.2598 6.4 38.4305 8.02133C38.6865 9.64266 38.4732 10.752 37.7905 11.3493C37.0225 11.6053 36.1692 10.9227 35.2305 9.30134C34.3772 7.59467 33.8652 5.93067 33.6945 4.30933C33.5238 2.688 33.7798 1.57867 34.4625 0.981337ZM43.0385 0.0853336C43.7212 0.597334 43.9772 1.664 43.8065 3.28533C43.6358 4.90666 43.0812 6.57067 42.1425 8.27734C41.2892 9.89867 40.4785 10.5813 39.7105 10.3253C39.0278 9.728 38.7718 8.61867 38.9425 6.99734C39.1132 5.376 39.6252 3.75466 40.4785 2.13333C41.4172 0.426663 42.2705 -0.256 43.0385 0.0853336Z" fill="#3A3E45"/>
<path d="M34.4625 10.3829C35.2305 10.1269 36.0412 10.8523 36.8945 12.5589C37.7478 14.1803 38.2598 15.8016 38.4305 17.4229C38.6865 19.0443 38.4732 20.1536 37.7905 20.7509C37.0225 21.0069 36.1692 20.3243 35.2305 18.7029C34.3772 16.9963 33.8652 15.3323 33.6945 13.7109C33.5238 12.0896 33.7798 10.9803 34.4625 10.3829ZM43.0385 9.48694C43.7212 9.99895 43.9772 11.0656 43.8065 12.6869C43.6358 14.3083 43.0812 15.9723 42.1425 17.6789C41.2892 19.3003 40.4785 19.9829 39.7105 19.7269C39.0278 19.1296 38.7718 18.0203 38.9425 16.3989C39.1132 14.7776 39.6252 13.1563 40.4785 11.5349C41.4172 9.82827 42.2705 9.14561 43.0385 9.48694Z" fill="#3A3E45"/>
<path d="M34.4625 19.7848C35.2305 19.5288 36.0412 20.2541 36.8945 21.9608C37.7478 23.5821 38.2598 25.2035 38.4305 26.8248C38.6865 28.4461 38.4732 29.5555 37.7905 30.1528C37.0225 30.4088 36.1692 29.7261 35.2305 28.1048C34.3772 26.3981 33.8652 24.7341 33.6945 23.1128C33.5238 21.4915 33.7798 20.3821 34.4625 19.7848ZM43.0385 18.8888C43.7212 19.4008 43.9772 20.4675 43.8065 22.0888C43.6358 23.7101 43.0812 25.3741 42.1425 27.0808C41.2892 28.7021 40.4785 29.3848 39.7105 29.1288C39.0278 28.5315 38.7718 27.4221 38.9425 25.8008C39.1132 24.1795 39.6252 22.5581 40.4785 20.9368C41.4172 19.2301 42.2705 18.5475 43.0385 18.8888Z" fill="#3A3E45"/>
<path d="M34.4625 29.1864C35.2305 28.9304 36.0412 29.6557 36.8945 31.3624C37.7478 32.9837 38.2598 34.6051 38.4305 36.2264C38.6865 37.8477 38.4732 38.9571 37.7905 39.5544C37.0225 39.8104 36.1692 39.1277 35.2305 37.5064C34.3772 35.7997 33.8652 34.1357 33.6945 32.5144C33.5238 30.8931 33.7798 29.7837 34.4625 29.1864ZM43.0385 28.2904C43.7212 28.8024 43.9772 29.8691 43.8065 31.4904C43.6358 33.1117 43.0812 34.7757 42.1425 36.4824C41.2892 38.1037 40.4785 38.7864 39.7105 38.5304C39.0278 37.9331 38.7718 36.8237 38.9425 35.2024C39.1132 33.5811 39.6252 31.9597 40.4785 30.3384C41.4172 28.6317 42.2705 27.9491 43.0385 28.2904Z" fill="#3A3E45"/>
</svg>
