<svg width="44" height="40" viewBox="0 0 44 40" fill="none" xmlns="http://www.w3.org/2000/svg">
<path d="M0.819202 0.981337C1.5872 0.725337 2.39787 1.45067 3.2512 3.15733C4.10453 4.77867 4.61653 6.4 4.7872 8.02133C5.0432 9.64266 4.82987 10.752 4.1472 11.3493C3.3792 11.6053 2.52587 10.9227 1.5872 9.30134C0.733867 7.59467 0.221867 5.93067 0.0512001 4.30933C-0.119467 2.688 0.136534 1.57867 0.819202 0.981337ZM9.3952 0.0853336C10.0779 0.597334 10.3339 1.664 10.1632 3.28533C9.99253 4.90666 9.43787 6.57067 8.4992 8.27734C7.64587 9.89867 6.8352 10.5813 6.0672 10.3253C5.38453 9.728 5.12853 8.61867 5.2992 6.99734C5.46987 5.376 5.98187 3.75466 6.8352 2.13333C7.77387 0.426663 8.6272 -0.256 9.3952 0.0853336Z" fill="#3A3E45"/>
<path d="M0.819202 10.3829C1.5872 10.1269 2.39787 10.8523 3.2512 12.5589C4.10453 14.1803 4.61653 15.8016 4.7872 17.4229C5.0432 19.0443 4.82987 20.1536 4.1472 20.7509C3.3792 21.0069 2.52587 20.3243 1.5872 18.7029C0.733867 16.9963 0.221867 15.3323 0.0512001 13.7109C-0.119467 12.0896 0.136534 10.9803 0.819202 10.3829ZM9.3952 9.48694C10.0779 9.99895 10.3339 11.0656 10.1632 12.6869C9.99253 14.3083 9.43787 15.9723 8.4992 17.6789C7.64587 19.3003 6.8352 19.9829 6.0672 19.7269C5.38453 19.1296 5.12853 18.0203 5.2992 16.3989C5.46987 14.7776 5.98187 13.1563 6.8352 11.5349C7.77387 9.82827 8.6272 9.14561 9.3952 9.48694Z" fill="#3A3E45"/>
<path d="M0.819202 19.7846C1.5872 19.5286 2.39787 20.2539 3.2512 21.9606C4.10453 23.5819 4.61653 25.2032 4.7872 26.8246C5.0432 28.4459 4.82987 29.5552 4.1472 30.1526C3.3792 30.4086 2.52587 29.7259 1.5872 28.1046C0.733867 26.3979 0.221867 24.7339 0.0512001 23.1126C-0.119467 21.4912 0.136534 20.3819 0.819202 19.7846ZM9.3952 18.8886C10.0779 19.4006 10.3339 20.4672 10.1632 22.0886C9.99253 23.7099 9.43787 25.3739 8.4992 27.0806C7.64587 28.7019 6.8352 29.3846 6.0672 29.1286C5.38453 28.5312 5.12853 27.4219 5.2992 25.8006C5.46987 24.1792 5.98187 22.5579 6.8352 20.9366C7.77387 19.2299 8.6272 18.5472 9.3952 18.8886Z" fill="#3A3E45"/>
<path d="M0.819202 29.1864C1.5872 28.9304 2.39787 29.6557 3.2512 31.3624C4.10453 32.9837 4.61653 34.6051 4.7872 36.2264C5.0432 37.8477 4.82987 38.9571 4.1472 39.5544C3.3792 39.8104 2.52587 39.1277 1.5872 37.5064C0.733867 35.7997 0.221867 34.1357 0.0512001 32.5144C-0.119467 30.8931 0.136534 29.7837 0.819202 29.1864ZM9.3952 28.2904C10.0779 28.8024 10.3339 29.8691 10.1632 31.4904C9.99253 33.1117 9.43787 34.7757 8.4992 36.4824C7.64587 38.1037 6.8352 38.7864 6.0672 38.5304C5.38453 37.9331 5.12853 36.8237 5.2992 35.2024C5.46987 33.5811 5.98187 31.9597 6.8352 30.3384C7.77387 28.6317 8.6272 27.9491 9.3952 28.2904Z" fill="#3A3E45"/>
<path d="M12.0337 10.3829C12.8017 10.1269 13.6123 10.8523 14.4657 12.5589C15.319 14.1803 15.831 15.8016 16.0017 17.4229C16.2577 19.0443 16.0443 20.1536 15.3617 20.7509C14.5937 21.0069 13.7403 20.3243 12.8017 18.7029C11.9483 16.9963 11.4363 15.3323 11.2657 13.7109C11.095 12.0896 11.351 10.9803 12.0337 10.3829ZM20.6097 9.48694C21.2923 9.99895 21.5483 11.0656 21.3777 12.6869C21.207 14.3083 20.6523 15.9723 19.7137 17.6789C18.8603 19.3003 18.0497 19.9829 17.2817 19.7269C16.599 19.1296 16.343 18.0203 16.5137 16.3989C16.6843 14.7776 17.1963 13.1563 18.0497 11.5349C18.9883 9.82827 19.8417 9.14561 20.6097 9.48694Z" fill="#3A3E45"/>
<path d="M12.0337 19.7846C12.8017 19.5286 13.6123 20.2539 14.4657 21.9606C15.319 23.5819 15.831 25.2032 16.0017 26.8246C16.2577 28.4459 16.0443 29.5552 15.3617 30.1526C14.5937 30.4086 13.7403 29.7259 12.8017 28.1046C11.9483 26.3979 11.4363 24.7339 11.2657 23.1126C11.095 21.4912 11.351 20.3819 12.0337 19.7846ZM20.6097 18.8886C21.2923 19.4006 21.5483 20.4672 21.3777 22.0886C21.207 23.7099 20.6523 25.3739 19.7137 27.0806C18.8603 28.7019 18.0497 29.3846 17.2817 29.1286C16.599 28.5312 16.343 27.4219 16.5137 25.8006C16.6843 24.1792 17.1963 22.5579 18.0497 20.9366C18.9883 19.2299 19.8417 18.5472 20.6097 18.8886Z" fill="#FFDB00"/>
<path d="M12.0337 29.1864C12.8017 28.9304 13.6123 29.6557 14.4657 31.3624C15.319 32.9837 15.831 34.6051 16.0017 36.2264C16.2577 37.8477 16.0443 38.9571 15.3617 39.5544C14.5937 39.8104 13.7403 39.1277 12.8017 37.5064C11.9483 35.7997 11.4363 34.1357 11.2657 32.5144C11.095 30.8931 11.351 29.7837 12.0337 29.1864ZM20.6097 28.2904C21.2923 28.8024 21.5483 29.8691 21.3777 31.4904C21.207 33.1117 20.6523 34.7757 19.7137 36.4824C18.8603 38.1037 18.0497 38.7864 17.2817 38.5304C16.599 37.9331 16.343 36.8237 16.5137 35.2024C16.6843 33.5811 17.1963 31.9597 18.0497 30.3384C18.9883 28.6317 19.8417 27.9491 20.6097 28.2904Z" fill="#3A3E45"/>
<path d="M23.248 19.7846C24.016 19.5286 24.8267 20.2539 25.68 21.9606C26.5334 23.5819 27.0454 25.2032 27.216 26.8246C27.472 28.4459 27.2587 29.5552 26.576 30.1526C25.808 30.4086 24.9547 29.7259 24.016 28.1046C23.1627 26.3979 22.6507 24.7339 22.48 23.1126C22.3094 21.4912 22.5654 20.3819 23.248 19.7846ZM31.824 18.8886C32.5067 19.4006 32.7627 20.4672 32.592 22.0886C32.4214 23.7099 31.8667 25.3739 30.928 27.0806C30.0747 28.7019 29.264 29.3846 28.496 29.1286C27.8134 28.5312 27.5574 27.4219 27.728 25.8006C27.8987 24.1792 28.4107 22.5579 29.264 20.9366C30.2027 19.2299 31.056 18.5472 31.824 18.8886Z" fill="#3A3E45"/>
<path d="M23.248 29.1864C24.016 28.9304 24.8267 29.6557 25.68 31.3624C26.5334 32.9837 27.0454 34.6051 27.216 36.2264C27.472 37.8477 27.2587 38.9571 26.576 39.5544C25.808 39.8104 24.9547 39.1277 24.016 37.5064C23.1627 35.7997 22.6507 34.1357 22.48 32.5144C22.3094 30.8931 22.5654 29.7837 23.248 29.1864ZM31.824 28.2904C32.5067 28.8024 32.7627 29.8691 32.592 31.4904C32.4214 33.1117 31.8667 34.7757 30.928 36.4824C30.0747 38.1037 29.264 38.7864 28.496 38.5304C27.8134 37.9331 27.5574 36.8237 27.728 35.2024C27.8987 33.5811 28.4107 31.9597 29.264 30.3384C30.2027 28.6317 31.056 27.9491 31.824 28.2904Z" fill="#3A3E45"/>
<path d="M34.4625 29.1864C35.2305 28.9304 36.0412 29.6557 36.8945 31.3624C37.7478 32.9837 38.2598 34.6051 38.4305 36.2264C38.6865 37.8477 38.4732 38.9571 37.7905 39.5544C37.0225 39.8104 36.1692 39.1277 35.2305 37.5064C34.3772 35.7997 33.8652 34.1357 33.6945 32.5144C33.5238 30.8931 33.7798 29.7837 34.4625 29.1864ZM43.0385 28.2904C43.7212 28.8024 43.9772 29.8691 43.8065 31.4904C43.6358 33.1117 43.0812 34.7757 42.1425 36.4824C41.2892 38.1037 40.4785 38.7864 39.7105 38.5304C39.0278 37.9331 38.7718 36.8237 38.9425 35.2024C39.1132 33.5811 39.6252 31.9597 40.4785 30.3384C41.4172 28.6317 42.2705 27.9491 43.0385 28.2904Z" fill="#3A3E45"/>
</svg>
