<svg width="344" height="103" viewBox="0 0 344 103" fill="none" xmlns="http://www.w3.org/2000/svg">
<g filter="url(#filter0_d_251_12360)">
<path d="M288.589 88.4053C289.357 88.1493 290.168 88.8747 291.021 90.5813C291.96 92.2027 292.515 93.824 292.685 95.4453C292.856 97.0667 292.6 98.176 291.917 98.7733C291.149 99.0293 290.339 98.3467 289.485 96.7253C288.632 95.0187 288.12 93.3547 287.949 91.7333C287.779 90.112 287.992 89.0027 288.589 88.4053ZM297.293 87.5093C297.976 88.0213 298.189 89.088 297.933 90.7093C297.763 92.3307 297.251 93.9947 296.397 95.7013C295.544 97.3227 294.733 98.0053 293.965 97.7493C293.283 97.152 293.027 96.0427 293.197 94.4213C293.368 92.8 293.88 91.1787 294.733 89.5573C295.672 87.8507 296.525 87.168 297.293 87.5093ZM288.589 78.6773C289.357 78.4213 290.168 79.1467 291.021 80.8533C291.96 82.4747 292.515 84.096 292.685 85.7173C292.856 87.3387 292.6 88.448 291.917 89.0453C291.491 89.216 290.979 89.0027 290.381 88.4053C289.869 87.808 289.4 87.04 288.973 86.1013C288.632 85.0773 288.333 84.0533 288.077 83.0293C287.821 82.0053 287.736 81.0667 287.821 80.2133C287.907 79.36 288.163 78.848 288.589 78.6773ZM297.293 77.7813C297.976 78.2933 298.189 79.4027 297.933 81.1093C297.763 82.7307 297.251 84.352 296.397 85.9733C295.544 87.5947 294.733 88.2773 293.965 88.0213C293.283 87.5093 293.027 86.4427 293.197 84.8213C293.368 83.1147 293.88 81.4507 294.733 79.8293C295.672 78.1227 296.525 77.44 297.293 77.7813ZM278.221 78.6773C278.989 78.4213 279.8 79.1467 280.653 80.8533C281.507 82.4747 282.019 84.096 282.189 85.7173C282.445 87.3387 282.232 88.448 281.549 89.0453C280.611 89.3867 279.672 88.448 278.733 86.2293C277.283 82.9867 276.941 80.64 277.709 79.1893C277.795 78.9333 277.965 78.7627 278.221 78.6773ZM286.797 77.7813C287.48 78.2933 287.736 79.4027 287.565 81.1093C287.395 82.7307 286.84 84.352 285.901 85.9733C285.048 87.5947 284.237 88.2773 283.469 88.0213C282.787 87.5093 282.531 86.4427 282.701 84.8213C282.957 83.1147 283.512 81.4507 284.365 79.8293C285.219 78.1227 286.029 77.44 286.797 77.7813ZM299.085 68.9493C299.512 68.7787 299.981 68.992 300.493 69.5893C301.091 70.1867 301.56 70.9973 301.901 72.0213C302.328 72.96 302.669 73.9413 302.925 74.9653C303.181 75.9893 303.267 76.928 303.181 77.7813C303.096 78.6347 302.84 79.1467 302.413 79.3173C301.645 79.5733 300.792 78.8907 299.853 77.2693C299 75.5627 298.488 73.8987 298.317 72.2773C298.147 70.656 298.403 69.5467 299.085 68.9493ZM307.661 68.0533C308.344 68.5653 308.6 69.6747 308.429 71.3813C308.259 73.0027 307.704 74.6667 306.765 76.3733C305.912 77.9947 305.101 78.6347 304.333 78.2933C303.651 77.7813 303.395 76.7147 303.565 75.0933C303.821 73.3867 304.376 71.7227 305.229 70.1013C306.083 68.3947 306.893 67.712 307.661 68.0533ZM288.589 68.9493C288.931 68.864 289.272 68.992 289.613 69.3333C290.04 69.5893 290.424 70.016 290.765 70.6133C291.107 71.1253 291.405 71.7227 291.661 72.4053C292.003 73.088 292.259 73.8133 292.429 74.5813C292.6 75.3493 292.685 76.0747 292.685 76.7573C292.771 77.3547 292.728 77.9093 292.557 78.4213C292.472 78.848 292.259 79.1467 291.917 79.3173C291.149 79.5733 290.339 78.8907 289.485 77.2693C288.632 75.5627 288.12 73.8987 287.949 72.2773C287.779 70.656 287.992 69.5467 288.589 68.9493ZM297.293 68.0533C297.976 68.5653 298.189 69.6747 297.933 71.3813C297.763 73.0027 297.251 74.6667 296.397 76.3733C295.544 77.9947 294.733 78.6347 293.965 78.2933C293.283 77.7813 293.027 76.7147 293.197 75.0933C293.368 73.3867 293.88 71.7227 294.733 70.1013C295.672 68.3947 296.525 67.712 297.293 68.0533ZM278.221 68.9493C278.563 68.864 278.904 68.992 279.245 69.3333C279.672 69.5893 280.013 70.016 280.269 70.6133C280.611 71.1253 280.909 71.7227 281.165 72.4053C281.507 73.088 281.763 73.8133 281.933 74.5813C282.104 75.3493 282.232 76.0747 282.317 76.7573C282.403 77.3547 282.36 77.9093 282.189 78.4213C282.104 78.848 281.891 79.1467 281.549 79.3173C280.781 79.5733 279.928 78.8907 278.989 77.2693C278.136 75.5627 277.624 73.8987 277.453 72.2773C277.283 70.656 277.539 69.5467 278.221 68.9493ZM286.797 68.0533C287.48 68.5653 287.736 69.6747 287.565 71.3813C287.395 73.0027 286.84 74.6667 285.901 76.3733C285.048 77.9947 284.237 78.6347 283.469 78.2933C282.787 77.7813 282.531 76.7147 282.701 75.0933C282.957 73.3867 283.512 71.7227 284.365 70.1013C285.219 68.3947 286.029 67.712 286.797 68.0533ZM299.085 59.3493C299.853 59.008 300.664 59.6907 301.517 61.3973C302.371 63.0187 302.883 64.6827 303.053 66.3893C303.309 68.0107 303.096 69.0773 302.413 69.5893C301.987 69.76 301.475 69.5467 300.877 68.9493C300.365 68.352 299.896 67.584 299.469 66.6453C299.128 65.6213 298.829 64.5973 298.573 63.5733C298.317 62.5493 298.232 61.6533 298.317 60.8853C298.403 60.032 298.659 59.52 299.085 59.3493ZM307.661 58.3253C308.344 58.8373 308.6 59.9467 308.429 61.6533C308.259 63.2747 307.704 64.9387 306.765 66.6453C305.912 68.2667 305.101 68.9067 304.333 68.5653C303.651 68.0533 303.395 66.9867 303.565 65.3653C303.821 63.6587 304.376 61.9947 305.229 60.3733C306.083 58.752 306.893 58.0693 307.661 58.3253ZM278.221 59.3493C278.989 59.008 279.8 59.6907 280.653 61.3973C281.507 63.0187 282.019 64.6827 282.189 66.3893C282.445 68.0107 282.232 69.0773 281.549 69.5893C281.037 69.76 280.525 69.5467 280.013 68.9493C279.501 68.352 279.032 67.584 278.605 66.6453C278.179 65.6213 277.837 64.5973 277.581 63.5733C277.411 62.5493 277.368 61.6533 277.453 60.8853C277.539 60.032 277.795 59.52 278.221 59.3493ZM286.797 58.3253C287.48 58.8373 287.736 59.9467 287.565 61.6533C287.395 63.2747 286.84 64.9387 285.901 66.6453C285.048 68.2667 284.237 68.9067 283.469 68.5653C282.787 68.0533 282.531 66.9867 282.701 65.3653C282.957 63.6587 283.512 61.9947 284.365 60.3733C285.219 58.752 286.029 58.0693 286.797 58.3253ZM267.725 59.3493C268.493 59.008 269.304 59.6907 270.157 61.3973C271.096 63.0187 271.651 64.6827 271.821 66.3893C271.992 68.0107 271.736 69.0773 271.053 69.5893C270.627 69.76 270.115 69.5467 269.517 68.9493C269.005 68.352 268.536 67.584 268.109 66.6453C267.768 65.6213 267.469 64.5973 267.213 63.5733C266.957 62.5493 266.872 61.6533 266.957 60.8853C267.043 60.032 267.299 59.52 267.725 59.3493ZM276.429 58.3253C277.112 58.8373 277.325 59.9467 277.069 61.6533C276.899 63.2747 276.344 64.9387 275.405 66.6453C274.552 68.2667 273.784 68.9067 273.101 68.5653C272.419 68.0533 272.163 66.9867 272.333 65.3653C272.504 63.6587 273.016 61.9947 273.869 60.3733C274.808 58.752 275.661 58.0693 276.429 58.3253ZM267.725 39.8933C268.493 39.552 269.304 40.2347 270.157 41.9413C271.096 43.5627 271.651 45.2267 271.821 46.9333C271.992 48.5547 271.736 49.6213 271.053 50.1333C270.285 50.4747 269.475 49.8347 268.621 48.2133C267.768 46.5067 267.213 44.8427 266.957 43.2213C266.787 41.5147 267.043 40.4053 267.725 39.8933ZM276.429 38.8693C277.112 39.4667 277.325 40.576 277.069 42.1973C276.899 43.8187 276.344 45.4827 275.405 47.1893C274.552 48.8107 273.784 49.4933 273.101 49.2373C272.419 48.64 272.163 47.5307 272.333 45.9093C272.504 44.288 273.016 42.6667 273.869 41.0453C274.808 39.3387 275.661 38.6133 276.429 38.8693ZM319.949 30.1653C320.717 29.9093 321.528 30.6347 322.381 32.3413C323.32 33.9627 323.875 35.584 324.045 37.2053C324.216 38.8267 323.96 39.8933 323.277 40.4053C322.509 40.7467 321.656 40.1067 320.717 38.4853C319.864 36.7787 319.352 35.1147 319.181 33.4933C319.011 31.7867 319.267 30.6773 319.949 30.1653ZM326.989 29.7813C327.587 29.184 328.099 28.9707 328.525 29.1413C329.037 29.312 329.336 29.824 329.421 30.6773C329.507 31.5307 329.421 32.4693 329.165 33.4933C328.909 34.5173 328.568 35.5413 328.141 36.5653C327.715 37.504 327.245 38.272 326.733 38.8693C326.221 39.4667 325.709 39.68 325.197 39.5093C324.771 39.3387 324.515 38.8267 324.429 37.9733C324.344 37.12 324.429 36.1813 324.685 35.1573C324.941 34.1333 325.24 33.152 325.581 32.2133C326.008 31.1893 326.477 30.3787 326.989 29.7813ZM309.581 30.1653C310.264 29.9093 311.032 30.6347 311.885 32.3413C312.824 33.9627 313.379 35.584 313.549 37.2053C313.72 38.8267 313.464 39.8933 312.781 40.4053C312.099 40.7467 311.288 40.1067 310.349 38.4853C309.496 36.7787 308.984 35.1147 308.813 33.4933C308.643 31.7867 308.899 30.6773 309.581 30.1653ZM318.157 29.1413C318.84 29.7387 319.053 30.848 318.797 32.4693C318.627 34.0907 318.115 35.7547 317.261 37.4613C316.408 39.0827 315.597 39.7653 314.829 39.5093C314.147 38.912 313.891 37.8027 314.061 36.1813C314.232 34.56 314.744 32.9387 315.597 31.3173C316.536 29.6107 317.389 28.8853 318.157 29.1413ZM309.581 39.8933C310.264 39.552 311.032 40.2347 311.885 41.9413C312.824 43.5627 313.379 45.2267 313.549 46.9333C313.72 48.5547 313.464 49.6213 312.781 50.1333C312.099 50.4747 311.288 49.8347 310.349 48.2133C309.496 46.5067 308.984 44.8427 308.813 43.2213C308.643 41.5147 308.899 40.4053 309.581 39.8933ZM318.157 38.8693C318.84 39.4667 319.053 40.576 318.797 42.1973C318.627 43.8187 318.115 45.4827 317.261 47.1893C316.408 48.8107 315.597 49.4933 314.829 49.2373C314.147 48.64 313.891 47.5307 314.061 45.9093C314.232 44.288 314.744 42.6667 315.597 41.0453C316.536 39.3387 317.389 38.6133 318.157 38.8693ZM319.949 20.4373C320.717 20.1813 321.528 20.9067 322.381 22.6133C323.32 24.2347 323.875 25.856 324.045 27.4773C324.216 29.0987 323.96 30.208 323.277 30.8053C322.509 31.0613 321.656 30.3787 320.717 28.7573C319.864 27.0507 319.352 25.3867 319.181 23.7653C319.011 22.144 319.267 21.0347 319.949 20.4373ZM326.989 20.0533C327.587 19.456 328.099 19.2853 328.525 19.5413C329.037 19.712 329.336 20.224 329.421 21.0773C329.507 21.8453 329.421 22.7413 329.165 23.7653C328.909 24.7893 328.568 25.8133 328.141 26.8373C327.715 27.776 327.245 28.544 326.733 29.1413C326.221 29.7387 325.709 29.952 325.197 29.7813C324.771 29.6107 324.515 29.0987 324.429 28.2453C324.344 27.392 324.429 26.4533 324.685 25.4293C324.941 24.4053 325.24 23.424 325.581 22.4853C326.008 21.4613 326.477 20.6507 326.989 20.0533ZM319.949 10.7093C320.717 10.4533 321.528 11.1787 322.381 12.8853C323.32 14.5067 323.875 16.128 324.045 17.7493C324.216 19.3707 323.96 20.48 323.277 21.0773C322.851 21.248 322.339 21.0347 321.741 20.4373C321.229 19.84 320.76 19.072 320.333 18.1333C319.992 17.1093 319.693 16.0853 319.437 15.0613C319.181 14.0373 319.096 13.0987 319.181 12.2453C319.267 11.392 319.523 10.88 319.949 10.7093ZM326.989 10.4533C327.587 9.856 328.099 9.64267 328.525 9.81333C329.037 9.984 329.336 10.496 329.421 11.3493C329.507 12.1173 329.421 13.0133 329.165 14.0373C328.909 15.0613 328.568 16.0853 328.141 17.1093C327.715 18.048 327.245 18.816 326.733 19.4133C326.221 20.0107 325.709 20.224 325.197 20.0533C324.771 19.8827 324.515 19.4133 324.429 18.6453C324.344 17.792 324.429 16.8533 324.685 15.8293C324.941 14.72 325.24 13.696 325.581 12.7573C326.008 11.7333 326.477 10.9653 326.989 10.4533ZM330.445 0.98133C331.128 0.725333 331.896 1.45067 332.749 3.15733C333.688 4.77867 334.243 6.4 334.413 8.02133C334.584 9.64266 334.371 10.752 333.773 11.3493C333.005 11.6053 332.152 10.9227 331.213 9.30133C330.36 7.59466 329.848 5.93067 329.677 4.30933C329.507 2.688 329.763 1.57867 330.445 0.98133ZM339.021 0.0853337C339.704 0.597332 339.96 1.70666 339.789 3.41333C339.619 5.03467 339.064 6.69867 338.125 8.40533C337.272 10.0267 336.461 10.6667 335.693 10.3253C335.011 9.81333 334.755 8.74667 334.925 7.12533C335.096 5.41866 335.608 3.75466 336.461 2.13333C337.4 0.426665 338.253 -0.256 339.021 0.0853337ZM309.581 0.98133C310.264 0.725333 311.032 1.45067 311.885 3.15733C312.824 4.77867 313.379 6.4 313.549 8.02133C313.72 9.64266 313.464 10.752 312.781 11.3493C312.099 11.6053 311.288 10.9227 310.349 9.30133C309.496 7.59466 308.984 5.93067 308.813 4.30933C308.643 2.688 308.899 1.57867 309.581 0.98133ZM318.157 0.0853337C318.84 0.597332 319.053 1.70666 318.797 3.41333C318.627 5.03467 318.115 6.69867 317.261 8.40533C316.408 10.0267 315.597 10.6667 314.829 10.3253C314.147 9.81333 313.891 8.74667 314.061 7.12533C314.232 5.41866 314.744 3.75466 315.597 2.13333C316.536 0.426665 317.389 -0.256 318.157 0.0853337ZM319.949 0.98133C320.717 0.725333 321.528 1.45067 322.381 3.15733C323.32 4.77867 323.875 6.4 324.045 8.02133C324.216 9.64266 323.96 10.752 323.277 11.3493C322.509 11.6053 321.656 10.9227 320.717 9.30133C319.864 7.59466 319.352 5.93067 319.181 4.30933C319.011 2.688 319.267 1.57867 319.949 0.98133ZM328.525 0.0853337C329.208 0.597332 329.464 1.70666 329.293 3.41333C329.123 5.03467 328.568 6.69867 327.629 8.40533C326.776 10.0267 325.965 10.6667 325.197 10.3253C324.515 9.81333 324.259 8.74667 324.429 7.12533C324.685 5.41866 325.24 3.75466 326.093 2.13333C327.032 0.426665 327.843 -0.256 328.525 0.0853337ZM309.581 49.6213C310.264 49.28 311.032 49.9627 311.885 51.6693C312.824 53.2907 313.379 54.9547 313.549 56.6613C313.72 58.2827 313.464 59.3493 312.781 59.8613C312.099 60.2027 311.288 59.5627 310.349 57.9413C309.496 56.2347 308.984 54.5707 308.813 52.9493C308.643 51.2427 308.899 50.1333 309.581 49.6213ZM318.157 48.5973C318.84 49.1093 319.053 50.2187 318.797 51.9253C318.627 53.5467 318.115 55.2107 317.261 56.9173C316.408 58.5387 315.597 59.1787 314.829 58.8373C314.147 58.3253 313.891 57.2587 314.061 55.6373C314.232 54.016 314.744 52.3947 315.597 50.7733C316.536 49.0667 317.389 48.3413 318.157 48.5973ZM299.085 49.6213C299.853 49.28 300.664 49.9627 301.517 51.6693C302.456 53.2907 303.011 54.9547 303.181 56.6613C303.352 58.2827 303.096 59.3493 302.413 59.8613C301.645 60.2027 300.792 59.5627 299.853 57.9413C299 56.2347 298.488 54.5707 298.317 52.9493C298.147 51.2427 298.403 50.1333 299.085 49.6213ZM307.661 48.5973C308.344 49.1093 308.6 50.2187 308.429 51.9253C308.259 53.5467 307.704 55.2107 306.765 56.9173C305.912 58.5387 305.101 59.1787 304.333 58.8373C303.651 58.3253 303.395 57.2587 303.565 55.6373C303.821 54.016 304.376 52.3947 305.229 50.7733C306.168 49.0667 306.979 48.3413 307.661 48.5973ZM278.221 49.6213C278.989 49.28 279.8 49.9627 280.653 51.6693C281.507 53.2907 282.019 54.9547 282.189 56.6613C282.445 58.2827 282.232 59.3493 281.549 59.8613C280.781 60.2027 279.928 59.5627 278.989 57.9413C278.136 56.2347 277.624 54.5707 277.453 52.9493C277.283 51.2427 277.539 50.1333 278.221 49.6213ZM286.797 48.5973C287.48 49.1093 287.736 50.2187 287.565 51.9253C287.395 53.5467 286.84 55.2107 285.901 56.9173C285.048 58.5387 284.237 59.1787 283.469 58.8373C282.787 58.3253 282.531 57.2587 282.701 55.6373C282.957 54.016 283.512 52.3947 284.365 50.7733C285.219 49.0667 286.029 48.3413 286.797 48.5973ZM267.725 49.6213C268.493 49.28 269.304 49.9627 270.157 51.6693C271.096 53.2907 271.651 54.9547 271.821 56.6613C271.992 58.2827 271.736 59.3493 271.053 59.8613C270.285 60.2027 269.475 59.5627 268.621 57.9413C267.768 56.2347 267.213 54.5707 266.957 52.9493C266.787 51.2427 267.043 50.1333 267.725 49.6213ZM276.429 48.5973C277.112 49.1093 277.325 50.2187 277.069 51.9253C276.899 53.5467 276.344 55.2107 275.405 56.9173C274.552 58.5387 273.784 59.1787 273.101 58.8373C272.419 58.3253 272.163 57.2587 272.333 55.6373C272.504 54.016 273.016 52.3947 273.869 50.7733C274.808 49.0667 275.661 48.3413 276.429 48.5973ZM246.861 88.4053C247.629 88.1493 248.44 88.8747 249.293 90.5813C250.232 92.2027 250.787 93.824 250.957 95.4453C251.128 97.0667 250.872 98.176 250.189 98.7733C249.421 99.0293 248.611 98.3467 247.757 96.7253C246.904 95.0187 246.349 93.3547 246.093 91.7333C245.923 90.112 246.179 89.0027 246.861 88.4053ZM255.565 87.5093C256.163 88.0213 256.376 89.088 256.205 90.7093C256.035 92.3307 255.48 93.9947 254.541 95.7013C253.688 97.3227 252.877 98.0053 252.109 97.7493C251.512 97.152 251.299 96.0427 251.469 94.4213C251.64 92.8 252.152 91.1787 253.005 89.5573C253.944 87.8507 254.797 87.168 255.565 87.5093ZM246.861 78.6773C247.629 78.4213 248.44 79.1467 249.293 80.8533C250.232 82.4747 250.787 84.096 250.957 85.7173C251.128 87.3387 250.872 88.448 250.189 89.0453C249.763 89.216 249.251 89.0027 248.653 88.4053C248.141 87.808 247.672 87.04 247.245 86.1013C246.904 85.0773 246.605 84.0533 246.349 83.0293C246.093 82.0053 246.008 81.0667 246.093 80.2133C246.179 79.36 246.435 78.848 246.861 78.6773ZM255.565 77.7813C256.163 78.2933 256.376 79.4027 256.205 81.1093C256.035 82.7307 255.48 84.352 254.541 85.9733C253.688 87.5947 252.877 88.2773 252.109 88.0213C251.512 87.5093 251.299 86.4427 251.469 84.8213C251.64 83.1147 252.152 81.4507 253.005 79.8293C253.944 78.1227 254.797 77.44 255.565 77.7813ZM236.493 78.6773C237.261 78.4213 238.072 79.1467 238.925 80.8533C239.779 82.4747 240.291 84.096 240.461 85.7173C240.632 87.3387 240.419 88.448 239.821 89.0453C239.309 89.216 238.797 89.0027 238.285 88.4053C237.773 87.808 237.304 87.04 236.877 86.1013C236.451 85.0773 236.109 84.0533 235.853 83.0293C235.597 82.0053 235.512 81.0667 235.597 80.2133C235.683 79.36 235.981 78.848 236.493 78.6773ZM245.069 77.7813C245.752 78.2933 246.008 79.4027 245.837 81.1093C245.667 82.7307 245.112 84.352 244.173 85.9733C243.32 87.5947 242.509 88.2773 241.741 88.0213C241.059 87.5093 240.803 86.4427 240.973 84.8213C241.144 83.1147 241.656 81.4507 242.509 79.8293C243.448 78.1227 244.301 77.44 245.069 77.7813ZM257.357 68.9493C257.784 68.7787 258.253 68.992 258.765 69.5893C259.363 70.1867 259.832 70.9973 260.173 72.0213C260.6 72.96 260.941 73.9413 261.197 74.9653C261.453 75.9893 261.539 76.928 261.453 77.7813C261.368 78.6347 261.112 79.1467 260.685 79.3173C259.917 79.5733 259.064 78.8907 258.125 77.2693C257.272 75.5627 256.76 73.8987 256.589 72.2773C256.419 70.656 256.675 69.5467 257.357 68.9493ZM265.933 68.0533C266.616 68.5653 266.872 69.6747 266.701 71.3813C266.531 73.0027 265.976 74.6667 265.037 76.3733C264.184 77.9947 263.373 78.6347 262.605 78.2933C261.923 77.7813 261.667 76.7147 261.837 75.0933C262.093 73.3867 262.648 71.7227 263.501 70.1013C264.355 68.3947 265.165 67.712 265.933 68.0533ZM246.861 68.9493C247.373 68.7787 247.885 68.992 248.397 69.5893C248.909 70.1867 249.336 70.9973 249.677 72.0213C250.104 72.96 250.445 73.9413 250.701 74.9653C250.957 75.9893 251.043 76.928 250.957 77.7813C250.872 78.6347 250.616 79.1467 250.189 79.3173C249.421 79.5733 248.611 78.8907 247.757 77.2693C246.904 75.5627 246.349 73.8987 246.093 72.2773C245.923 70.656 246.179 69.5467 246.861 68.9493ZM255.565 68.0533C256.163 68.5653 256.376 69.6747 256.205 71.3813C256.035 73.0027 255.48 74.6667 254.541 76.3733C253.688 77.9947 252.877 78.6347 252.109 78.2933C251.512 77.7813 251.299 76.7147 251.469 75.0933C251.64 73.3867 252.152 71.7227 253.005 70.1013C253.944 68.3947 254.797 67.712 255.565 68.0533ZM236.493 68.9493C236.92 68.7787 237.389 68.992 237.901 69.5893C238.499 70.1867 238.968 70.9973 239.309 72.0213C239.736 72.96 240.077 73.9413 240.333 74.9653C240.589 75.9893 240.675 76.928 240.589 77.7813C240.504 78.6347 240.248 79.1467 239.821 79.3173C239.053 79.5733 238.2 78.8907 237.261 77.2693C236.408 75.5627 235.896 73.8987 235.725 72.2773C235.555 70.656 235.811 69.5467 236.493 68.9493ZM245.069 68.0533C245.752 68.5653 246.008 69.6747 245.837 71.3813C245.667 73.0027 245.112 74.6667 244.173 76.3733C243.32 77.9947 242.509 78.6347 241.741 78.2933C241.059 77.7813 240.803 76.7147 240.973 75.0933C241.144 73.3867 241.656 71.7227 242.509 70.1013C243.448 68.3947 244.301 67.712 245.069 68.0533ZM257.357 59.3493C258.125 59.008 258.936 59.6907 259.789 61.3973C260.643 63.0187 261.155 64.6827 261.325 66.3893C261.581 68.0107 261.368 69.0773 260.685 69.5893C260.173 69.76 259.661 69.5467 259.149 68.9493C258.637 68.352 258.168 67.584 257.741 66.6453C257.315 65.6213 256.973 64.5973 256.717 63.5733C256.461 62.5493 256.376 61.6533 256.461 60.8853C256.547 60.032 256.845 59.52 257.357 59.3493ZM265.933 58.3253C266.616 58.8373 266.872 59.9467 266.701 61.6533C266.531 63.2747 265.976 64.9387 265.037 66.6453C264.184 68.2667 263.373 68.9067 262.605 68.5653C261.923 68.0533 261.667 66.9867 261.837 65.3653C262.093 63.6587 262.648 61.9947 263.501 60.3733C264.355 58.752 265.165 58.0693 265.933 58.3253ZM236.493 59.3493C237.261 59.008 238.072 59.6907 238.925 61.3973C239.779 63.0187 240.291 64.6827 240.461 66.3893C240.632 68.0107 240.419 69.0773 239.821 69.5893C239.309 69.76 238.797 69.5467 238.285 68.9493C237.773 68.352 237.304 67.584 236.877 66.6453C236.451 65.6213 236.109 64.5973 235.853 63.5733C235.597 62.5493 235.512 61.6533 235.597 60.8853C235.683 60.032 235.981 59.52 236.493 59.3493ZM245.069 58.3253C245.752 58.8373 246.008 59.9467 245.837 61.6533C245.667 63.2747 245.112 64.9387 244.173 66.6453C243.32 68.2667 242.509 68.9067 241.741 68.5653C241.059 68.0533 240.803 66.9867 240.973 65.3653C241.144 63.6587 241.656 61.9947 242.509 60.3733C243.448 58.752 244.301 58.0693 245.069 58.3253ZM225.997 59.3493C226.765 59.008 227.576 59.6907 228.429 61.3973C229.368 63.0187 229.923 64.6827 230.093 66.3893C230.264 68.0107 230.008 69.0773 229.325 69.5893C228.899 69.76 228.387 69.5467 227.789 68.9493C227.277 68.352 226.808 67.584 226.381 66.6453C226.04 65.6213 225.741 64.5973 225.485 63.5733C225.229 62.5493 225.144 61.6533 225.229 60.8853C225.315 60.032 225.571 59.52 225.997 59.3493ZM234.701 58.3253C235.299 58.8373 235.512 59.9467 235.341 61.6533C235.171 63.2747 234.616 64.9387 233.677 66.6453C232.824 68.2667 232.013 68.9067 231.245 68.5653C230.648 68.0533 230.435 66.9867 230.605 65.3653C230.776 63.6587 231.288 61.9947 232.141 60.3733C233.08 58.752 233.933 58.0693 234.701 58.3253ZM225.997 39.8933C226.765 39.552 227.576 40.2347 228.429 41.9413C229.368 43.5627 229.923 45.2267 230.093 46.9333C230.264 48.5547 230.008 49.6213 229.325 50.1333C228.557 50.4747 227.704 49.8347 226.765 48.2133C225.912 46.5067 225.4 44.8427 225.229 43.2213C225.059 41.5147 225.315 40.4053 225.997 39.8933ZM234.701 38.8693C235.299 39.4667 235.512 40.576 235.341 42.1973C235.171 43.8187 234.616 45.4827 233.677 47.1893C232.824 48.8107 232.013 49.4933 231.245 49.2373C230.648 48.64 230.435 47.5307 230.605 45.9093C230.776 44.288 231.288 42.6667 232.141 41.0453C233.08 39.3387 233.933 38.6133 234.701 38.8693ZM215.629 39.8933C216.312 39.552 217.08 40.2347 217.933 41.9413C218.872 43.5627 219.427 45.2267 219.597 46.9333C219.768 48.5547 219.555 49.6213 218.957 50.1333C218.189 50.4747 217.336 49.8347 216.397 48.2133C215.544 46.5067 215.032 44.8427 214.861 43.2213C214.691 41.5147 214.947 40.4053 215.629 39.8933ZM224.205 38.8693C224.888 39.4667 225.144 40.576 224.973 42.1973C224.803 43.8187 224.248 45.4827 223.309 47.1893C222.456 48.8107 221.645 49.4933 220.877 49.2373C220.451 49.0667 220.195 48.5547 220.109 47.7013C220.024 46.848 220.109 45.9093 220.365 44.8853C220.621 43.8613 220.92 42.88 221.261 41.9413C221.688 40.9173 222.157 40.1067 222.669 39.5093C223.267 38.912 223.779 38.6987 224.205 38.8693ZM225.997 30.1653C226.765 29.9093 227.576 30.6347 228.429 32.3413C229.368 33.9627 229.923 35.584 230.093 37.2053C230.264 38.8267 230.008 39.8933 229.325 40.4053C228.557 40.7467 227.704 40.1067 226.765 38.4853C225.912 36.7787 225.4 35.1147 225.229 33.4933C225.059 31.7867 225.315 30.6773 225.997 30.1653ZM234.701 29.1413C235.299 29.7387 235.512 30.848 235.341 32.4693C235.171 34.0907 234.616 35.7547 233.677 37.4613C232.824 39.0827 232.013 39.7653 231.245 39.5093C230.648 38.912 230.435 37.8027 230.605 36.1813C230.776 34.56 231.288 32.9387 232.141 31.3173C233.08 29.6107 233.933 28.8853 234.701 29.1413ZM215.629 30.1653C216.312 29.9093 217.08 30.6347 217.933 32.3413C218.872 33.9627 219.427 35.584 219.597 37.2053C219.768 38.8267 219.555 39.8933 218.957 40.4053C218.189 40.7467 217.336 40.1067 216.397 38.4853C215.544 36.7787 215.032 35.1147 214.861 33.4933C214.691 31.7867 214.947 30.6773 215.629 30.1653ZM224.205 29.1413C224.888 29.7387 225.144 30.848 224.973 32.4693C224.803 34.0907 224.248 35.7547 223.309 37.4613C222.456 39.0827 221.645 39.7653 220.877 39.5093C220.451 39.3387 220.195 38.8267 220.109 37.9733C220.024 37.12 220.109 36.1813 220.365 35.1573C220.621 34.1333 220.92 33.152 221.261 32.2133C221.688 31.1893 222.157 30.3787 222.669 29.7813C223.267 29.184 223.779 28.9707 224.205 29.1413ZM215.629 20.4373C216.312 20.1813 217.08 20.9067 217.933 22.6133C218.872 24.2347 219.427 25.856 219.597 27.4773C219.768 29.0987 219.555 30.208 218.957 30.8053C218.189 31.0613 217.336 30.3787 216.397 28.7573C215.544 27.0507 215.032 25.3867 214.861 23.7653C214.691 22.144 214.947 21.0347 215.629 20.4373ZM224.205 19.5413C224.888 20.0533 225.144 21.12 224.973 22.7413C224.803 24.3627 224.248 26.0267 223.309 27.7333C222.456 29.3547 221.645 30.0373 220.877 29.7813C220.451 29.6107 220.195 29.0987 220.109 28.2453C220.024 27.392 220.109 26.4533 220.365 25.4293C220.621 24.4053 220.92 23.424 221.261 22.4853C221.688 21.4613 222.157 20.6507 222.669 20.0533C223.267 19.456 223.779 19.2853 224.205 19.5413ZM205.133 20.4373C205.901 20.1813 206.712 20.9067 207.565 22.6133C208.504 24.2347 209.059 25.856 209.229 27.4773C209.4 29.0987 209.144 30.208 208.461 30.8053C207.693 31.0613 206.84 30.3787 205.901 28.7573C205.048 27.0507 204.536 25.3867 204.365 23.7653C204.195 22.144 204.451 21.0347 205.133 20.4373ZM213.709 19.5413C214.392 20.0533 214.648 21.12 214.477 22.7413C214.307 24.3627 213.752 26.0267 212.813 27.7333C211.96 29.3547 211.149 30.0373 210.381 29.7813C209.699 29.184 209.443 28.0747 209.613 26.4533C209.869 24.832 210.424 23.2107 211.277 21.5893C212.216 19.8827 213.027 19.2 213.709 19.5413ZM215.629 10.7093C216.312 10.4533 217.08 11.1787 217.933 12.8853C218.872 14.5067 219.427 16.128 219.597 17.7493C219.768 19.3707 219.555 20.48 218.957 21.0773C218.445 21.248 217.891 21.0347 217.293 20.4373C216.781 19.84 216.312 19.072 215.885 18.1333C215.544 17.1093 215.245 16.0853 214.989 15.0613C214.733 14.0373 214.648 13.0987 214.733 12.2453C214.819 11.392 215.117 10.88 215.629 10.7093ZM224.205 9.81333C224.888 10.3253 225.144 11.4347 224.973 13.1413C224.803 14.7627 224.248 16.384 223.309 18.0053C222.456 19.6267 221.645 20.3093 220.877 20.0533C220.451 19.8827 220.195 19.4133 220.109 18.6453C220.024 17.792 220.109 16.8533 220.365 15.8293C220.621 14.72 220.92 13.696 221.261 12.7573C221.688 11.7333 222.157 10.9653 222.669 10.4533C223.267 9.856 223.779 9.64267 224.205 9.81333ZM205.133 10.7093C205.901 10.4533 206.712 11.1787 207.565 12.8853C208.504 14.5067 209.059 16.128 209.229 17.7493C209.4 19.3707 209.144 20.48 208.461 21.0773C208.035 21.248 207.523 21.0347 206.925 20.4373C206.413 19.84 205.944 19.072 205.517 18.1333C205.176 17.1093 204.877 16.0853 204.621 15.0613C204.365 14.0373 204.28 13.0987 204.365 12.2453C204.451 11.392 204.707 10.88 205.133 10.7093ZM213.709 9.81333C214.392 10.3253 214.648 11.4347 214.477 13.1413C214.307 14.7627 213.752 16.384 212.813 18.0053C211.96 19.6267 211.149 20.3093 210.381 20.0533C209.699 19.5413 209.443 18.4747 209.613 16.8533C209.869 15.1467 210.424 13.4827 211.277 11.8613C212.216 10.1547 213.027 9.472 213.709 9.81333ZM215.629 0.98133C216.312 0.725333 217.08 1.45067 217.933 3.15733C218.872 4.77867 219.427 6.4 219.597 8.02133C219.768 9.64266 219.555 10.752 218.957 11.3493C218.189 11.6053 217.336 10.9227 216.397 9.30133C215.544 7.59466 215.032 5.93067 214.861 4.30933C214.691 2.688 214.947 1.57867 215.629 0.98133ZM224.205 0.0853337C224.888 0.597332 225.144 1.70666 224.973 3.41333C224.803 5.03467 224.248 6.69867 223.309 8.40533C222.456 10.0267 221.645 10.6667 220.877 10.3253C220.195 9.81333 219.939 8.74667 220.109 7.12533C220.28 5.41866 220.792 3.75466 221.645 2.13333C222.584 0.426665 223.437 -0.256 224.205 0.0853337ZM205.133 0.98133C205.901 0.725333 206.712 1.45067 207.565 3.15733C208.504 4.77867 209.059 6.4 209.229 8.02133C209.4 9.64266 209.144 10.752 208.461 11.3493C207.693 11.6053 206.84 10.9227 205.901 9.30133C205.048 7.59466 204.536 5.93067 204.365 4.30933C204.195 2.688 204.451 1.57867 205.133 0.98133ZM213.709 0.0853337C214.392 0.597332 214.648 1.70666 214.477 3.41333C214.307 5.03467 213.752 6.69867 212.813 8.40533C211.96 10.0267 211.149 10.6667 210.381 10.3253C209.955 10.1547 209.699 9.68534 209.613 8.91733C209.528 8.064 209.613 7.12533 209.869 6.10133C210.125 4.992 210.424 3.968 210.765 3.02933C211.192 2.00533 211.661 1.23733 212.173 0.725333C212.771 0.127997 213.283 -0.0853359 213.709 0.0853337ZM225.997 0.98133C226.765 0.725333 227.576 1.45067 228.429 3.15733C229.368 4.77867 229.923 6.4 230.093 8.02133C230.264 9.64266 230.008 10.752 229.325 11.3493C228.557 11.6053 227.704 10.9227 226.765 9.30133C225.912 7.59466 225.4 5.93067 225.229 4.30933C225.059 2.688 225.315 1.57867 225.997 0.98133ZM234.701 0.0853337C235.299 0.597332 235.512 1.70666 235.341 3.41333C235.171 5.03467 234.616 6.69867 233.677 8.40533C232.824 10.0267 232.013 10.6667 231.245 10.3253C230.648 9.81333 230.435 8.74667 230.605 7.12533C230.776 5.41866 231.288 3.75466 232.141 2.13333C233.08 0.426665 233.933 -0.256 234.701 0.0853337ZM194.765 0.98133C195.448 0.725333 196.216 1.45067 197.069 3.15733C198.008 4.77867 198.563 6.4 198.733 8.02133C198.904 9.64266 198.648 10.752 197.965 11.3493C197.283 11.6053 196.472 10.9227 195.533 9.30133C194.68 7.59466 194.168 5.93067 193.997 4.30933C193.827 2.688 194.083 1.57867 194.765 0.98133ZM203.341 0.0853337C204.024 0.597332 204.237 1.70666 203.981 3.41333C203.811 5.03467 203.299 6.69867 202.445 8.40533C201.592 10.0267 200.781 10.6667 200.013 10.3253C199.331 9.81333 199.075 8.74667 199.245 7.12533C199.416 5.41866 199.928 3.75466 200.781 2.13333C201.72 0.426665 202.573 -0.256 203.341 0.0853337ZM257.357 49.6213C258.125 49.28 258.936 49.9627 259.789 51.6693C260.643 53.2907 261.155 54.9547 261.325 56.6613C261.581 58.2827 261.368 59.3493 260.685 59.8613C259.917 60.2027 259.064 59.5627 258.125 57.9413C257.272 56.2347 256.76 54.5707 256.589 52.9493C256.419 51.2427 256.675 50.1333 257.357 49.6213ZM265.933 48.5973C266.616 49.1093 266.872 50.2187 266.701 51.9253C266.531 53.5467 265.976 55.2107 265.037 56.9173C264.184 58.5387 263.373 59.1787 262.605 58.8373C261.923 58.3253 261.667 57.2587 261.837 55.6373C262.093 54.016 262.648 52.3947 263.501 50.7733C264.355 49.0667 265.165 48.3413 265.933 48.5973ZM236.493 49.6213C237.261 49.28 238.072 49.9627 238.925 51.6693C239.779 53.2907 240.291 54.9547 240.461 56.6613C240.632 58.2827 240.419 59.3493 239.821 59.8613C239.053 60.2027 238.2 59.5627 237.261 57.9413C236.408 56.2347 235.896 54.5707 235.725 52.9493C235.555 51.2427 235.811 50.1333 236.493 49.6213ZM245.069 48.5973C245.752 49.1093 246.008 50.2187 245.837 51.9253C245.667 53.5467 245.112 55.2107 244.173 56.9173C243.32 58.5387 242.509 59.1787 241.741 58.8373C241.059 58.3253 240.803 57.2587 240.973 55.6373C241.144 54.016 241.656 52.3947 242.509 50.7733C243.448 49.0667 244.301 48.3413 245.069 48.5973ZM225.997 49.6213C226.765 49.28 227.576 49.9627 228.429 51.6693C229.368 53.2907 229.923 54.9547 230.093 56.6613C230.264 58.2827 230.008 59.3493 229.325 59.8613C228.557 60.2027 227.704 59.5627 226.765 57.9413C225.912 56.2347 225.4 54.5707 225.229 52.9493C225.059 51.2427 225.315 50.1333 225.997 49.6213ZM234.701 48.5973C235.299 49.1093 235.512 50.2187 235.341 51.9253C235.171 53.5467 234.616 55.2107 233.677 56.9173C232.824 58.5387 232.013 59.1787 231.245 58.8373C230.648 58.3253 230.435 57.2587 230.605 55.6373C230.776 54.016 231.288 52.3947 232.141 50.7733C233.08 49.0667 233.933 48.3413 234.701 48.5973Z" fill="white"/>
<path d="M181.404 88.4053C182.172 88.1493 182.983 88.8747 183.836 90.5813C184.775 92.2027 185.33 93.824 185.5 95.4453C185.671 97.0667 185.415 98.176 184.732 98.7733C183.964 99.0293 183.154 98.3467 182.3 96.7253C181.447 95.0187 180.892 93.3547 180.636 91.7333C180.466 90.112 180.722 89.0027 181.404 88.4053ZM190.108 87.5093C190.791 88.0213 191.004 89.088 190.748 90.7093C190.578 92.3307 190.023 93.9947 189.084 95.7013C188.231 97.3227 187.463 98.0053 186.78 97.7493C186.098 97.152 185.842 96.0427 186.012 94.4213C186.183 92.8 186.695 91.1787 187.548 89.5573C188.487 87.8507 189.34 87.168 190.108 87.5093ZM171.036 88.4053C171.804 88.1493 172.615 88.8747 173.468 90.5813C174.322 92.2027 174.834 93.824 175.004 95.4453C175.26 97.0667 175.047 98.176 174.364 98.7733C173.596 99.0293 172.743 98.3467 171.804 96.7253C170.951 95.0187 170.439 93.3547 170.268 91.7333C170.098 90.112 170.354 89.0027 171.036 88.4053ZM179.612 87.5093C180.295 88.0213 180.551 89.088 180.38 90.7093C180.21 92.3307 179.655 93.9947 178.716 95.7013C177.863 97.3227 177.052 98.0053 176.284 97.7493C175.602 97.152 175.346 96.0427 175.516 94.4213C175.772 92.8 176.327 91.1787 177.18 89.5573C178.034 87.8507 178.844 87.168 179.612 87.5093ZM160.54 88.4053C161.308 88.1493 162.119 88.8747 162.972 90.5813C163.911 92.2027 164.466 93.824 164.636 95.4453C164.807 97.0667 164.551 98.176 163.868 98.7733C163.1 99.0293 162.29 98.3467 161.436 96.7253C160.583 95.0187 160.028 93.3547 159.772 91.7333C159.602 90.112 159.858 89.0027 160.54 88.4053ZM169.244 87.5093C169.842 88.0213 170.055 89.088 169.884 90.7093C169.714 92.3307 169.159 93.9947 168.22 95.7013C167.367 97.3227 166.556 98.0053 165.788 97.7493C165.191 97.152 164.978 96.0427 165.148 94.4213C165.319 92.8 165.831 91.1787 166.684 89.5573C167.623 87.8507 168.476 87.168 169.244 87.5093ZM150.172 88.4053C150.94 88.1493 151.751 88.8747 152.604 90.5813C153.458 92.2027 153.97 93.824 154.14 95.4453C154.311 97.0667 154.098 98.176 153.5 98.7733C152.732 99.0293 151.879 98.3467 150.94 96.7253C150.087 95.0187 149.575 93.3547 149.404 91.7333C149.234 90.112 149.49 89.0027 150.172 88.4053ZM158.748 87.5093C159.431 88.0213 159.687 89.088 159.516 90.7093C159.346 92.3307 158.791 93.9947 157.852 95.7013C156.999 97.3227 156.188 98.0053 155.42 97.7493C154.738 97.152 154.482 96.0427 154.652 94.4213C154.823 92.8 155.335 91.1787 156.188 89.5573C157.127 87.8507 157.98 87.168 158.748 87.5093ZM139.676 88.4053C140.444 88.1493 141.255 88.8747 142.108 90.5813C143.047 92.2027 143.602 93.824 143.772 95.4453C143.943 97.0667 143.687 98.176 143.004 98.7733C142.236 99.0293 141.383 98.3467 140.444 96.7253C139.591 95.0187 139.079 93.3547 138.908 91.7333C138.738 90.112 138.994 89.0027 139.676 88.4053ZM148.252 87.5093C148.935 88.0213 149.191 89.088 149.02 90.7093C148.85 92.3307 148.295 93.9947 147.356 95.7013C146.503 97.3227 145.692 98.0053 144.924 97.7493C144.327 97.152 144.114 96.0427 144.284 94.4213C144.455 92.8 144.967 91.1787 145.82 89.5573C146.759 87.8507 147.57 87.168 148.252 87.5093ZM129.308 88.4053C129.991 88.1493 130.759 88.8747 131.612 90.5813C132.551 92.2027 133.106 93.824 133.276 95.4453C133.447 97.0667 133.234 98.176 132.636 98.7733C131.868 99.0293 131.015 98.3467 130.076 96.7253C129.223 95.0187 128.711 93.3547 128.54 91.7333C128.37 90.112 128.626 89.0027 129.308 88.4053ZM137.884 87.5093C138.567 88.0213 138.823 89.088 138.652 90.7093C138.482 92.3307 137.927 93.9947 136.988 95.7013C136.135 97.3227 135.324 98.0053 134.556 97.7493C133.874 97.152 133.618 96.0427 133.788 94.4213C133.959 92.8 134.471 91.1787 135.324 89.5573C136.263 87.8507 137.116 87.168 137.884 87.5093ZM118.812 88.4053C119.58 88.1493 120.391 88.8747 121.244 90.5813C122.183 92.2027 122.738 93.824 122.908 95.4453C123.079 97.0667 122.823 98.176 122.14 98.7733C121.372 99.0293 120.519 98.3467 119.58 96.7253C118.727 95.0187 118.215 93.3547 118.044 91.7333C117.874 90.112 118.13 89.0027 118.812 88.4053ZM127.388 87.5093C128.071 88.0213 128.327 89.088 128.156 90.7093C127.986 92.3307 127.431 93.9947 126.492 95.7013C125.639 97.3227 124.828 98.0053 124.06 97.7493C123.378 97.152 123.122 96.0427 123.292 94.4213C123.548 92.8 124.103 91.1787 124.956 89.5573C125.895 87.8507 126.706 87.168 127.388 87.5093ZM108.444 88.4053C109.127 88.1493 109.895 88.8747 110.748 90.5813C111.687 92.2027 112.242 93.824 112.412 95.4453C112.583 97.0667 112.327 98.176 111.644 98.7733C110.962 99.0293 110.151 98.3467 109.212 96.7253C108.359 95.0187 107.847 93.3547 107.676 91.7333C107.506 90.112 107.762 89.0027 108.444 88.4053ZM117.02 87.5093C117.447 87.68 117.703 88.192 117.788 89.0453C117.874 89.8133 117.788 90.7093 117.532 91.7333C117.276 92.7573 116.935 93.7813 116.508 94.8053C116.167 95.744 115.698 96.512 115.1 97.1093C114.588 97.7067 114.119 97.92 113.692 97.7493C113.351 97.5787 113.095 97.28 112.924 96.8533C112.839 96.3413 112.796 95.7867 112.796 95.1893C112.882 94.5067 113.01 93.7813 113.18 93.0133C113.351 92.2453 113.564 91.52 113.82 90.8373C114.162 90.1547 114.503 89.5573 114.844 89.0453C115.186 88.448 115.527 88.0213 115.868 87.7653C116.295 87.424 116.679 87.3387 117.02 87.5093ZM181.404 78.6773C182.172 78.4213 182.983 79.1467 183.836 80.8533C184.775 82.4747 185.33 84.096 185.5 85.7173C185.671 87.3387 185.415 88.448 184.732 89.0453C183.964 89.3013 183.154 88.6187 182.3 86.9973C181.447 85.2907 180.892 83.6267 180.636 82.0053C180.466 80.384 180.722 79.2747 181.404 78.6773ZM190.108 77.7813C190.791 78.2933 191.004 79.4027 190.748 81.1093C190.578 82.7307 190.023 84.352 189.084 85.9733C188.231 87.5947 187.463 88.2773 186.78 88.0213C186.098 87.5093 185.842 86.4427 186.012 84.8213C186.183 83.1147 186.695 81.4507 187.548 79.8293C188.487 78.1227 189.34 77.44 190.108 77.7813ZM129.308 78.6773C129.991 78.4213 130.759 79.1467 131.612 80.8533C132.551 82.4747 133.106 84.096 133.276 85.7173C133.447 87.3387 133.234 88.448 132.636 89.0453C131.868 89.3013 131.015 88.6187 130.076 86.9973C129.223 85.2907 128.711 83.6267 128.54 82.0053C128.37 80.384 128.626 79.2747 129.308 78.6773ZM137.884 77.7813C138.567 78.2933 138.823 79.4027 138.652 81.1093C138.482 82.7307 137.927 84.352 136.988 85.9733C136.135 87.5947 135.324 88.2773 134.556 88.0213C133.874 87.5093 133.618 86.4427 133.788 84.8213C133.959 83.1147 134.471 81.4507 135.324 79.8293C136.263 78.1227 137.116 77.44 137.884 77.7813ZM118.812 78.6773C119.58 78.4213 120.391 79.1467 121.244 80.8533C122.183 82.4747 122.738 84.096 122.908 85.7173C123.079 87.3387 122.823 88.448 122.14 89.0453C121.372 89.3013 120.519 88.6187 119.58 86.9973C118.727 85.2907 118.215 83.6267 118.044 82.0053C117.874 80.384 118.13 79.2747 118.812 78.6773ZM127.388 77.7813C128.071 78.2933 128.327 79.4027 128.156 81.1093C127.986 82.7307 127.431 84.352 126.492 85.9733C125.639 87.5947 124.828 88.2773 124.06 88.0213C123.378 87.5093 123.122 86.4427 123.292 84.8213C123.548 83.1147 124.103 81.4507 124.956 79.8293C125.895 78.1227 126.706 77.44 127.388 77.7813ZM180.636 70.4853C180.722 69.632 180.978 69.12 181.404 68.9493C181.916 68.7787 182.428 68.992 182.94 69.5893C183.452 70.1867 183.922 70.9973 184.348 72.0213C184.775 72.96 185.116 73.9413 185.372 74.9653C185.628 75.9893 185.714 76.928 185.628 77.7813C185.543 78.6347 185.244 79.1467 184.732 79.3173C184.306 79.488 183.794 79.2747 183.196 78.6773C182.684 78.08 182.215 77.312 181.788 76.3733C181.447 75.3493 181.148 74.3253 180.892 73.3013C180.636 72.2773 180.551 71.3387 180.636 70.4853ZM190.108 68.0533C190.791 68.5653 191.004 69.6747 190.748 71.3813C190.578 73.0027 190.023 74.6667 189.084 76.3733C188.231 77.9947 187.463 78.6347 186.78 78.2933C186.098 77.7813 185.842 76.7147 186.012 75.0933C186.183 73.3867 186.695 71.7227 187.548 70.1013C188.487 68.3947 189.34 67.712 190.108 68.0533ZM128.412 70.4853C128.498 69.632 128.754 69.12 129.18 68.9493C129.692 68.7787 130.204 68.992 130.716 69.5893C131.314 70.1867 131.783 70.9973 132.124 72.0213C132.551 72.96 132.892 73.9413 133.148 74.9653C133.404 75.9893 133.49 76.928 133.404 77.7813C133.319 78.6347 133.02 79.1467 132.508 79.3173C132.082 79.488 131.612 79.2747 131.1 78.6773C130.588 78.08 130.119 77.312 129.692 76.3733C129.266 75.3493 128.924 74.3253 128.668 73.3013C128.412 72.2773 128.327 71.3387 128.412 70.4853ZM137.884 68.0533C138.567 68.5653 138.823 69.6747 138.652 71.3813C138.482 73.0027 137.927 74.6667 136.988 76.3733C136.135 77.9947 135.324 78.6347 134.556 78.2933C133.874 77.7813 133.618 76.7147 133.788 75.0933C133.959 73.3867 134.471 71.7227 135.324 70.1013C136.263 68.3947 137.116 67.712 137.884 68.0533ZM118.812 68.9493C119.154 68.864 119.495 68.992 119.836 69.3333C120.263 69.5893 120.647 70.016 120.988 70.6133C121.33 71.1253 121.628 71.7227 121.884 72.4053C122.14 73.088 122.354 73.8133 122.524 74.5813C122.78 75.3493 122.908 76.0747 122.908 76.7573C122.994 77.3547 122.951 77.9093 122.78 78.4213C122.695 78.848 122.482 79.1467 122.14 79.3173C121.714 79.488 121.202 79.2747 120.604 78.6773C120.092 78.08 119.623 77.312 119.196 76.3733C118.855 75.3493 118.556 74.3253 118.3 73.3013C118.044 72.2773 117.959 71.3387 118.044 70.4853C118.13 69.632 118.386 69.12 118.812 68.9493ZM127.388 68.0533C128.071 68.5653 128.327 69.6747 128.156 71.3813C127.986 73.0027 127.431 74.6667 126.492 76.3733C125.639 77.9947 124.828 78.6347 124.06 78.2933C123.378 77.7813 123.122 76.7147 123.292 75.0933C123.548 73.3867 124.103 71.7227 124.956 70.1013C125.895 68.3947 126.706 67.712 127.388 68.0533ZM129.308 59.3493C129.991 59.008 130.759 59.6907 131.612 61.3973C132.551 63.0187 133.106 64.6827 133.276 66.3893C133.447 68.0107 133.234 69.0773 132.636 69.5893C131.868 69.8453 131.015 69.1627 130.076 67.5413C129.223 65.8347 128.711 64.1707 128.54 62.5493C128.37 60.928 128.626 59.8613 129.308 59.3493ZM137.884 58.3253C138.567 58.8373 138.823 59.9467 138.652 61.6533C138.482 63.2747 137.927 64.9387 136.988 66.6453C136.135 68.2667 135.324 68.9067 134.556 68.5653C133.874 68.0533 133.618 66.9867 133.788 65.3653C133.959 63.6587 134.471 61.9947 135.324 60.3733C136.263 58.752 137.116 58.0693 137.884 58.3253ZM118.812 59.3493C119.58 59.008 120.391 59.6907 121.244 61.3973C122.183 63.0187 122.738 64.6827 122.908 66.3893C123.079 68.0107 122.823 69.0773 122.14 69.5893C121.372 69.8453 120.519 69.1627 119.58 67.5413C118.727 65.8347 118.215 64.1707 118.044 62.5493C117.874 60.928 118.13 59.8613 118.812 59.3493ZM127.388 58.3253C128.071 58.8373 128.327 59.9467 128.156 61.6533C127.986 63.2747 127.431 64.9387 126.492 66.6453C125.639 68.2667 124.828 68.9067 124.06 68.5653C123.378 68.0533 123.122 66.9867 123.292 65.3653C123.548 63.6587 124.103 61.9947 124.956 60.3733C125.895 58.752 126.706 58.0693 127.388 58.3253ZM160.54 49.6213C161.308 49.28 162.119 49.9627 162.972 51.6693C163.911 53.2907 164.466 54.9547 164.636 56.6613C164.807 58.2827 164.551 59.3493 163.868 59.8613C163.1 60.2027 162.29 59.5627 161.436 57.9413C160.583 56.2347 160.028 54.5707 159.772 52.9493C159.602 51.2427 159.858 50.1333 160.54 49.6213ZM169.244 48.5973C169.842 49.1093 170.055 50.2187 169.884 51.9253C169.714 53.5467 169.159 55.2107 168.22 56.9173C167.367 58.5387 166.556 59.1787 165.788 58.8373C165.191 58.3253 164.978 57.2587 165.148 55.6373C165.319 54.016 165.831 52.3947 166.684 50.7733C167.623 49.0667 168.476 48.3413 169.244 48.5973ZM129.308 49.6213C129.991 49.28 130.759 49.9627 131.612 51.6693C132.551 53.2907 133.106 54.9547 133.276 56.6613C133.447 58.2827 133.234 59.3493 132.636 59.8613C131.868 60.2027 131.015 59.5627 130.076 57.9413C129.223 56.2347 128.711 54.5707 128.54 52.9493C128.37 51.2427 128.626 50.1333 129.308 49.6213ZM137.884 48.5973C138.567 49.1093 138.823 50.2187 138.652 51.9253C138.482 53.5467 137.927 55.2107 136.988 56.9173C136.135 58.5387 135.324 59.1787 134.556 58.8373C133.874 58.3253 133.618 57.2587 133.788 55.6373C133.959 54.016 134.471 52.3947 135.324 50.7733C136.263 49.0667 137.116 48.3413 137.884 48.5973ZM118.812 49.6213C119.58 49.28 120.391 49.9627 121.244 51.6693C122.183 53.2907 122.738 54.9547 122.908 56.6613C123.079 58.2827 122.823 59.3493 122.14 59.8613C121.372 60.2027 120.519 59.5627 119.58 57.9413C118.727 56.2347 118.215 54.5707 118.044 52.9493C117.874 51.2427 118.13 50.1333 118.812 49.6213ZM127.388 48.5973C128.071 49.1093 128.327 50.2187 128.156 51.9253C127.986 53.5467 127.431 55.2107 126.492 56.9173C125.639 58.5387 124.828 59.1787 124.06 58.8373C123.378 58.3253 123.122 57.2587 123.292 55.6373C123.548 54.016 124.103 52.3947 124.956 50.7733C125.895 49.0667 126.706 48.3413 127.388 48.5973ZM160.54 39.8933C161.308 39.552 162.119 40.2347 162.972 41.9413C163.911 43.5627 164.466 45.2267 164.636 46.9333C164.807 48.5547 164.551 49.6213 163.868 50.1333C163.1 50.4747 162.29 49.8347 161.436 48.2133C160.583 46.5067 160.028 44.8427 159.772 43.2213C159.602 41.5147 159.858 40.4053 160.54 39.8933ZM169.244 38.8693C169.927 39.4667 170.14 40.576 169.884 42.1973C169.714 43.8187 169.159 45.4827 168.22 47.1893C167.367 48.8107 166.556 49.4933 165.788 49.2373C165.191 48.64 164.978 47.5307 165.148 45.9093C165.319 44.288 165.831 42.6667 166.684 41.0453C167.623 39.3387 168.476 38.6133 169.244 38.8693ZM150.172 39.8933C150.94 39.552 151.751 40.2347 152.604 41.9413C153.458 43.5627 153.97 45.2267 154.14 46.9333C154.311 48.5547 154.098 49.6213 153.5 50.1333C152.732 50.4747 151.879 49.8347 150.94 48.2133C150.087 46.5067 149.575 44.8427 149.404 43.2213C149.234 41.5147 149.49 40.4053 150.172 39.8933ZM158.748 38.8693C159.431 39.4667 159.687 40.576 159.516 42.1973C159.346 43.8187 158.791 45.4827 157.852 47.1893C156.999 48.8107 156.188 49.4933 155.42 49.2373C154.738 48.64 154.482 47.5307 154.652 45.9093C154.823 44.288 155.335 42.6667 156.188 41.0453C157.127 39.3387 157.98 38.6133 158.748 38.8693ZM139.676 39.8933C140.444 39.552 141.255 40.2347 142.108 41.9413C143.047 43.5627 143.602 45.2267 143.772 46.9333C143.943 48.5547 143.687 49.6213 143.004 50.1333C142.236 50.4747 141.383 49.8347 140.444 48.2133C139.591 46.5067 139.079 44.8427 138.908 43.2213C138.738 41.5147 138.994 40.4053 139.676 39.8933ZM148.38 38.8693C148.978 39.4667 149.191 40.576 149.02 42.1973C148.85 43.8187 148.295 45.4827 147.356 47.1893C146.503 48.8107 145.692 49.4933 144.924 49.2373C144.327 48.64 144.114 47.5307 144.284 45.9093C144.455 44.288 144.967 42.6667 145.82 41.0453C146.759 39.3387 147.612 38.6133 148.38 38.8693ZM129.308 39.8933C129.991 39.552 130.759 40.2347 131.612 41.9413C132.551 43.5627 133.106 45.2267 133.276 46.9333C133.447 48.5547 133.234 49.6213 132.636 50.1333C131.868 50.4747 131.015 49.8347 130.076 48.2133C129.223 46.5067 128.711 44.8427 128.54 43.2213C128.37 41.5147 128.626 40.4053 129.308 39.8933ZM137.884 38.8693C138.567 39.4667 138.823 40.576 138.652 42.1973C138.482 43.8187 137.927 45.4827 136.988 47.1893C136.135 48.8107 135.324 49.4933 134.556 49.2373C133.874 48.64 133.618 47.5307 133.788 45.9093C133.959 44.288 134.471 42.6667 135.324 41.0453C136.263 39.3387 137.116 38.6133 137.884 38.8693ZM118.812 39.8933C119.58 39.552 120.391 40.2347 121.244 41.9413C122.183 43.5627 122.738 45.2267 122.908 46.9333C123.079 48.5547 122.823 49.6213 122.14 50.1333C121.372 50.4747 120.519 49.8347 119.58 48.2133C118.727 46.5067 118.215 44.8427 118.044 43.2213C117.874 41.5147 118.13 40.4053 118.812 39.8933ZM127.388 38.8693C128.071 39.4667 128.327 40.576 128.156 42.1973C127.986 43.8187 127.431 45.4827 126.492 47.1893C125.639 48.8107 124.828 49.4933 124.06 49.2373C123.378 48.64 123.122 47.5307 123.292 45.9093C123.548 44.288 124.103 42.6667 124.956 41.0453C125.895 39.3387 126.706 38.6133 127.388 38.8693ZM160.54 30.1653C161.308 29.9093 162.119 30.6347 162.972 32.3413C163.911 33.9627 164.466 35.584 164.636 37.2053C164.807 38.8267 164.551 39.8933 163.868 40.4053C163.1 40.7467 162.29 40.1067 161.436 38.4853C160.583 36.7787 160.028 35.1147 159.772 33.4933C159.602 31.7867 159.858 30.6773 160.54 30.1653ZM169.244 29.1413C169.927 29.7387 170.14 30.848 169.884 32.4693C169.714 34.0907 169.159 35.7547 168.22 37.4613C167.367 39.0827 166.599 39.7653 165.916 39.5093C165.234 38.912 164.978 37.8027 165.148 36.1813C165.319 34.56 165.831 32.9387 166.684 31.3173C167.623 29.6107 168.476 28.8853 169.244 29.1413ZM129.308 30.1653C129.991 29.9093 130.759 30.6347 131.612 32.3413C132.551 33.9627 133.106 35.584 133.276 37.2053C133.447 38.8267 133.234 39.8933 132.636 40.4053C131.868 40.7467 131.015 40.1067 130.076 38.4853C129.223 36.7787 128.711 35.1147 128.54 33.4933C128.37 31.7867 128.626 30.6773 129.308 30.1653ZM137.884 29.1413C138.567 29.7387 138.823 30.848 138.652 32.4693C138.482 34.0907 137.927 35.7547 136.988 37.4613C136.135 39.0827 135.324 39.7653 134.556 39.5093C133.874 38.912 133.618 37.8027 133.788 36.1813C133.959 34.56 134.471 32.9387 135.324 31.3173C136.263 29.6107 137.116 28.8853 137.884 29.1413ZM118.812 30.1653C119.58 29.9093 120.391 30.6347 121.244 32.3413C122.183 33.9627 122.738 35.584 122.908 37.2053C123.079 38.8267 122.823 39.8933 122.14 40.4053C121.372 40.7467 120.519 40.1067 119.58 38.4853C118.727 36.7787 118.215 35.1147 118.044 33.4933C117.874 31.7867 118.13 30.6773 118.812 30.1653ZM127.388 29.1413C128.071 29.7387 128.327 30.848 128.156 32.4693C127.986 34.0907 127.431 35.7547 126.492 37.4613C125.639 39.0827 124.828 39.7653 124.06 39.5093C123.378 38.912 123.122 37.8027 123.292 36.1813C123.548 34.56 124.103 32.9387 124.956 31.3173C125.895 29.6107 126.706 28.8853 127.388 29.1413ZM129.308 20.4373C129.991 20.1813 130.759 20.9067 131.612 22.6133C132.551 24.2347 133.106 25.856 133.276 27.4773C133.447 29.0987 133.234 30.208 132.636 30.8053C131.868 31.0613 131.015 30.3787 130.076 28.7573C129.223 27.0507 128.711 25.3867 128.54 23.7653C128.37 22.144 128.626 21.0347 129.308 20.4373ZM137.884 19.5413C138.567 20.0533 138.823 21.12 138.652 22.7413C138.482 24.3627 137.927 26.0267 136.988 27.7333C136.135 29.3547 135.324 30.0373 134.556 29.7813C133.874 29.184 133.618 28.0747 133.788 26.4533C133.959 24.832 134.471 23.2107 135.324 21.5893C136.263 19.8827 137.116 19.2 137.884 19.5413ZM118.812 20.4373C119.58 20.1813 120.391 20.9067 121.244 22.6133C122.183 24.2347 122.738 25.856 122.908 27.4773C123.079 29.0987 122.823 30.208 122.14 30.8053C121.372 31.0613 120.519 30.3787 119.58 28.7573C118.727 27.0507 118.215 25.3867 118.044 23.7653C117.874 22.144 118.13 21.0347 118.812 20.4373ZM127.388 19.5413C128.071 20.0533 128.327 21.12 128.156 22.7413C127.986 24.3627 127.431 26.0267 126.492 27.7333C125.639 29.3547 124.828 30.0373 124.06 29.7813C123.378 29.184 123.122 28.0747 123.292 26.4533C123.548 24.832 124.103 23.2107 124.956 21.5893C125.895 19.8827 126.706 19.2 127.388 19.5413ZM181.404 10.7093C181.916 10.5387 182.428 10.752 182.94 11.3493C183.452 11.9467 183.922 12.7573 184.348 13.7813C184.775 14.72 185.116 15.7013 185.372 16.7253C185.628 17.7493 185.714 18.688 185.628 19.5413C185.543 20.3947 185.244 20.9067 184.732 21.0773C183.964 21.3333 183.154 20.6507 182.3 19.0293C181.447 17.3227 180.892 15.6587 180.636 14.0373C180.466 12.416 180.722 11.3067 181.404 10.7093ZM190.108 9.81333C190.791 10.3253 191.004 11.4347 190.748 13.1413C190.578 14.7627 190.023 16.384 189.084 18.0053C188.231 19.6267 187.463 20.3093 186.78 20.0533C186.098 19.5413 185.842 18.4747 186.012 16.8533C186.183 15.1467 186.695 13.4827 187.548 11.8613C188.487 10.1547 189.34 9.472 190.108 9.81333ZM129.308 10.7093C129.735 10.5387 130.204 10.752 130.716 11.3493C131.314 11.9467 131.783 12.7573 132.124 13.7813C132.551 14.72 132.892 15.7013 133.148 16.7253C133.404 17.7493 133.49 18.688 133.404 19.5413C133.319 20.3947 133.063 20.9067 132.636 21.0773C131.868 21.3333 131.015 20.6507 130.076 19.0293C129.223 17.3227 128.711 15.6587 128.54 14.0373C128.37 12.416 128.626 11.3067 129.308 10.7093ZM137.884 9.81333C138.567 10.3253 138.823 11.4347 138.652 13.1413C138.482 14.7627 137.927 16.384 136.988 18.0053C136.135 19.6267 135.324 20.3093 134.556 20.0533C133.874 19.5413 133.618 18.4747 133.788 16.8533C133.959 15.1467 134.471 13.4827 135.324 11.8613C136.263 10.1547 137.116 9.472 137.884 9.81333ZM118.812 10.7093C119.239 10.5387 119.708 10.752 120.22 11.3493C120.818 11.9467 121.287 12.7573 121.628 13.7813C122.055 14.72 122.396 15.7013 122.652 16.7253C122.908 17.7493 122.994 18.688 122.908 19.5413C122.823 20.3947 122.567 20.9067 122.14 21.0773C121.372 21.3333 120.519 20.6507 119.58 19.0293C118.727 17.3227 118.215 15.6587 118.044 14.0373C117.874 12.416 118.13 11.3067 118.812 10.7093ZM127.388 9.81333C128.071 10.3253 128.327 11.4347 128.156 13.1413C127.986 14.7627 127.431 16.384 126.492 18.0053C125.639 19.6267 124.828 20.3093 124.06 20.0533C123.378 19.5413 123.122 18.4747 123.292 16.8533C123.548 15.1467 124.103 13.4827 124.956 11.8613C125.895 10.1547 126.706 9.472 127.388 9.81333ZM181.404 0.98133C182.172 0.725333 182.983 1.45067 183.836 3.15733C184.775 4.77867 185.33 6.4 185.5 8.02133C185.671 9.64266 185.415 10.752 184.732 11.3493C183.964 11.6053 183.154 10.9227 182.3 9.30133C181.447 7.59466 180.892 5.93067 180.636 4.30933C180.466 2.688 180.722 1.57867 181.404 0.98133ZM186.78 10.3253C186.268 10.1547 185.97 9.68534 185.884 8.91733C185.799 8.064 185.884 7.12533 186.14 6.10133C186.396 4.992 186.738 3.968 187.164 3.02933C187.591 2.00533 188.06 1.23733 188.572 0.725333C189.084 0.127997 189.596 -0.0853359 190.108 0.0853337C190.791 0.597332 191.004 1.70666 190.748 3.41333C190.578 5.03467 190.023 6.69867 189.084 8.40533C188.231 10.0267 187.463 10.6667 186.78 10.3253ZM171.036 0.98133C171.804 0.725333 172.615 1.45067 173.468 3.15733C174.322 4.77867 174.834 6.4 175.004 8.02133C175.26 9.64266 175.047 10.752 174.364 11.3493C173.596 11.6053 172.743 10.9227 171.804 9.30133C170.951 7.59466 170.439 5.93067 170.268 4.30933C170.098 2.688 170.354 1.57867 171.036 0.98133ZM179.612 0.0853337C180.295 0.597332 180.551 1.70666 180.38 3.41333C180.21 5.03467 179.655 6.69867 178.716 8.40533C177.863 10.0267 177.052 10.6667 176.284 10.3253C175.602 9.81333 175.346 8.74667 175.516 7.12533C175.772 5.41866 176.327 3.75466 177.18 2.13333C178.034 0.426665 178.844 -0.256 179.612 0.0853337ZM160.54 0.98133C161.308 0.725333 162.119 1.45067 162.972 3.15733C163.911 4.77867 164.466 6.4 164.636 8.02133C164.807 9.64266 164.551 10.752 163.868 11.3493C163.1 11.6053 162.29 10.9227 161.436 9.30133C160.583 7.59466 160.028 5.93067 159.772 4.30933C159.602 2.688 159.858 1.57867 160.54 0.98133ZM169.244 0.0853337C169.927 0.597332 170.14 1.70666 169.884 3.41333C169.714 5.03467 169.159 6.69867 168.22 8.40533C167.367 10.0267 166.599 10.6667 165.916 10.3253C165.234 9.81333 164.978 8.74667 165.148 7.12533C165.319 5.41866 165.831 3.75466 166.684 2.13333C167.623 0.426665 168.476 -0.256 169.244 0.0853337ZM150.172 0.98133C150.94 0.725333 151.751 1.45067 152.604 3.15733C153.458 4.77867 153.97 6.4 154.14 8.02133C154.311 9.64266 154.098 10.752 153.5 11.3493C152.732 11.6053 151.879 10.9227 150.94 9.30133C150.087 7.59466 149.575 5.93067 149.404 4.30933C149.234 2.688 149.49 1.57867 150.172 0.98133ZM158.748 0.0853337C159.431 0.597332 159.687 1.70666 159.516 3.41333C159.346 5.03467 158.791 6.69867 157.852 8.40533C156.999 10.0267 156.188 10.6667 155.42 10.3253C154.738 9.81333 154.482 8.74667 154.652 7.12533C154.823 5.41866 155.335 3.75466 156.188 2.13333C157.127 0.426665 157.98 -0.256 158.748 0.0853337ZM139.676 0.98133C140.444 0.725333 141.255 1.45067 142.108 3.15733C143.047 4.77867 143.602 6.4 143.772 8.02133C143.943 9.64266 143.687 10.752 143.004 11.3493C142.236 11.6053 141.383 10.9227 140.444 9.30133C139.591 7.59466 139.079 5.93067 138.908 4.30933C138.738 2.688 138.994 1.57867 139.676 0.98133ZM148.38 0.0853337C148.978 0.597332 149.191 1.70666 149.02 3.41333C148.85 5.03467 148.295 6.69867 147.356 8.40533C146.503 10.0267 145.692 10.6667 144.924 10.3253C144.327 9.81333 144.114 8.74667 144.284 7.12533C144.455 5.41866 144.967 3.75466 145.82 2.13333C146.759 0.426665 147.612 -0.256 148.38 0.0853337ZM129.308 0.98133C129.991 0.725333 130.759 1.45067 131.612 3.15733C132.551 4.77867 133.106 6.4 133.276 8.02133C133.447 9.64266 133.234 10.752 132.636 11.3493C131.868 11.6053 131.015 10.9227 130.076 9.30133C129.223 7.59466 128.711 5.93067 128.54 4.30933C128.37 2.688 128.626 1.57867 129.308 0.98133ZM137.884 0.0853337C138.567 0.597332 138.823 1.70666 138.652 3.41333C138.482 5.03467 137.927 6.69867 136.988 8.40533C136.135 10.0267 135.324 10.6667 134.556 10.3253C133.874 9.81333 133.618 8.74667 133.788 7.12533C133.959 5.41866 134.471 3.75466 135.324 2.13333C136.263 0.426665 137.116 -0.256 137.884 0.0853337ZM118.812 0.98133C119.58 0.725333 120.391 1.45067 121.244 3.15733C122.183 4.77867 122.738 6.4 122.908 8.02133C123.079 9.64266 122.823 10.752 122.14 11.3493C121.372 11.6053 120.519 10.9227 119.58 9.30133C118.727 7.59466 118.215 5.93067 118.044 4.30933C117.874 2.688 118.13 1.57867 118.812 0.98133ZM127.388 0.0853337C128.071 0.597332 128.327 1.70666 128.156 3.41333C127.986 5.03467 127.431 6.69867 126.492 8.40533C125.639 10.0267 124.828 10.6667 124.06 10.3253C123.378 9.81333 123.122 8.74667 123.292 7.12533C123.548 5.41866 124.103 3.75466 124.956 2.13333C125.895 0.426665 126.706 -0.256 127.388 0.0853337ZM108.444 0.98133C109.127 0.725333 109.895 1.45067 110.748 3.15733C111.687 4.77867 112.242 6.4 112.412 8.02133C112.583 9.64266 112.327 10.752 111.644 11.3493C110.962 11.6053 110.151 10.9227 109.212 9.30133C108.359 7.59466 107.847 5.93067 107.676 4.30933C107.506 2.688 107.762 1.57867 108.444 0.98133ZM117.02 0.0853337C117.362 0.170666 117.575 0.469331 117.66 0.98133C117.831 1.49333 117.874 2.09067 117.788 2.77333C117.703 3.37067 117.575 4.05333 117.404 4.82133C117.234 5.58933 116.978 6.31467 116.636 6.99734C116.38 7.68 116.082 8.32 115.74 8.91733C115.484 9.42933 115.143 9.856 114.716 10.1973C114.375 10.4533 114.034 10.496 113.692 10.3253C112.412 9.89867 112.37 7.89333 113.564 4.30933C114.759 1.32266 115.911 -0.0853359 117.02 0.0853337Z" fill="white"/>
<path d="M11.1872 88.4053C11.9552 88.1493 12.7659 88.8747 13.6192 90.5813C14.5579 92.2027 15.1125 93.824 15.2832 95.4453C15.4539 97.0667 15.1979 98.176 14.5152 98.7733C13.7472 99.0293 12.8939 98.3467 11.9552 96.7253C11.1019 95.0187 10.5899 93.3547 10.4192 91.7333C10.2485 90.112 10.5045 89.0027 11.1872 88.4053ZM19.7632 87.5093C20.4459 88.0213 20.7019 89.088 20.5312 90.7093C20.3605 92.3307 19.8059 93.9947 18.8672 95.7013C18.0139 97.3227 17.2032 98.0053 16.4352 97.7493C16.0085 97.5787 15.7525 97.0667 15.6672 96.2133C15.5819 95.36 15.6672 94.4213 15.9232 93.3973C16.1792 92.3733 16.4779 91.392 16.8192 90.4533C17.2459 89.4293 17.7152 88.6187 18.2272 88.0213C18.8245 87.424 19.3365 87.2533 19.7632 87.5093ZM0.8192 88.4053C1.50187 88.1493 2.26987 88.8747 3.1232 90.5813C4.06187 92.2027 4.61653 93.824 4.7872 95.4453C4.95787 97.0667 4.70187 98.176 4.0192 98.7733C3.33653 99.0293 2.52587 98.3467 1.5872 96.7253C0.733867 95.0187 0.221867 93.3547 0.0512 91.7333C-0.119467 90.112 0.136533 89.0027 0.8192 88.4053ZM9.3952 87.5093C10.0779 88.0213 10.2912 89.088 10.0352 90.7093C9.86453 92.3307 9.35253 93.9947 8.4992 95.7013C7.64587 97.3227 6.8352 98.0053 6.0672 97.7493C5.38453 97.152 5.12853 96.0427 5.2992 94.4213C5.46987 92.8 5.98187 91.1787 6.8352 89.5573C7.77387 87.8507 8.6272 87.168 9.3952 87.5093ZM11.1872 78.6773C11.9552 78.4213 12.7659 79.1467 13.6192 80.8533C14.5579 82.4747 15.1125 84.096 15.2832 85.7173C15.4539 87.3387 15.1979 88.448 14.5152 89.0453C13.7472 89.3013 12.8939 88.6187 11.9552 86.9973C11.1019 85.2907 10.5899 83.6267 10.4192 82.0053C10.2485 80.384 10.5045 79.2747 11.1872 78.6773ZM19.7632 77.7813C20.4459 78.2933 20.7019 79.4027 20.5312 81.1093C20.3605 82.7307 19.8059 84.352 18.8672 85.9733C18.0139 87.5947 17.2032 88.2773 16.4352 88.0213C16.0939 87.936 15.8379 87.6373 15.6672 87.1253C15.5819 86.6133 15.5819 86.0587 15.6672 85.4613C15.7525 84.7787 15.8805 84.0533 16.0512 83.2853C16.2219 82.5173 16.4352 81.792 16.6912 81.1093C17.0325 80.4267 17.3739 79.8293 17.7152 79.3173C18.0565 78.72 18.3979 78.2933 18.7392 78.0373C19.1659 77.696 19.5072 77.6107 19.7632 77.7813ZM11.1872 68.9493C11.9552 68.6933 12.7659 69.4187 13.6192 71.1253C14.5579 72.7467 15.1125 74.368 15.2832 75.9893C15.4539 77.6107 15.1979 78.72 14.5152 79.3173C14.0885 79.488 13.5765 79.2747 12.9792 78.6773C12.4672 78.08 11.9979 77.312 11.5712 76.3733C11.2299 75.3493 10.9312 74.3253 10.6752 73.3013C10.4192 72.2773 10.3339 71.3387 10.4192 70.4853C10.5045 69.632 10.7605 69.12 11.1872 68.9493ZM19.7632 68.0533C20.4459 68.5653 20.7019 69.6747 20.5312 71.3813C20.3605 73.0027 19.8059 74.6667 18.8672 76.3733C18.0139 77.9947 17.2032 78.6347 16.4352 78.2933C16.0085 78.1227 15.7525 77.6533 15.6672 76.8853C15.5819 76.032 15.6672 75.0933 15.9232 74.0693C16.1792 72.96 16.4779 71.936 16.8192 70.9973C17.2459 69.9733 17.7152 69.2053 18.2272 68.6933C18.8245 68.096 19.3365 67.8827 19.7632 68.0533ZM11.1872 59.3493C11.6139 59.1787 12.0832 59.392 12.5952 59.9893C13.1925 60.5013 13.6619 61.2693 14.0032 62.2933C14.4299 63.232 14.7712 64.256 15.0272 65.3653C15.2832 66.3893 15.3685 67.328 15.2832 68.1813C15.1979 68.9493 14.9419 69.4187 14.5152 69.5893C13.7472 69.8453 12.8939 69.1627 11.9552 67.5413C11.1019 65.8347 10.5899 64.1707 10.4192 62.5493C10.2485 60.928 10.5045 59.8613 11.1872 59.3493ZM19.7632 58.3253C20.4459 58.8373 20.7019 59.9467 20.5312 61.6533C20.3605 63.2747 19.8059 64.9387 18.8672 66.6453C18.0139 68.2667 17.2032 68.9067 16.4352 68.5653C16.0085 68.3947 15.7525 67.9253 15.6672 67.1573C15.5819 66.304 15.6672 65.3653 15.9232 64.3413C16.1792 63.3173 16.4779 62.336 16.8192 61.3973C17.2459 60.3733 17.7152 59.5627 18.2272 58.9653C18.8245 58.368 19.3365 58.1547 19.7632 58.3253ZM11.1872 49.6213C11.9552 49.28 12.7659 49.9627 13.6192 51.6693C14.5579 53.2907 15.1125 54.9547 15.2832 56.6613C15.4539 58.2827 15.1979 59.3493 14.5152 59.8613C13.7472 60.2027 12.8939 59.5627 11.9552 57.9413C11.1019 56.2347 10.5899 54.5707 10.4192 52.9493C10.2485 51.2427 10.5045 50.1333 11.1872 49.6213ZM19.7632 48.5973C20.4459 49.1093 20.7019 50.2187 20.5312 51.9253C20.3605 53.5467 19.8059 55.2107 18.8672 56.9173C18.0139 58.5387 17.2032 59.1787 16.4352 58.8373C16.0085 58.6667 15.7525 58.1973 15.6672 57.4293C15.5819 56.576 15.6672 55.6373 15.9232 54.6133C16.1792 53.5893 16.4779 52.608 16.8192 51.6693C17.2459 50.6453 17.7152 49.8347 18.2272 49.2373C18.8245 48.64 19.3365 48.4267 19.7632 48.5973ZM11.1872 39.8933C11.9552 39.552 12.7659 40.2347 13.6192 41.9413C14.5579 43.5627 15.1125 45.2267 15.2832 46.9333C15.4539 48.5547 15.1979 49.6213 14.5152 50.1333C14.0885 50.304 13.5765 50.1333 12.9792 49.6213C12.4672 49.024 11.9979 48.256 11.5712 47.3173C11.2299 46.2933 10.9312 45.2693 10.6752 44.2453C10.4192 43.136 10.3339 42.1973 10.4192 41.4293C10.5045 40.576 10.7605 40.064 11.1872 39.8933ZM19.7632 38.8693C20.4459 39.4667 20.7019 40.576 20.5312 42.1973C20.3605 43.8187 19.8059 45.4827 18.8672 47.1893C18.0139 48.8107 17.2032 49.4933 16.4352 49.2373C16.0085 49.0667 15.7525 48.5547 15.6672 47.7013C15.5819 46.848 15.6672 45.9093 15.9232 44.8853C16.1792 43.8613 16.4779 42.88 16.8192 41.9413C17.2459 40.9173 17.7152 40.1067 18.2272 39.5093C18.8245 38.912 19.3365 38.6987 19.7632 38.8693ZM11.1872 30.1653C11.9552 29.9093 12.7659 30.6347 13.6192 32.3413C14.5579 33.9627 15.1125 35.584 15.2832 37.2053C15.4539 38.8267 15.1979 39.8933 14.5152 40.4053C13.7472 40.7467 12.8939 40.1067 11.9552 38.4853C11.1019 36.7787 10.5899 35.1147 10.4192 33.4933C10.2485 31.7867 10.5045 30.6773 11.1872 30.1653ZM19.7632 29.1413C20.4459 29.7387 20.7019 30.848 20.5312 32.4693C20.3605 34.0907 19.8059 35.7547 18.8672 37.4613C18.0139 39.0827 17.2032 39.7653 16.4352 39.5093C16.0085 39.3387 15.7525 38.8267 15.6672 37.9733C15.5819 37.12 15.6672 36.1813 15.9232 35.1573C16.1792 34.1333 16.4779 33.152 16.8192 32.2133C17.2459 31.1893 17.7152 30.3787 18.2272 29.7813C18.8245 29.184 19.3365 28.9707 19.7632 29.1413ZM21.6832 88.4053C22.3659 88.1493 23.1339 88.8747 23.9872 90.5813C24.9259 92.2027 25.4805 93.824 25.6512 95.4453C25.8219 97.0667 25.6085 98.176 25.0112 98.7733C24.2432 99.0293 23.3899 98.3467 22.4512 96.7253C21.5979 95.0187 21.0859 93.3547 20.9152 91.7333C20.7445 90.112 21.0005 89.0027 21.6832 88.4053ZM30.2592 87.5093C30.9419 88.0213 31.1979 89.088 31.0272 90.7093C30.8565 92.3307 30.3019 93.9947 29.3632 95.7013C28.5099 97.3227 27.6992 98.0053 26.9312 97.7493C26.5045 97.5787 26.2485 97.0667 26.1632 96.2133C26.0779 95.36 26.1632 94.4213 26.4192 93.3973C26.6752 92.3733 26.9739 91.392 27.3152 90.4533C27.7419 89.4293 28.2112 88.6187 28.7232 88.0213C29.3205 87.424 29.8325 87.2533 30.2592 87.5093ZM52.9152 59.3493C53.4272 59.1787 53.9392 59.392 54.4512 59.9893C54.9632 60.5013 55.3899 61.2693 55.7312 62.2933C56.1579 63.232 56.4992 64.256 56.7552 65.3653C57.0112 66.3893 57.0965 67.328 57.0112 68.1813C56.9259 68.9493 56.6699 69.4187 56.2432 69.5893C55.4752 69.8453 54.6645 69.1627 53.8112 67.5413C52.9579 65.8347 52.4032 64.1707 52.1472 62.5493C51.9765 60.928 52.2325 59.8613 52.9152 59.3493ZM61.6192 58.3253C62.2165 58.8373 62.4299 59.9467 62.2592 61.6533C62.0885 63.2747 61.5339 64.9387 60.5952 66.6453C59.7419 68.2667 58.9312 68.9067 58.1632 68.5653C57.5659 68.0533 57.3525 66.9867 57.5232 65.3653C57.6939 63.6587 58.2059 61.9947 59.0592 60.3733C59.9979 58.752 60.8512 58.0693 61.6192 58.3253ZM52.9152 49.6213C53.6832 49.28 54.4939 49.9627 55.3472 51.6693C56.2859 53.2907 56.8405 54.9547 57.0112 56.6613C57.1819 58.2827 56.9259 59.3493 56.2432 59.8613C55.4752 60.2027 54.6645 59.5627 53.8112 57.9413C52.9579 56.2347 52.4032 54.5707 52.1472 52.9493C51.9765 51.2427 52.2325 50.1333 52.9152 49.6213ZM61.6192 48.5973C62.2165 49.1093 62.4299 50.2187 62.2592 51.9253C62.0885 53.5467 61.5339 55.2107 60.5952 56.9173C59.7419 58.5387 58.9312 59.1787 58.1632 58.8373C57.5659 58.3253 57.3525 57.2587 57.5232 55.6373C57.6939 54.016 58.2059 52.3947 59.0592 50.7733C59.9979 49.0667 60.8512 48.3413 61.6192 48.5973ZM42.5472 49.6213C43.3152 49.28 44.1259 49.9627 44.9792 51.6693C45.8325 53.2907 46.3445 54.9547 46.5152 56.6613C46.6859 58.2827 46.4725 59.3493 45.8752 59.8613C45.1072 60.2027 44.2539 59.5627 43.3152 57.9413C42.4619 56.2347 41.9499 54.5707 41.7792 52.9493C41.6085 51.2427 41.8645 50.1333 42.5472 49.6213ZM51.1232 48.5973C51.8059 49.1093 52.0619 50.2187 51.8912 51.9253C51.7205 53.5467 51.1659 55.2107 50.2272 56.9173C49.3739 58.5387 48.5632 59.1787 47.7952 58.8373C47.1125 58.3253 46.8565 57.2587 47.0272 55.6373C47.1979 54.016 47.7099 52.3947 48.5632 50.7733C49.5019 49.0667 50.3552 48.3413 51.1232 48.5973ZM52.9152 39.8933C53.6832 39.552 54.4939 40.2347 55.3472 41.9413C56.2859 43.5627 56.8405 45.2267 57.0112 46.9333C57.1819 48.5547 56.9259 49.6213 56.2432 50.1333C55.8165 50.304 55.3045 50.1333 54.7072 49.6213C54.1952 49.024 53.7259 48.256 53.2992 47.3173C52.9579 46.2933 52.6592 45.2693 52.4032 44.2453C52.1472 43.136 52.0619 42.1973 52.1472 41.4293C52.2325 40.576 52.4885 40.064 52.9152 39.8933ZM61.6192 38.8693C62.2165 39.4667 62.4299 40.576 62.2592 42.1973C62.0885 43.8187 61.5339 45.4827 60.5952 47.1893C59.7419 48.8107 58.9312 49.4933 58.1632 49.2373C57.5659 48.64 57.3525 47.5307 57.5232 45.9093C57.6939 44.288 58.2059 42.6667 59.0592 41.0453C59.9979 39.3387 60.8512 38.6133 61.6192 38.8693ZM42.5472 39.8933C43.3152 39.552 44.1259 40.2347 44.9792 41.9413C45.8325 43.5627 46.3445 45.2267 46.5152 46.9333C46.6859 48.5547 46.4725 49.6213 45.8752 50.1333C45.3632 50.304 44.8512 50.1333 44.3392 49.6213C43.8272 49.024 43.3579 48.256 42.9312 47.3173C42.5045 46.2933 42.1632 45.2693 41.9072 44.2453C41.6512 43.136 41.5659 42.1973 41.6512 41.4293C41.7365 40.576 42.0352 40.064 42.5472 39.8933ZM51.1232 38.8693C51.8059 39.4667 52.0619 40.576 51.8912 42.1973C51.7205 43.8187 51.1659 45.4827 50.2272 47.1893C49.3739 48.8107 48.5632 49.4933 47.7952 49.2373C47.1125 48.64 46.8565 47.5307 47.0272 45.9093C47.1979 44.288 47.7099 42.6667 48.5632 41.0453C49.5019 39.3387 50.3552 38.6133 51.1232 38.8693ZM32.0512 39.8933C32.8192 39.552 33.6299 40.2347 34.4832 41.9413C35.4219 43.5627 35.9765 45.2267 36.1472 46.9333C36.3179 48.5547 36.0619 49.6213 35.3792 50.1333C34.9525 50.304 34.4405 50.1333 33.8432 49.6213C33.3312 49.024 32.8619 48.256 32.4352 47.3173C32.0939 46.2933 31.7952 45.2693 31.5392 44.2453C31.2832 43.136 31.1979 42.1973 31.2832 41.4293C31.3685 40.576 31.6245 40.064 32.0512 39.8933ZM40.6272 38.8693C41.3099 39.4667 41.5659 40.576 41.3952 42.1973C41.2245 43.8187 40.6699 45.4827 39.7312 47.1893C38.8779 48.8107 38.0672 49.4933 37.2992 49.2373C36.7019 48.64 36.4885 47.5307 36.6592 45.9093C36.8299 44.288 37.3419 42.6667 38.1952 41.0453C39.1339 39.3387 39.9445 38.6133 40.6272 38.8693ZM42.5472 30.1653C43.3152 29.9093 44.1259 30.6347 44.9792 32.3413C45.8325 33.9627 46.3445 35.584 46.5152 37.2053C46.6859 38.8267 46.4725 39.8933 45.8752 40.4053C45.1072 40.7467 44.2539 40.1067 43.3152 38.4853C42.4619 36.7787 41.9499 35.1147 41.7792 33.4933C41.6085 31.7867 41.8645 30.6773 42.5472 30.1653ZM51.1232 29.1413C51.8059 29.7387 52.0619 30.848 51.8912 32.4693C51.7205 34.0907 51.1659 35.7547 50.2272 37.4613C49.3739 39.0827 48.5632 39.7653 47.7952 39.5093C47.1125 38.912 46.8565 37.8027 47.0272 36.1813C47.1979 34.56 47.7099 32.9387 48.5632 31.3173C49.5019 29.6107 50.3552 28.8853 51.1232 29.1413ZM32.0512 30.1653C32.8192 29.9093 33.6299 30.6347 34.4832 32.3413C35.4219 33.9627 35.9765 35.584 36.1472 37.2053C36.3179 38.8267 36.0619 39.8933 35.3792 40.4053C34.6112 40.7467 33.7579 40.1067 32.8192 38.4853C31.9659 36.7787 31.4539 35.1147 31.2832 33.4933C31.1125 31.7867 31.3685 30.6773 32.0512 30.1653ZM40.6272 29.1413C41.3099 29.7387 41.5659 30.848 41.3952 32.4693C41.2245 34.0907 40.6699 35.7547 39.7312 37.4613C38.8779 39.0827 38.0672 39.7653 37.2992 39.5093C36.7019 38.912 36.4885 37.8027 36.6592 36.1813C36.8299 34.56 37.3419 32.9387 38.1952 31.3173C39.1339 29.6107 39.9445 28.8853 40.6272 29.1413ZM21.6832 30.1653C22.3659 29.9093 23.1339 30.6347 23.9872 32.3413C24.9259 33.9627 25.4805 35.584 25.6512 37.2053C25.8219 38.8267 25.6085 39.8933 25.0112 40.4053C24.2432 40.7467 23.3899 40.1067 22.4512 38.4853C21.5979 36.7787 21.0859 35.1147 20.9152 33.4933C20.7445 31.7867 21.0005 30.6773 21.6832 30.1653ZM30.2592 29.1413C30.9419 29.7387 31.1979 30.848 31.0272 32.4693C30.8565 34.0907 30.3019 35.7547 29.3632 37.4613C28.5099 39.0827 27.6992 39.7653 26.9312 39.5093C26.5045 39.3387 26.2485 38.8267 26.1632 37.9733C26.0779 37.12 26.1632 36.1813 26.4192 35.1573C26.6752 34.1333 26.9739 33.152 27.3152 32.2133C27.7419 31.1893 28.2112 30.3787 28.7232 29.7813C29.3205 29.184 29.8325 28.9707 30.2592 29.1413ZM84.2752 88.4053C85.0432 88.1493 85.8539 88.8747 86.7072 90.5813C87.5605 92.2027 88.0725 93.824 88.2432 95.4453C88.4992 97.0667 88.2859 98.176 87.6032 98.7733C86.8352 99.0293 85.9819 98.3467 85.0432 96.7253C84.1899 95.0187 83.6779 93.3547 83.5072 91.7333C83.3365 90.112 83.5925 89.0027 84.2752 88.4053ZM92.8512 87.5093C93.5339 88.0213 93.7899 89.088 93.6192 90.7093C93.4485 92.3307 92.8939 93.9947 91.9552 95.7013C91.1019 97.3227 90.2912 98.0053 89.5232 97.7493C88.8405 97.152 88.5845 96.0427 88.7552 94.4213C89.0112 92.8 89.5659 91.1787 90.4192 89.5573C91.2725 87.8507 92.0832 87.168 92.8512 87.5093ZM84.2752 78.6773C85.0432 78.4213 85.8539 79.1467 86.7072 80.8533C87.5605 82.4747 88.0725 84.096 88.2432 85.7173C88.4992 87.3387 88.2859 88.448 87.6032 89.0453C86.8352 89.3013 85.9819 88.6187 85.0432 86.9973C84.1899 85.2907 83.6779 83.6267 83.5072 82.0053C83.3365 80.384 83.5925 79.2747 84.2752 78.6773ZM92.8512 77.7813C93.5339 78.2933 93.7899 79.4027 93.6192 81.1093C93.4485 82.7307 92.8939 84.352 91.9552 85.9733C91.1019 87.5947 90.2912 88.2773 89.5232 88.0213C88.8405 87.5093 88.5845 86.4427 88.7552 84.8213C89.0112 83.1147 89.5659 81.4507 90.4192 79.8293C91.2725 78.1227 92.0832 77.44 92.8512 77.7813ZM73.7792 78.6773C74.5472 78.4213 75.3579 79.1467 76.2112 80.8533C77.1499 82.4747 77.7045 84.096 77.8752 85.7173C78.0459 87.3387 77.7899 88.448 77.1072 89.0453C76.3392 89.3013 75.5285 88.6187 74.6752 86.9973C73.8219 85.2907 73.2672 83.6267 73.0112 82.0053C72.8405 80.384 73.0965 79.2747 73.7792 78.6773ZM82.4832 77.7813C83.1659 78.2933 83.3792 79.4027 83.1232 81.1093C82.9525 82.7307 82.3979 84.352 81.4592 85.9733C80.6059 87.5947 79.8379 88.2773 79.1552 88.0213C78.4725 87.5093 78.2165 86.4427 78.3872 84.8213C78.5579 83.1147 79.0699 81.4507 79.9232 79.8293C80.8619 78.1227 81.7152 77.44 82.4832 77.7813ZM84.2752 68.9493C85.0432 68.6933 85.8539 69.4187 86.7072 71.1253C87.5605 72.7467 88.0725 74.368 88.2432 75.9893C88.4992 77.6107 88.2859 78.72 87.6032 79.3173C87.0912 79.488 86.5792 79.2747 86.0672 78.6773C85.5552 78.08 85.0859 77.312 84.6592 76.3733C84.2325 75.3493 83.8912 74.3253 83.6352 73.3013C83.4645 72.2773 83.4219 71.3387 83.5072 70.4853C83.5925 69.632 83.8485 69.12 84.2752 68.9493ZM92.8512 68.0533C93.5339 68.5653 93.7899 69.6747 93.6192 71.3813C93.4485 73.0027 92.8939 74.6667 91.9552 76.3733C91.1019 77.9947 90.2912 78.6347 89.5232 78.2933C88.8405 77.7813 88.5845 76.7147 88.7552 75.0933C89.0112 73.3867 89.5659 71.7227 90.4192 70.1013C91.2725 68.3947 92.0832 67.712 92.8512 68.0533ZM73.7792 68.9493C74.5472 68.6933 75.3579 69.4187 76.2112 71.1253C77.1499 72.7467 77.7045 74.368 77.8752 75.9893C78.0459 77.6107 77.7899 78.72 77.1072 79.3173C76.6805 79.488 76.1685 79.2747 75.5712 78.6773C75.0592 78.08 74.5899 77.312 74.1632 76.3733C73.8219 75.3493 73.5232 74.3253 73.2672 73.3013C73.0112 72.2773 72.9259 71.3387 73.0112 70.4853C73.0965 69.632 73.3525 69.12 73.7792 68.9493ZM82.4832 68.0533C83.1659 68.5653 83.3792 69.6747 83.1232 71.3813C82.9525 73.0027 82.3979 74.6667 81.4592 76.3733C80.6059 77.9947 79.8379 78.6347 79.1552 78.2933C78.4725 77.7813 78.2165 76.7147 78.3872 75.0933C78.5579 73.3867 79.0699 71.7227 79.9232 70.1013C80.8619 68.3947 81.7152 67.712 82.4832 68.0533ZM63.4112 68.9493C64.1792 68.6933 64.9899 69.4187 65.8432 71.1253C66.6965 72.7467 67.2085 74.368 67.3792 75.9893C67.6352 77.6107 67.4219 78.72 66.7392 79.3173C66.2272 79.488 65.7152 79.2747 65.2032 78.6773C64.6912 78.08 64.2219 77.312 63.7952 76.3733C63.3685 75.3493 63.0272 74.3253 62.7712 73.3013C62.5152 72.2773 62.4299 71.3387 62.5152 70.4853C62.6005 69.632 62.8992 69.12 63.4112 68.9493ZM71.9872 68.0533C72.6699 68.5653 72.9259 69.6747 72.7552 71.3813C72.5845 73.0027 72.0299 74.6667 71.0912 76.3733C70.2379 77.9947 69.4272 78.6347 68.6592 78.2933C67.9765 77.7813 67.7205 76.7147 67.8912 75.0933C68.1472 73.3867 68.7019 71.7227 69.5552 70.1013C70.4085 68.3947 71.2192 67.712 71.9872 68.0533ZM84.2752 59.3493C85.1285 59.008 86.0245 59.8613 86.9632 61.9093C88.4992 65.152 88.8832 67.5413 88.1152 69.0773C88.0299 69.3333 87.8592 69.504 87.6032 69.5893C86.8352 69.8453 85.9819 69.1627 85.0432 67.5413C84.1899 65.8347 83.6779 64.1707 83.5072 62.5493C83.3365 60.928 83.5925 59.8613 84.2752 59.3493ZM92.8512 58.3253C93.5339 58.8373 93.7899 59.9467 93.6192 61.6533C93.4485 63.2747 92.8939 64.9387 91.9552 66.6453C91.1019 68.2667 90.2912 68.9067 89.5232 68.5653C88.8405 68.0533 88.5845 66.9867 88.7552 65.3653C89.0112 63.6587 89.5659 61.9947 90.4192 60.3733C91.2725 58.752 92.0832 58.0693 92.8512 58.3253ZM73.7792 59.3493C74.1205 59.1787 74.4619 59.264 74.8032 59.6053C75.2299 59.8613 75.6139 60.288 75.9552 60.8853C76.2965 61.3973 76.5952 61.9947 76.8512 62.6773C77.1925 63.36 77.4485 64.0853 77.6192 64.8533C77.7899 65.6213 77.8752 66.3467 77.8752 67.0293C77.9605 67.6267 77.9179 68.1813 77.7472 68.6933C77.6619 69.2053 77.4485 69.504 77.1072 69.5893C76.3392 69.8453 75.5285 69.1627 74.6752 67.5413C73.8219 65.8347 73.2672 64.1707 73.0112 62.5493C72.8405 60.928 73.0965 59.8613 73.7792 59.3493ZM82.4832 58.3253C83.1659 58.8373 83.3792 59.9467 83.1232 61.6533C82.9525 63.2747 82.3979 64.9387 81.4592 66.6453C80.6059 68.2667 79.8379 68.9067 79.1552 68.5653C78.4725 68.0533 78.2165 66.9867 78.3872 65.3653C78.5579 63.6587 79.0699 61.9947 79.9232 60.3733C80.8619 58.752 81.7152 58.0693 82.4832 58.3253ZM63.4112 59.3493C63.7525 59.1787 64.0939 59.264 64.4352 59.6053C64.8619 59.8613 65.2032 60.288 65.4592 60.8853C65.8005 61.3973 66.0992 61.9947 66.3552 62.6773C66.6965 63.36 66.9525 64.0853 67.1232 64.8533C67.2939 65.6213 67.4219 66.3467 67.5072 67.0293C67.5925 67.6267 67.5499 68.1813 67.3792 68.6933C67.2939 69.2053 67.0805 69.504 66.7392 69.5893C65.9712 69.8453 65.1179 69.1627 64.1792 67.5413C63.3259 65.8347 62.8139 64.1707 62.6432 62.5493C62.4725 60.928 62.7285 59.8613 63.4112 59.3493ZM71.9872 58.3253C72.6699 58.8373 72.9259 59.9467 72.7552 61.6533C72.5845 63.2747 72.0299 64.9387 71.0912 66.6453C70.2379 68.2667 69.4272 68.9067 68.6592 68.5653C67.9765 68.0533 67.7205 66.9867 67.8912 65.3653C68.1472 63.6587 68.7019 61.9947 69.5552 60.3733C70.4085 58.752 71.2192 58.0693 71.9872 58.3253ZM84.2752 49.6213C85.0432 49.28 85.8539 49.9627 86.7072 51.6693C87.5605 53.2907 88.0725 54.9547 88.2432 56.6613C88.4992 58.2827 88.2859 59.3493 87.6032 59.8613C86.8352 60.2027 85.9819 59.5627 85.0432 57.9413C84.1899 56.2347 83.6779 54.5707 83.5072 52.9493C83.3365 51.2427 83.5925 50.1333 84.2752 49.6213ZM92.8512 48.5973C93.5339 49.1093 93.7899 50.2187 93.6192 51.9253C93.4485 53.5467 92.8939 55.2107 91.9552 56.9173C91.1019 58.5387 90.2912 59.1787 89.5232 58.8373C88.8405 58.3253 88.5845 57.2587 88.7552 55.6373C89.0112 54.016 89.5659 52.3947 90.4192 50.7733C91.2725 49.0667 92.0832 48.3413 92.8512 48.5973ZM63.4112 49.6213C64.1792 49.28 64.9899 49.9627 65.8432 51.6693C66.6965 53.2907 67.2085 54.9547 67.3792 56.6613C67.6352 58.2827 67.4219 59.3493 66.7392 59.8613C65.9712 60.2027 65.1179 59.5627 64.1792 57.9413C63.3259 56.2347 62.8139 54.5707 62.6432 52.9493C62.4725 51.2427 62.7285 50.1333 63.4112 49.6213ZM71.9872 48.5973C72.6699 49.1093 72.9259 50.2187 72.7552 51.9253C72.5845 53.5467 72.0299 55.2107 71.0912 56.9173C70.2379 58.5387 69.4272 59.1787 68.6592 58.8373C67.9765 58.3253 67.7205 57.2587 67.8912 55.6373C68.1472 54.016 68.7019 52.3947 69.5552 50.7733C70.4085 49.0667 71.2192 48.3413 71.9872 48.5973ZM84.2752 39.8933C85.0432 39.552 85.8539 40.2347 86.7072 41.9413C87.5605 43.5627 88.0725 45.2267 88.2432 46.9333C88.4992 48.5547 88.2859 49.6213 87.6032 50.1333C87.0912 50.304 86.5792 50.1333 86.0672 49.6213C85.5552 49.024 85.0859 48.256 84.6592 47.3173C84.2325 46.2933 83.8912 45.2693 83.6352 44.2453C83.4645 43.136 83.4219 42.1973 83.5072 41.4293C83.5925 40.576 83.8485 40.064 84.2752 39.8933ZM92.8512 38.8693C93.5339 39.4667 93.7899 40.576 93.6192 42.1973C93.4485 43.8187 92.8939 45.4827 91.9552 47.1893C91.1019 48.8107 90.2912 49.4933 89.5232 49.2373C88.8405 48.64 88.5845 47.5307 88.7552 45.9093C89.0112 44.288 89.5659 42.6667 90.4192 41.0453C91.2725 39.3387 92.0832 38.6133 92.8512 38.8693ZM84.2752 30.1653C85.0432 29.9093 85.8539 30.6347 86.7072 32.3413C87.5605 33.9627 88.0725 35.584 88.2432 37.2053C88.4992 38.8267 88.2859 39.8933 87.6032 40.4053C86.8352 40.7467 85.9819 40.1067 85.0432 38.4853C84.1899 36.7787 83.6779 35.1147 83.5072 33.4933C83.3365 31.7867 83.5925 30.6773 84.2752 30.1653ZM92.8512 29.1413C93.5339 29.7387 93.7899 30.848 93.6192 32.4693C93.4485 34.0907 92.8939 35.7547 91.9552 37.4613C91.1019 39.0827 90.2912 39.7653 89.5232 39.5093C88.8405 38.912 88.5845 37.8027 88.7552 36.1813C89.0112 34.56 89.5659 32.9387 90.4192 31.3173C91.2725 29.6107 92.0832 28.8853 92.8512 29.1413ZM84.2752 20.4373C84.7019 20.2667 85.1712 20.48 85.6832 21.0773C86.2805 21.6747 86.7499 22.4853 87.0912 23.5093C87.5179 24.448 87.8592 25.4293 88.1152 26.4533C88.3712 27.4773 88.4565 28.416 88.3712 29.2693C88.2859 30.1227 88.0299 30.6347 87.6032 30.8053C86.8352 31.0613 85.9819 30.3787 85.0432 28.7573C84.1899 27.0507 83.6779 25.3867 83.5072 23.7653C83.3365 22.144 83.5925 21.0347 84.2752 20.4373ZM92.8512 19.5413C93.5339 20.0533 93.7899 21.12 93.6192 22.7413C93.4485 24.3627 92.8939 26.0267 91.9552 27.7333C91.1019 29.3547 90.2912 30.0373 89.5232 29.7813C88.8405 29.184 88.5845 28.0747 88.7552 26.4533C89.0112 24.832 89.5659 23.2107 90.4192 21.5893C91.2725 19.8827 92.0832 19.2 92.8512 19.5413ZM32.0512 20.4373C32.3925 20.352 32.7339 20.4373 33.0752 20.6933C33.5019 20.9493 33.8859 21.376 34.2272 21.9733C34.5685 22.4853 34.8672 23.1253 35.1232 23.8933C35.4645 24.576 35.7205 25.3013 35.8912 26.0693C36.0619 26.8373 36.1472 27.5627 36.1472 28.2453C36.2325 28.8427 36.1899 29.3973 36.0192 29.9093C35.9339 30.336 35.7205 30.6347 35.3792 30.8053C34.6112 31.0613 33.7579 30.3787 32.8192 28.7573C31.9659 27.0507 31.4539 25.3867 31.2832 23.7653C31.1125 22.144 31.3685 21.0347 32.0512 20.4373ZM40.7552 19.5413C41.3525 20.0533 41.5659 21.12 41.3952 22.7413C41.2245 24.3627 40.6699 26.0267 39.7312 27.7333C38.8779 29.3547 38.0672 30.0373 37.2992 29.7813C36.7019 29.184 36.4885 28.0747 36.6592 26.4533C36.8299 24.832 37.3419 23.2107 38.1952 21.5893C39.1339 19.8827 39.9872 19.2 40.7552 19.5413ZM21.6832 20.4373C22.1099 20.2667 22.5792 20.48 23.0912 21.0773C23.6885 21.6747 24.1579 22.4853 24.4992 23.5093C24.9259 24.448 25.2672 25.4293 25.5232 26.4533C25.7792 27.4773 25.8645 28.416 25.7792 29.2693C25.6939 30.1227 25.4379 30.6347 25.0112 30.8053C24.2432 31.0613 23.3899 30.3787 22.4512 28.7573C21.5979 27.0507 21.0859 25.3867 20.9152 23.7653C20.7445 22.144 21.0005 21.0347 21.6832 20.4373ZM30.2592 19.5413C30.9419 20.0533 31.1979 21.12 31.0272 22.7413C30.8565 24.3627 30.3019 26.0267 29.3632 27.7333C28.5099 29.3547 27.6992 30.0373 26.9312 29.7813C26.5045 29.6107 26.2485 29.0987 26.1632 28.2453C26.0779 27.392 26.1632 26.4533 26.4192 25.4293C26.6752 24.4053 26.9739 23.424 27.3152 22.4853C27.7419 21.4613 28.2112 20.6507 28.7232 20.0533C29.3205 19.456 29.8325 19.2853 30.2592 19.5413ZM11.1872 20.4373C11.6139 20.2667 12.0832 20.48 12.5952 21.0773C13.1925 21.6747 13.6619 22.4853 14.0032 23.5093C14.4299 24.448 14.7712 25.4293 15.0272 26.4533C15.2832 27.4773 15.3685 28.416 15.2832 29.2693C15.1979 30.1227 14.9419 30.6347 14.5152 30.8053C13.7472 31.0613 12.8939 30.3787 11.9552 28.7573C11.1019 27.0507 10.5899 25.3867 10.4192 23.7653C10.2485 22.144 10.5045 21.0347 11.1872 20.4373ZM19.7632 19.5413C20.4459 20.0533 20.7019 21.12 20.5312 22.7413C20.3605 24.3627 19.8059 26.0267 18.8672 27.7333C18.0139 29.3547 17.2032 30.0373 16.4352 29.7813C16.0939 29.6107 15.8379 29.312 15.6672 28.8853C15.5819 28.3733 15.5819 27.8187 15.6672 27.2213C15.7525 26.5387 15.8805 25.8133 16.0512 25.0453C16.2219 24.2773 16.4352 23.552 16.6912 22.8693C17.0325 22.1867 17.3739 21.5893 17.7152 21.0773C18.0565 20.48 18.3979 20.0533 18.7392 19.7973C19.1659 19.456 19.5072 19.3707 19.7632 19.5413ZM84.2752 10.7093C85.0432 10.4533 85.8539 11.1787 86.7072 12.8853C87.5605 14.5067 88.0725 16.128 88.2432 17.7493C88.4992 19.3707 88.2859 20.48 87.6032 21.0773C87.0912 21.248 86.5792 21.0347 86.0672 20.4373C85.5552 19.84 85.0859 19.072 84.6592 18.1333C84.2325 17.1093 83.8912 16.0853 83.6352 15.0613C83.4645 14.0373 83.4219 13.0987 83.5072 12.2453C83.5925 11.392 83.8485 10.88 84.2752 10.7093ZM92.8512 9.81333C93.5339 10.3253 93.7899 11.4347 93.6192 13.1413C93.4485 14.7627 92.8939 16.384 91.9552 18.0053C91.1019 19.6267 90.2912 20.3093 89.5232 20.0533C88.8405 19.5413 88.5845 18.4747 88.7552 16.8533C89.0112 15.1467 89.5659 13.4827 90.4192 11.8613C91.2725 10.1547 92.0832 9.472 92.8512 9.81333ZM21.6832 10.7093C22.3659 10.4533 23.1339 11.1787 23.9872 12.8853C24.9259 14.5067 25.4805 16.128 25.6512 17.7493C25.8219 19.3707 25.6085 20.48 25.0112 21.0773C24.4992 21.248 23.9872 21.0347 23.4752 20.4373C22.9632 19.84 22.4939 19.072 22.0672 18.1333C21.6405 17.1093 21.2992 16.0853 21.0432 15.0613C20.7872 14.0373 20.7019 13.0987 20.7872 12.2453C20.8725 11.392 21.1712 10.88 21.6832 10.7093ZM30.2592 9.81333C30.9419 10.3253 31.1979 11.4347 31.0272 13.1413C30.8565 14.7627 30.3019 16.384 29.3632 18.0053C28.5099 19.6267 27.6992 20.3093 26.9312 20.0533C26.5045 19.8827 26.2485 19.4133 26.1632 18.6453C26.0779 17.792 26.1632 16.8533 26.4192 15.8293C26.6752 14.72 26.9739 13.696 27.3152 12.7573C27.7419 11.7333 28.2112 10.9653 28.7232 10.4533C29.3205 9.856 29.8325 9.64267 30.2592 9.81333ZM11.1872 10.7093C11.9552 10.4533 12.7659 11.1787 13.6192 12.8853C14.5579 14.5067 15.1125 16.128 15.2832 17.7493C15.4539 19.3707 15.1979 20.48 14.5152 21.0773C14.0885 21.248 13.5765 21.0347 12.9792 20.4373C12.4672 19.84 11.9979 19.072 11.5712 18.1333C11.2299 17.1093 10.9312 16.0853 10.6752 15.0613C10.4192 14.0373 10.3339 13.0987 10.4192 12.2453C10.5045 11.392 10.7605 10.88 11.1872 10.7093ZM19.7632 9.81333C20.4459 10.3253 20.7019 11.4347 20.5312 13.1413C20.3605 14.7627 19.8059 16.384 18.8672 18.0053C18.0139 19.6267 17.2032 20.3093 16.4352 20.0533C16.0085 19.8827 15.7525 19.4133 15.6672 18.6453C15.5819 17.792 15.6672 16.8533 15.9232 15.8293C16.1792 14.72 16.4779 13.696 16.8192 12.7573C17.2459 11.7333 17.7152 10.9653 18.2272 10.4533C18.8245 9.856 19.3365 9.64267 19.7632 9.81333ZM94.6432 0.98133C94.9845 0.895998 95.3259 1.024 95.6672 1.36533C96.0939 1.62133 96.4779 2.048 96.8192 2.64533C97.1605 3.15733 97.4592 3.75466 97.7152 4.43733C98.0565 5.12 98.3125 5.84533 98.4832 6.61333C98.6539 7.38133 98.7392 8.10667 98.7392 8.78934C98.8245 9.38667 98.7819 9.94133 98.6112 10.4533C98.5259 10.88 98.3125 11.1787 97.9712 11.3493C97.2032 11.6053 96.3925 10.9227 95.5392 9.30133C94.6859 7.59466 94.1739 5.93067 94.0032 4.30933C93.8325 2.688 94.0459 1.57867 94.6432 0.98133ZM103.347 0.0853337C104.03 0.597332 104.243 1.70666 103.987 3.41333C103.817 5.03467 103.305 6.69867 102.451 8.40533C101.598 10.0267 100.787 10.6667 100.019 10.3253C99.3365 9.81333 99.0805 8.74667 99.2512 7.12533C99.4219 5.41866 99.9339 3.75466 100.787 2.13333C101.726 0.426665 102.579 -0.256 103.347 0.0853337ZM84.2752 0.98133C84.7019 0.810665 85.1712 1.024 85.6832 1.62133C86.2805 2.21867 86.7499 3.02933 87.0912 4.05334C87.5179 4.992 87.8592 5.97333 88.1152 6.99734C88.3712 8.02133 88.4565 8.96 88.3712 9.81333C88.2859 10.6667 88.0299 11.1787 87.6032 11.3493C86.8352 11.6053 85.9819 10.9227 85.0432 9.30133C84.1899 7.59466 83.6779 5.93067 83.5072 4.30933C83.3365 2.688 83.5925 1.57867 84.2752 0.98133ZM92.8512 0.0853337C93.5339 0.597332 93.7899 1.70666 93.6192 3.41333C93.4485 5.03467 92.8939 6.69867 91.9552 8.40533C91.1019 10.0267 90.2912 10.6667 89.5232 10.3253C88.8405 9.81333 88.5845 8.74667 88.7552 7.12533C89.0112 5.41866 89.5659 3.75466 90.4192 2.13333C91.2725 0.426665 92.0832 -0.256 92.8512 0.0853337ZM73.7792 0.98133C74.2912 0.810665 74.8032 1.024 75.3152 1.62133C75.8272 2.21867 76.2965 3.02933 76.7232 4.05334C77.1499 4.992 77.4912 5.97333 77.7472 6.99734C78.0032 8.02133 78.0885 8.96 78.0032 9.81333C77.9179 10.6667 77.6192 11.1787 77.1072 11.3493C76.3392 11.6053 75.5285 10.9227 74.6752 9.30133C73.8219 7.59466 73.2672 5.93067 73.0112 4.30933C72.8405 2.688 73.0965 1.57867 73.7792 0.98133ZM82.4832 0.0853337C83.1659 0.597332 83.3792 1.70666 83.1232 3.41333C82.9525 5.03467 82.3979 6.69867 81.4592 8.40533C80.6059 10.0267 79.8379 10.6667 79.1552 10.3253C78.4725 9.81333 78.2165 8.74667 78.3872 7.12533C78.5579 5.41866 79.0699 3.75466 79.9232 2.13333C80.8619 0.426665 81.7152 -0.256 82.4832 0.0853337ZM21.6832 0.98133C22.1099 0.810665 22.5792 1.024 23.0912 1.62133C23.6885 2.21867 24.1579 3.02933 24.4992 4.05334C24.9259 4.992 25.2672 5.97333 25.5232 6.99734C25.7792 8.02133 25.8645 8.96 25.7792 9.81333C25.6939 10.6667 25.4379 11.1787 25.0112 11.3493C24.2432 11.6053 23.3899 10.9227 22.4512 9.30133C21.5979 7.59466 21.0859 5.93067 20.9152 4.30933C20.7445 2.688 21.0005 1.57867 21.6832 0.98133ZM30.2592 0.0853337C30.9419 0.597332 31.1979 1.70666 31.0272 3.41333C30.8565 5.03467 30.3019 6.69867 29.3632 8.40533C28.5099 10.0267 27.6992 10.6667 26.9312 10.3253C26.5045 10.1547 26.2485 9.68534 26.1632 8.91733C26.0779 8.064 26.1632 7.12533 26.4192 6.10133C26.6752 4.992 26.9739 3.968 27.3152 3.02933C27.7419 2.00533 28.2112 1.23733 28.7232 0.725333C29.3205 0.127997 29.8325 -0.0853359 30.2592 0.0853337ZM11.1872 0.98133C11.6139 0.810665 12.0832 1.024 12.5952 1.62133C13.1925 2.21867 13.6619 3.02933 14.0032 4.05334C14.4299 4.992 14.7712 5.97333 15.0272 6.99734C15.2832 8.02133 15.3685 8.96 15.2832 9.81333C15.1979 10.6667 14.9419 11.1787 14.5152 11.3493C13.7472 11.6053 12.8939 10.9227 11.9552 9.30133C11.1019 7.59466 10.5899 5.93067 10.4192 4.30933C10.2485 2.688 10.5045 1.57867 11.1872 0.98133ZM19.7632 0.0853337C20.4459 0.597332 20.7019 1.70666 20.5312 3.41333C20.3605 5.03467 19.8059 6.69867 18.8672 8.40533C18.0139 10.0267 17.2032 10.6667 16.4352 10.3253C16.0085 10.1547 15.7525 9.68534 15.6672 8.91733C15.5819 8.064 15.6672 7.12533 15.9232 6.10133C16.1792 4.992 16.4779 3.968 16.8192 3.02933C17.2459 2.00533 17.7152 1.23733 18.2272 0.725333C18.8245 0.127997 19.3365 -0.0853359 19.7632 0.0853337ZM0.8192 0.98133C1.24587 0.810665 1.7152 1.024 2.2272 1.62133C2.7392 2.21867 3.20853 3.02933 3.6352 4.05334C4.06187 4.992 4.4032 5.97333 4.6592 6.99734C4.9152 8.02133 5.00053 8.96 4.9152 9.81333C4.82987 10.6667 4.5312 11.1787 4.0192 11.3493C3.33653 11.6053 2.52587 10.9227 1.5872 9.30133C0.733867 7.59466 0.221867 5.93067 0.0512 4.30933C-0.119467 2.688 0.136533 1.57867 0.8192 0.98133ZM9.3952 0.0853337C10.0779 0.597332 10.2912 1.70666 10.0352 3.41333C9.86453 5.03467 9.35253 6.69867 8.4992 8.40533C7.64587 10.0267 6.8352 10.6667 6.0672 10.3253C5.38453 9.81333 5.12853 8.74667 5.2992 7.12533C5.46987 5.41866 5.98187 3.75466 6.8352 2.13333C7.77387 0.426665 8.6272 -0.256 9.3952 0.0853337Z" fill="white"/>
</g>
<defs>
<filter id="filter0_d_251_12360" x="0" y="0" width="343.84" height="102.826" filterUnits="userSpaceOnUse" color-interpolation-filters="sRGB">
<feFlood flood-opacity="0" result="BackgroundImageFix"/>
<feColorMatrix in="SourceAlpha" type="matrix" values="0 0 0 0 0 0 0 0 0 0 0 0 0 0 0 0 0 0 127 0" result="hardAlpha"/>
<feOffset dx="2" dy="2"/>
<feGaussianBlur stdDeviation="1"/>
<feComposite in2="hardAlpha" operator="out"/>
<feColorMatrix type="matrix" values="0 0 0 0 0.912429 0 0 0 0 0.783615 0 0 0 0 0 0 0 0 1 0"/>
<feBlend mode="normal" in2="BackgroundImageFix" result="effect1_dropShadow_251_12360"/>
<feBlend mode="normal" in="SourceGraphic" in2="effect1_dropShadow_251_12360" result="shape"/>
</filter>
</defs>
</svg>
